NotoSerifTamilSlanted-CondensedMedium.ufo
<glyph name="exclam" format="2">
  <advance width="310.6862068965517"/>
  <unicode hex="0021"/>
  <outline>
    <contour>
      <point x="121.48275862068964" y="210.01724137931032" type="line"/>
      <point x="172.80689655172415" y="210.01724137931032" type="line"/>
      <point x="319.26206896551724" y="714.0" type="line"/>
      <point x="196.77241379310345" y="714.0" type="line"/>
    </contour>
    <contour>
      <point x="117.18275862068965" y="-8.0" type="curve" smooth="yes"/>
      <point x="150.5413793103448" y="-8.0"/>
      <point x="185.5" y="14.420689655172412"/>
      <point x="185.5" y="74.7344827586207" type="curve" smooth="yes"/>
      <point x="185.5" y="113.81379310344826"/>
      <point x="161.55517241379312" y="133.53103448275863"/>
      <point x="127.84137931034482" y="133.53103448275863" type="curve" smooth="yes"/>
      <point x="89.1551724137931" y="133.53103448275863"/>
      <point x="59.21034482758621" y="101.94827586206897"/>
      <point x="59.21034482758621" y="51.61724137931035" type="curve" smooth="yes"/>
      <point x="59.21034482758621" y="12.9"/>
      <point x="82.79655172413794" y="-8.0"/>
    </contour>
  </outline>
</glyph>
<glyph name="quotedbl" format="2">
  <advance width="380.6"/>
  <unicode hex="0022"/>
  <outline>
    <contour>
      <point x="126.1241379310345" y="472.11724137931037" type="line"/>
      <point x="173.3689655172414" y="472.11724137931037" type="line"/>
      <point x="262.0965517241379" y="714.0" type="line"/>
      <point x="151.42758620689654" y="714.0" type="line"/>
    </contour>
    <contour>
      <point x="299.2275862068966" y="472.11724137931037" type="line"/>
      <point x="346.27931034482765" y="472.11724137931037" type="line"/>
      <point x="435.00689655172414" y="714.0" type="line"/>
      <point x="325.03793103448277" y="714.0" type="line"/>
    </contour>
  </outline>
</glyph>
<glyph name="numbersign" format="2">
  <advance width="481.5655172413793"/>
  <unicode hex="0023"/>
  <outline>
    <contour>
      <point x="47.855172413793106" y="0.0" type="line"/>
      <point x="104.20344827586207" y="0.0" type="line"/>
      <point x="161.1034482758621" y="202.3655172413793" type="line"/>
      <point x="274.90344827586205" y="202.3655172413793" type="line"/>
      <point x="218.78620689655173" y="0.0" type="line"/>
      <point x="274.4344827586207" y="0.0" type="line"/>
      <point x="330.55172413793105" y="202.3655172413793" type="line"/>
      <point x="434.3827586206897" y="202.3655172413793" type="line"/>
      <point x="442.0827586206897" y="263.5448275862069" type="line"/>
      <point x="349.9103448275862" y="263.5448275862069" type="line"/>
      <point x="403.2" y="456.6862068965517" type="line"/>
      <point x="491.6827586206897" y="456.6862068965517" type="line"/>
      <point x="499.4413793103448" y="517.6344827586206" type="line"/>
      <point x="421.1103448275862" y="517.6344827586206" type="line"/>
      <point x="476.22758620689655" y="714.0" type="line"/>
      <point x="420.07241379310346" y="714.0" type="line"/>
      <point x="364.9551724137931" y="517.6344827586206" type="line"/>
      <point x="251.1551724137931" y="517.6344827586206" type="line"/>
      <point x="305.8034482758621" y="714.0" type="line"/>
      <point x="249.348275862069" y="714.0" type="line"/>
      <point x="195.50689655172414" y="517.6344827586206" type="line"/>
      <point x="92.96206896551725" y="517.6344827586206" type="line"/>
      <point x="85.7103448275862" y="456.6862068965517" type="line"/>
      <point x="177.59655172413795" y="456.6862068965517" type="line"/>
      <point x="123.30689655172414" y="263.5448275862069" type="line"/>
      <point x="35.38620689655173" y="263.5448275862069" type="line"/>
      <point x="27.686206896551724" y="202.3655172413793" type="line"/>
      <point x="105.45517241379311" y="202.3655172413793" type="line"/>
    </contour>
    <contour>
      <point x="178.9793103448276" y="263.5448275862069" type="line"/>
      <point x="233.05172413793107" y="456.6862068965517" type="line"/>
      <point x="347.1275862068965" y="456.6862068965517" type="line"/>
      <point x="293.56206896551726" y="263.5448275862069" type="line"/>
    </contour>
  </outline>
</glyph>
<glyph name="percent" format="2">
  <advance width="781.9482758620691"/>
  <unicode hex="0025"/>
  <outline>
    <contour>
      <point x="152.76206896551724" y="0.0" type="line"/>
      <point x="218.57241379310346" y="0.0" type="line"/>
      <point x="666.9655172413793" y="714.0" type="line"/>
      <point x="604.8773793103448" y="714.0" type="line"/>
    </contour>
    <contour>
      <point x="182.58620689655172" y="280.7241379310345" type="curve" smooth="yes"/>
      <point x="319.6620689655173" y="280.7241379310345"/>
      <point x="384.0241379310345" y="467.50689655172414"/>
      <point x="384.0241379310345" y="575.1689655172414" type="curve" smooth="yes"/>
      <point x="384.0241379310345" y="663.2827586206896"/>
      <point x="349.2206896551724" y="723.2758620689655"/>
      <point x="268.9068965517241" y="723.2758620689655" type="curve" smooth="yes"/>
      <point x="133.93793103448277" y="723.2758620689655"/>
      <point x="71.46896551724139" y="543.106896551724"/>
      <point x="71.46896551724139" y="428.19655172413786" type="curve"/>
      <point x="71.46896551724139" y="328.92413793103447"/>
      <point x="114.44827586206897" y="280.7241379310345"/>
    </contour>
    <contour>
      <point x="190.61724137931037" y="323.39655172413796" type="curve" smooth="yes"/>
      <point x="161.15172413793104" y="323.39655172413796"/>
      <point x="150.3103448275862" y="356.4793103448276"/>
      <point x="150.3103448275862" y="411.4344827586207" type="curve" smooth="yes"/>
      <point x="150.3103448275862" y="500.9586206896552"/>
      <point x="192.44482758620688" y="680.8586206896553"/>
      <point x="264.2896551724138" y="680.8586206896553" type="curve" smooth="yes"/>
      <point x="294.0310344827586" y="680.8586206896553"/>
      <point x="304.59655172413795" y="648.9448275862069"/>
      <point x="304.59655172413795" y="593.6758620689656" type="curve" smooth="yes"/>
      <point x="304.59655172413795" y="503.68275862068964"/>
      <point x="262.46206896551723" y="323.39655172413796"/>
    </contour>
    <contour>
      <point x="554.9586206896552" y="-8.358620689655172" type="curve" smooth="yes"/>
      <point x="692.0344827586207" y="-8.358620689655172"/>
      <point x="755.6965517241379" y="178.93103448275863"/>
      <point x="755.6965517241379" y="285.8931034482759" type="curve" smooth="yes"/>
      <point x="755.6965517241379" y="374.00689655172414"/>
      <point x="721.0862068965517" y="434.0"/>
      <point x="640.5793103448277" y="434.0" type="curve" smooth="yes"/>
      <point x="505.803448275862" y="434.0"/>
      <point x="443.8413793103448" y="254.0241379310345"/>
      <point x="443.8413793103448" y="138.92068965517242" type="curve"/>
      <point x="443.8413793103448" y="39.841379310344834"/>
      <point x="486.6275862068966" y="-8.358620689655172"/>
    </contour>
    <contour>
      <point x="562.6034482758621" y="34.31379310344827" type="curve" smooth="yes"/>
      <point x="532.8241379310346" y="34.31379310344827"/>
      <point x="521.9827586206897" y="67.20344827586206"/>
      <point x="521.9827586206897" y="123.36551724137932" type="curve" smooth="yes"/>
      <point x="521.9827586206897" y="211.68275862068967"/>
      <point x="564.6241379310346" y="391.77586206896547"/>
      <point x="635.9620689655172" y="391.77586206896547" type="curve" smooth="yes"/>
      <point x="666.2103448275863" y="391.77586206896547"/>
      <point x="676.7758620689656" y="359.1620689655172"/>
      <point x="676.7758620689656" y="304.4" type="curve" smooth="yes"/>
      <point x="676.7758620689656" y="214.40689655172415"/>
      <point x="634.8344827586207" y="34.31379310344827"/>
    </contour>
  </outline>
</glyph>
<glyph name="quotesingle" format="2">
  <advance width="211.26206896551724"/>
  <unicode hex="0027"/>
  <outline>
    <contour>
      <point x="127.69310344827586" y="472.11724137931037" type="line"/>
      <point x="174.93793103448277" y="472.11724137931037" type="line"/>
      <point x="259.8931034482759" y="714.0" type="line"/>
      <point x="149.9241379310345" y="714.0" type="line"/>
    </contour>
  </outline>
</glyph>
<glyph name="parenleft" format="2">
  <advance width="318.55862068965513"/>
  <unicode hex="0028"/>
  <outline>
    <contour>
      <point x="203.83793103448275" y="-129.94827586206898" type="curve"/>
      <point x="215.3655172413793" y="-80.96206896551725" type="line"/>
      <point x="161.56551724137933" y="-35.820689655172416"/>
      <point x="143.54827586206898" y="56.396551724137936"/>
      <point x="143.54827586206898" y="136.87586206896552" type="curve" smooth="yes"/>
      <point x="143.54827586206898" y="268.61379310344824"/>
      <point x="193.4896551724138" y="595.4206896551724"/>
      <point x="383.8965517241379" y="714.2379310344828" type="curve"/>
      <point x="393.5827586206897" y="761.5241379310345" type="line"/>
      <point x="158.1103448275862" y="689.5137931034483"/>
      <point x="40.793103448275865" y="410.5379310344827"/>
      <point x="40.793103448275865" y="170.67241379310346" type="curve" smooth="yes"/>
      <point x="40.793103448275865" y="37.8"/>
      <point x="89.15862068965517" y="-78.19655172413792"/>
    </contour>
  </outline>
</glyph>
<glyph name="parenright" format="2">
  <advance width="318.55862068965513"/>
  <unicode hex="0029"/>
  <outline>
    <contour>
      <point x="-44.50689655172414" y="-136.3586206896552" type="line"/>
      <point x="191.66551724137932" y="-63.841379310344834"/>
      <point x="307.77586206896547" y="215.32758620689654"/>
      <point x="307.77586206896547" y="455.0" type="curve" smooth="yes"/>
      <point x="307.77586206896547" y="587.8724137931035"/>
      <point x="260.4241379310345" y="703.1689655172415"/>
      <point x="145.23793103448278" y="755.1137931034482" type="curve"/>
      <point x="134.41034482758621" y="706.6344827586206" type="line"/>
      <point x="187.5103448275862" y="661.4931034482759"/>
      <point x="205.33448275862068" y="569.4689655172414"/>
      <point x="205.33448275862068" y="488.79655172413794" type="curve" smooth="yes"/>
      <point x="205.33448275862068" y="357.75862068965523"/>
      <point x="156.28620689655173" y="30.758620689655174"/>
      <point x="-34.313793103448276" y="-88.37241379310346" type="curve"/>
    </contour>
  </outline>
</glyph>
<glyph name="asterisk" format="2">
  <advance width="460.3310344827586"/>
  <unicode hex="002A"/>
  <outline>
    <contour>
      <point x="308.1034482758621" y="370.84137931034485" type="line"/>
      <point x="314.85172413793106" y="531.6034482758621" type="line"/>
      <point x="422.9068965517241" y="407.2448275862069" type="line"/>
      <point x="473.1586206896552" y="478.0" type="line"/>
      <point x="346.6344827586207" y="559.051724137931" type="line"/>
      <point x="492.77931034482765" y="571.0137931034483" type="line"/>
      <point x="477.7931034482758" y="659.1862068965517" type="line"/>
      <point x="329.6344827586207" y="597.2379310344828" type="line"/>
      <point x="388.9310344827586" y="745.8137931034483" type="line"/>
      <point x="307.09999999999997" y="765.0" type="line"/>
      <point x="297.7620689655172" y="602.8137931034483" type="line"/>
      <point x="191.70689655172416" y="732.1862068965517" type="line"/>
      <point x="140.73103448275862" y="658.8413793103448" type="line"/>
      <point x="267.54482758620685" y="576.6413793103449" type="line"/>
      <point x="121.34137931034482" y="563.2103448275861" type="line"/>
      <point x="136.60344827586206" y="476.0137931034483" type="line"/>
      <point x="283.7620689655172" y="539.2379310344828" type="line"/>
      <point x="226.04137931034484" y="389.3275862068965" type="line"/>
    </contour>
  </outline>
</glyph>
<glyph name="plus" format="2">
  <advance width="465.2"/>
  <unicode hex="002B"/>
  <outline>
    <contour>
      <point x="214.1551724137931" y="143.0" type="line"/>
      <point x="275.8724137931035" y="143.0" type="line"/>
      <point x="275.8724137931035" y="327.23793103448276" type="line"/>
      <point x="429.3827586206897" y="327.23793103448276" type="line"/>
      <point x="429.3827586206897" y="387.76206896551724" type="line"/>
      <point x="275.8724137931035" y="387.76206896551724" type="line"/>
      <point x="275.8724137931035" y="572.0" type="line"/>
      <point x="214.1551724137931" y="572.0" type="line"/>
      <point x="214.1551724137931" y="387.76206896551724" type="line"/>
      <point x="61.45172413793104" y="387.76206896551724" type="line"/>
      <point x="61.45172413793104" y="327.23793103448276" type="line"/>
      <point x="214.1551724137931" y="327.23793103448276" type="line"/>
    </contour>
  </outline>
</glyph>
<glyph name="comma" format="2">
  <advance width="235.66551724137926"/>
  <unicode hex="002C"/>
  <outline>
    <contour>
      <point x="-23.86896551724138" y="-147.18620689655174" type="line"/>
      <point x="94.7344827586207" y="-121.35862068965517"/>
      <point x="152.53793103448277" y="-43.93448275862069"/>
      <point x="152.53793103448277" y="48.00000000000001" type="curve" smooth="yes"/>
      <point x="152.53793103448277" y="101.58275862068966"/>
      <point x="121.3103448275862" y="132.0241379310345"/>
      <point x="84.14827586206897" y="132.0241379310345" type="curve" smooth="yes"/>
      <point x="51.679310344827584" y="132.0241379310345"/>
      <point x="24.548275862068962" y="109.86206896551724"/>
      <point x="24.548275862068962" y="69.56551724137931" type="curve" smooth="yes"/>
      <point x="24.548275862068962" y="18.37241379310345"/>
      <point x="73.83793103448276" y="17.24827586206897"/>
      <point x="73.83793103448276" y="-17.920689655172414" type="curve" smooth="yes"/>
      <point x="73.83793103448276" y="-58.53793103448276"/>
      <point x="43.5448275862069" y="-87.26206896551724"/>
      <point x="-16.73103448275862" y="-103.23793103448276" type="curve"/>
    </contour>
  </outline>
</glyph>
<glyph name="hyphen" format="2">
  <advance width="267.1793103448276"/>
  <unicode hex="002D"/>
  <outline>
    <contour>
      <point x="17.79655172413793" y="232.84137931034482" type="line"/>
      <point x="241.78275862068963" y="232.84137931034482" type="line"/>
      <point x="260.41379310344826" y="312.15862068965515" type="line"/>
      <point x="36.234482758620686" y="312.15862068965515" type="line"/>
    </contour>
  </outline>
</glyph>
<glyph name="period" format="2">
  <advance width="235.66551724137926"/>
  <unicode hex="002E"/>
  <outline>
    <contour>
      <point x="84.58620689655172" y="-8.0" type="curve" smooth="yes"/>
      <point x="117.9448275862069" y="-8.0"/>
      <point x="153.4103448275862" y="14.420689655172412"/>
      <point x="153.4103448275862" y="75.60344827586206" type="curve" smooth="yes"/>
      <point x="153.4103448275862" y="113.81379310344826"/>
      <point x="128.9586206896552" y="133.53103448275863"/>
      <point x="95.24482758620691" y="133.53103448275863" type="curve" smooth="yes"/>
      <point x="56.55862068965517" y="133.53103448275863"/>
      <point x="26.613793103448277" y="101.94827586206897"/>
      <point x="26.613793103448277" y="50.748275862068965" type="curve" smooth="yes"/>
      <point x="26.613793103448277" y="12.9"/>
      <point x="50.2" y="-8.0"/>
    </contour>
  </outline>
</glyph>
<glyph name="slash" format="2">
  <advance width="248.48620689655172"/>
  <unicode hex="002F"/>
  <outline>
    <contour>
      <point x="-87.67241379310344" y="-121.0" type="line"/>
      <point x="-28.113793103448277" y="-121.0" type="line"/>
      <point x="358.4448275862069" y="760.0" type="line"/>
      <point x="297.67931034482757" y="760.0" type="line"/>
    </contour>
  </outline>
</glyph>
<glyph name="zero" format="2">
  <advance width="495.22758620689655"/>
  <unicode hex="0030"/>
  <outline>
    <contour>
      <point x="209.85517241379313" y="-11.0" type="curve" smooth="yes"/>
      <point x="404.9413793103448" y="-11.0"/>
      <point x="490.2586206896552" y="314.22758620689655"/>
      <point x="490.2586206896552" y="508.9137931034483" type="curve" smooth="yes"/>
      <point x="490.2586206896552" y="658.3068965517241"/>
      <point x="418.9896551724138" y="724.4931034482759"/>
      <point x="327.0758620689655" y="724.4931034482759" type="curve" smooth="yes"/>
      <point x="133.2206896551724" y="724.4931034482759"/>
      <point x="45.110344827586204" y="419.17241379310343"/>
      <point x="45.110344827586204" y="216.68620689655174" type="curve" smooth="yes"/>
      <point x="45.110344827586204" y="68.8"/>
      <point x="110.76551724137931" y="-11.0"/>
    </contour>
    <contour>
      <point x="217.49655172413793" y="46.49999999999999" type="curve" smooth="yes"/>
      <point x="171.2206896551724" y="46.49999999999999"/>
      <point x="143.51379310344828" y="92.24137931034483"/>
      <point x="143.51379310344828" y="188.84482758620692" type="curve" smooth="yes"/>
      <point x="143.51379310344828" y="355.4172413793103"/>
      <point x="204.68275862068967" y="667.9931034482759"/>
      <point x="319.2758620689655" y="667.9931034482759" type="curve" smooth="yes"/>
      <point x="367.55172413793105" y="667.9931034482759"/>
      <point x="393.7413793103448" y="622.251724137931"/>
      <point x="393.7413793103448" y="528.1551724137931" type="curve" smooth="yes"/>
      <point x="393.7413793103448" y="362.6172413793103"/>
      <point x="335.12413793103445" y="46.49999999999999"/>
    </contour>
  </outline>
</glyph>
<glyph name="one" format="2">
  <advance width="495.22758620689655"/>
  <unicode hex="0031"/>
  <outline>
    <contour>
      <point x="38.11724137931034" y="0.0" type="line"/>
      <point x="372.86206896551727" y="0.0" type="line"/>
      <point x="382.41379310344826" y="43.94827586206896" type="line"/>
      <point x="337.8068965517242" y="43.94827586206896" type="line" smooth="yes"/>
      <point x="302.5310344827586" y="43.94827586206896"/>
      <point x="276.1793103448276" y="49.39655172413793"/>
      <point x="276.1793103448276" y="81.00344827586207" type="curve" smooth="yes"/>
      <point x="276.1793103448276" y="88.06206896551724"/>
      <point x="278.53793103448277" y="102.54827586206898"/>
      <point x="282.4448275862069" y="120.46896551724139" type="curve" smooth="yes"/>
      <point x="409.1793103448276" y="718.0" type="line"/>
      <point x="336.66896551724136" y="718.0" type="line"/>
      <point x="265.9758620689655" y="666.0" type="line" smooth="yes"/>
      <point x="198.88275862068966" y="617.0"/>
      <point x="159.81379310344826" y="601.0"/>
      <point x="119.92068965517241" y="589.0" type="curve"/>
      <point x="119.02758620689654" y="555.3724137931034"/>
      <point x="132.14827586206897" y="532.1620689655173"/>
      <point x="156.14137931034483" y="532.1620689655173" type="curve" smooth="yes"/>
      <point x="192.84137931034482" y="532.1620689655173"/>
      <point x="229.6689655172414" y="570.2689655172413"/>
      <point x="288.7586206896552" y="636.1620689655173" type="curve"/>
      <point x="291.55172413793105" y="636.1620689655173" type="line"/>
      <point x="279.7689655172414" y="597.6206896551724"/>
      <point x="268.7206896551724" y="547.8413793103448"/>
      <point x="255.7758620689655" y="485.1137931034483" type="curve" smooth="yes"/>
      <point x="177.5448275862069" y="114.2103448275862" type="line" smooth="yes"/>
      <point x="164.67241379310346" y="54.262068965517244"/>
      <point x="134.35862068965517" y="43.94827586206896"/>
      <point x="95.10689655172415" y="43.94827586206896" type="curve" smooth="yes"/>
      <point x="46.9448275862069" y="43.94827586206896" type="line"/>
    </contour>
  </outline>
</glyph>
<glyph name="two" format="2">
  <advance width="495.22758620689655"/>
  <unicode hex="0032"/>
  <outline>
    <contour>
      <point x="-9.437931034482759" y="0.0" type="line"/>
      <point x="378.3310344827587" y="0.0" type="line"/>
      <point x="422.0206896551724" y="177.1" type="line"/>
      <point x="378.90344827586205" y="177.1" type="line"/>
      <point x="372.4103448275862" y="161.24827586206894" type="line" smooth="yes"/>
      <point x="356.3862068965517" y="122.42068965517242"/>
      <point x="336.85172413793106" y="84.70344827586207"/>
      <point x="283.2310344827586" y="84.70344827586207" type="curve" smooth="yes"/>
      <point x="83.46896551724139" y="84.70344827586207" type="line"/>
      <point x="269.64137931034486" y="268.7" type="line" smooth="yes"/>
      <point x="419.5206896551724" y="405.496551724138"/>
      <point x="479.7275862068965" y="483.88275862068963"/>
      <point x="479.7275862068965" y="584.251724137931" type="curve" smooth="yes"/>
      <point x="479.7275862068965" y="670.0344827586206"/>
      <point x="421.9862068965517" y="724.0"/>
      <point x="312.26206896551724" y="724.0" type="curve" smooth="yes"/>
      <point x="185.54482758620688" y="724.0"/>
      <point x="114.0344827586207" y="654.451724137931"/>
      <point x="114.0344827586207" y="583.5862068965517" type="curve" smooth="yes"/>
      <point x="114.0344827586207" y="538.103448275862"/>
      <point x="146.71724137931034" y="518.2965517241379"/>
      <point x="191.86206896551724" y="518.2965517241379" type="curve"/>
      <point x="202.1103448275862" y="600.8413793103448"/>
      <point x="238.94137931034481" y="672.4758620689655"/>
      <point x="304.4827586206897" y="672.4758620689655" type="curve" smooth="yes"/>
      <point x="347.9862068965517" y="672.4758620689655"/>
      <point x="372.3586206896552" y="634.1275862068966"/>
      <point x="372.3586206896552" y="578.5" type="curve" smooth="yes"/>
      <point x="372.3586206896552" y="493.17241379310343"/>
      <point x="345.97241379310344" y="423.11034482758623"/>
      <point x="219.60344827586206" y="295.55862068965513" type="curve" smooth="yes"/>
      <point x="9.848275862068965" y="84.3896551724138" type="line"/>
    </contour>
  </outline>
</glyph>
<glyph name="three" format="2">
  <advance width="495.22758620689655"/>
  <unicode hex="0033"/>
  <outline>
    <contour>
      <point x="174.03448275862067" y="-10.0" type="curve" smooth="yes"/>
      <point x="287.3827586206897" y="-10.0"/>
      <point x="427.5827586206897" y="49.90689655172414"/>
      <point x="427.5827586206897" y="230.6" type="curve" smooth="yes"/>
      <point x="427.5827586206897" y="312.4"/>
      <point x="379.18965517241384" y="364.5827586206896"/>
      <point x="302.39655172413796" y="373.88275862068963" type="curve"/>
      <point x="421.18965517241384" y="398.5827586206896"/>
      <point x="482.0827586206896" y="490.99310344827586"/>
      <point x="482.0827586206896" y="585.2" type="curve" smooth="yes"/>
      <point x="482.0827586206896" y="673.4"/>
      <point x="415.36206896551727" y="724.0"/>
      <point x="317.56206896551726" y="724.0" type="curve" smooth="yes"/>
      <point x="205.3862068965517" y="724.0"/>
      <point x="116.25172413793103" y="662.3172413793103"/>
      <point x="116.25172413793103" y="580.3172413793103" type="curve" smooth="yes"/>
      <point x="116.25172413793103" y="536.8448275862069"/>
      <point x="149.56206896551723" y="523.051724137931"/>
      <point x="193.16551724137932" y="523.051724137931" type="curve"/>
      <point x="209.33793103448275" y="602.5586206896552"/>
      <point x="235.75862068965517" y="672.5586206896552"/>
      <point x="307.8655172413793" y="672.5586206896552" type="curve" smooth="yes"/>
      <point x="353.7896551724138" y="672.5586206896552"/>
      <point x="375.2241379310345" y="636.196551724138"/>
      <point x="375.2241379310345" y="584.6034482758621" type="curve" smooth="yes"/>
      <point x="375.2241379310345" y="471.16896551724136"/>
      <point x="299.92413793103447" y="396.1862068965517"/>
      <point x="199.9448275862069" y="396.1862068965517" type="curve" smooth="yes"/>
      <point x="172.1448275862069" y="396.1862068965517" type="line"/>
      <point x="162.65172413793104" y="343.23793103448276" type="line"/>
      <point x="199.5448275862069" y="343.23793103448276" type="line" smooth="yes"/>
      <point x="275.8241379310345" y="343.23793103448276"/>
      <point x="318.7241379310345" y="297.42758620689654"/>
      <point x="318.7241379310345" y="223.4310344827586" type="curve" smooth="yes"/>
      <point x="318.7241379310345" y="105.81724137931035"/>
      <point x="253.98620689655175" y="47.62758620689655"/>
      <point x="183.89655172413794" y="47.62758620689655" type="curve" smooth="yes"/>
      <point x="110.43448275862069" y="47.62758620689655"/>
      <point x="82.15862068965517" y="109.67241379310344"/>
      <point x="84.25862068965516" y="173.5758620689655" type="curve"/>
      <point x="36.66896551724138" y="173.5758620689655"/>
      <point x="3.731034482758621" y="146.82758620689657"/>
      <point x="3.731034482758621" y="98.2551724137931" type="curve" smooth="yes"/>
      <point x="3.731034482758621" y="44.186206896551724"/>
      <point x="48.134482758620685" y="-10.0"/>
    </contour>
  </outline>
</glyph>
<glyph name="four" format="2">
  <advance width="495.22758620689655"/>
  <unicode hex="0034"/>
  <outline>
    <contour>
      <point x="115.62758620689655" y="0.0" type="line"/>
      <point x="406.1620689655172" y="0.0" type="line"/>
      <point x="416.41379310344826" y="43.94827586206896" type="line"/>
      <point x="398.1" y="43.94827586206896" type="line" smooth="yes"/>
      <point x="363.96551724137925" y="43.94827586206896"/>
      <point x="339.9689655172414" y="49.755172413793105"/>
      <point x="339.9689655172414" y="81.65517241379311" type="curve" smooth="yes"/>
      <point x="339.9689655172414" y="88.54827586206898"/>
      <point x="341.9689655172414" y="103.88275862068964"/>
      <point x="343.9689655172414" y="112.0758620689655" type="curve" smooth="yes"/>
      <point x="471.2241379310345" y="714.0" type="line"/>
      <point x="369.5310344827586" y="714.0" type="line"/>
      <point x="16.53448275862069" y="238.94827586206898" type="line"/>
      <point x="6.155172413793102" y="196.04137931034484" type="line"/>
      <point x="459.0137931034483" y="196.04137931034484" type="line"/>
      <point x="471.5655172413793" y="250.79310344827584" type="line"/>
      <point x="53.13103448275862" y="250.79310344827584" type="line"/>
      <point x="65.10000000000001" y="226.56896551724137" type="line"/>
      <point x="274.6965517241379" y="503.78275862068966" type="line" smooth="yes"/>
      <point x="296.3103448275862" y="532.4103448275863"/>
      <point x="335.88275862068963" y="591.2103448275861"/>
      <point x="356.6275862068966" y="630.9241379310345" type="curve"/>
      <point x="338.32758620689657" y="568.9241379310345"/>
      <point x="321.0275862068966" y="494.79655172413794"/>
      <point x="309.3034482758621" y="437.47586206896545" type="curve" smooth="yes"/>
      <point x="242.62413793103445" y="115.94827586206897" type="line" smooth="yes"/>
      <point x="229.34827586206893" y="51.76206896551724"/>
      <point x="193.1448275862069" y="43.94827586206896"/>
      <point x="156.41379310344826" y="43.94827586206896" type="curve" smooth="yes"/>
      <point x="124.37241379310343" y="43.94827586206896" type="line"/>
    </contour>
  </outline>
</glyph>
<glyph name="five" format="2">
  <advance width="495.22758620689655"/>
  <unicode hex="0035"/>
  <outline>
    <contour>
      <point x="171.5793103448276" y="-10.0" type="curve" smooth="yes"/>
      <point x="331.948275862069" y="-10.0"/>
      <point x="428.86896551724135" y="104.06551724137931"/>
      <point x="428.86896551724135" y="250.91034482758621" type="curve" smooth="yes"/>
      <point x="428.86896551724135" y="365.56206896551726"/>
      <point x="358.23793103448276" y="428.03793103448277"/>
      <point x="246.57241379310344" y="428.03793103448277" type="curve" smooth="yes"/>
      <point x="206.96206896551723" y="428.03793103448277"/>
      <point x="180.91034482758621" y="419.5448275862069"/>
      <point x="161.6655172413793" y="412.5448275862069" type="curve"/>
      <point x="220.98275862068965" y="629.0655172413793" type="line"/>
      <point x="391.25172413793103" y="629.0655172413793" type="line" smooth="yes"/>
      <point x="422.20344827586206" y="629.0655172413793"/>
      <point x="431.07931034482755" y="619.7655172413793"/>
      <point x="431.07931034482755" y="606.1896551724138" type="curve" smooth="yes"/>
      <point x="431.07931034482755" y="599.3965517241379"/>
      <point x="428.37931034482756" y="576.4206896551724"/>
      <point x="426.67931034482757" y="558.2137931034482" type="curve"/>
      <point x="470.348275862069" y="558.2137931034482" type="line"/>
      <point x="499.3" y="714.0" type="line"/>
      <point x="194.60689655172413" y="714.0" type="line"/>
      <point x="94.89999999999999" y="363.3068965517241" type="line"/>
      <point x="126.01379310344828" y="349.78965517241375" type="line"/>
      <point x="149.26206896551724" y="360.78965517241375"/>
      <point x="175.67931034482757" y="371.78965517241375"/>
      <point x="218.34482758620692" y="371.78965517241375" type="curve" smooth="yes"/>
      <point x="278.0275862068965" y="371.78965517241375"/>
      <point x="321.8931034482759" y="328.8241379310345"/>
      <point x="321.8931034482759" y="243.21034482758623" type="curve" smooth="yes"/>
      <point x="321.8931034482759" y="114.64137931034483"/>
      <point x="264.7241379310345" y="47.15862068965518"/>
      <point x="181.10344827586206" y="47.15862068965518" type="curve" smooth="yes"/>
      <point x="104.5448275862069" y="47.15862068965518"/>
      <point x="87.99655172413794" y="114.69655172413793"/>
      <point x="88.39655172413794" y="166.65172413793104" type="curve"/>
      <point x="37.86551724137931" y="166.65172413793104"/>
      <point x="15.310344827586206" y="137.28965517241377"/>
      <point x="15.310344827586206" y="96.45172413793104" type="curve" smooth="yes"/>
      <point x="15.310344827586206" y="41.26206896551724"/>
      <point x="57.900000000000006" y="-10.0"/>
    </contour>
  </outline>
</glyph>
<glyph name="six" format="2">
  <advance width="495.22758620689655"/>
  <unicode hex="0036"/>
  <outline>
    <contour>
      <point x="223.87931034482762" y="-10.0" type="curve" smooth="yes"/>
      <point x="376.88965517241377" y="-10.0"/>
      <point x="451.60344827586204" y="126.8896551724138"/>
      <point x="451.60344827586204" y="267.0586206896552" type="curve" smooth="yes"/>
      <point x="451.60344827586204" y="358.1344827586207"/>
      <point x="407.5103448275862" y="434.21034482758625"/>
      <point x="312.6310344827586" y="434.21034482758625" type="curve" smooth="yes"/>
      <point x="253.70689655172416" y="434.21034482758625"/>
      <point x="209.39999999999998" y="404.3137931034483"/>
      <point x="182.89999999999998" y="382.76206896551724" type="curve"/>
      <point x="227.06206896551726" y="574.7241379310345"/>
      <point x="291.50689655172414" y="674.051724137931"/>
      <point x="372.3172413793103" y="674.051724137931" type="curve" smooth="yes"/>
      <point x="421.8896551724138" y="674.051724137931"/>
      <point x="426.32068965517243" y="615.7965517241379"/>
      <point x="424.2206896551724" y="555.5275862068966" type="curve"/>
      <point x="481.5689655172414" y="555.5275862068966"/>
      <point x="516.151724137931" y="585.1379310344827"/>
      <point x="516.151724137931" y="631.8862068965517" type="curve" smooth="yes"/>
      <point x="516.151724137931" y="682.6379310344828"/>
      <point x="471.17241379310343" y="724.0"/>
      <point x="383.8724137931035" y="724.0" type="curve" smooth="yes"/>
      <point x="186.49655172413796" y="724.0"/>
      <point x="59.641379310344824" y="465.67241379310343"/>
      <point x="59.641379310344824" y="216.1655172413793" type="curve" smooth="yes"/>
      <point x="59.641379310344824" y="58.2448275862069"/>
      <point x="132.63103448275862" y="-10.0"/>
    </contour>
    <contour>
      <point x="233.29310344827584" y="44.95862068965518" type="curve" smooth="yes"/>
      <point x="185.8551724137931" y="44.95862068965518"/>
      <point x="156.8137931034483" y="92.74827586206898"/>
      <point x="156.8137931034483" y="189.54827586206895" type="curve" smooth="yes"/>
      <point x="156.8137931034483" y="233.24827586206897"/>
      <point x="161.22413793103448" y="271.75172413793103"/>
      <point x="171.34827586206896" y="325.0" type="curve"/>
      <point x="197.47931034482758" y="352.3655172413793"/>
      <point x="240.40689655172412" y="382.23793103448276"/>
      <point x="282.1034482758621" y="382.23793103448276" type="curve" smooth="yes"/>
      <point x="326.3241379310345" y="382.23793103448276"/>
      <point x="350.45517241379315" y="340.28965517241375"/>
      <point x="350.45517241379315" y="264.5862068965517" type="curve" smooth="yes"/>
      <point x="350.45517241379315" y="141.74827586206897"/>
      <point x="301.7275862068966" y="44.95862068965518"/>
    </contour>
  </outline>
</glyph>
<glyph name="seven" format="2">
  <advance width="495.22758620689655"/>
  <unicode hex="0037"/>
  <outline>
    <contour>
      <point x="98.20689655172414" y="0.0" type="line"/>
      <point x="167.8793103448276" y="0.0" type="line"/>
      <point x="531.1379310344828" y="680.2965517241379" type="line"/>
      <point x="537.8172413793103" y="714.0" type="line"/>
      <point x="144.40689655172415" y="714.0" type="line"/>
      <point x="100.8" y="528.0655172413793" type="line"/>
      <point x="144.46896551724137" y="528.0655172413793" type="line"/>
      <point x="157.76896551724138" y="578.0655172413793" type="line" smooth="yes"/>
      <point x="166.76896551724138" y="611.0655172413793"/>
      <point x="186.9551724137931" y="629.7655172413793"/>
      <point x="218.05517241379312" y="629.7655172413793" type="curve" smooth="yes"/>
      <point x="443.5793103448276" y="629.7655172413793" type="line"/>
    </contour>
  </outline>
</glyph>
<glyph name="eight" format="2">
  <advance width="495.22758620689655"/>
  <unicode hex="0038"/>
  <outline>
    <contour>
      <point x="215.04137931034484" y="-10.0" type="curve" smooth="yes"/>
      <point x="341.82758620689657" y="-10.0"/>
      <point x="442.951724137931" y="58.8"/>
      <point x="442.951724137931" y="208.10689655172416" type="curve" smooth="yes"/>
      <point x="442.951724137931" y="285.2931034482759"/>
      <point x="400.75172413793103" y="338.7586206896552"/>
      <point x="339.9344827586207" y="380.46551724137936" type="curve"/>
      <point x="433.57586206896553" y="426.7586206896552"/>
      <point x="494.851724137931" y="479.1"/>
      <point x="494.851724137931" y="582.2" type="curve" smooth="yes"/>
      <point x="494.851724137931" y="663.9068965517241"/>
      <point x="436.1310344827586" y="724.0"/>
      <point x="332.4103448275862" y="724.0" type="curve" smooth="yes"/>
      <point x="178.19310344827588" y="724.0"/>
      <point x="116.84827586206896" y="633.9068965517241"/>
      <point x="116.84827586206896" y="526.3275862068966" type="curve" smooth="yes"/>
      <point x="116.84827586206896" y="464.30689655172415"/>
      <point x="147.90689655172415" y="406.47241379310344"/>
      <point x="196.2896551724138" y="364.3655172413793" type="curve"/>
      <point x="94.30689655172414" y="320.6655172413793"/>
      <point x="19.879310344827587" y="269.6793103448276"/>
      <point x="19.879310344827587" y="154.8793103448276" type="curve" smooth="yes"/>
      <point x="19.879310344827587" y="58.88620689655173"/>
      <point x="92.17931034482758" y="-10.0"/>
    </contour>
    <contour>
      <point x="216.47586206896554" y="40.39655172413793" type="curve" smooth="yes"/>
      <point x="153.2655172413793" y="40.39655172413793"/>
      <point x="116.69310344827586" y="84.30344827586207"/>
      <point x="116.69310344827586" y="153.84827586206896" type="curve" smooth="yes"/>
      <point x="116.69310344827586" y="246.05862068965516"/>
      <point x="164.23793103448278" y="302.0758620689655"/>
      <point x="239.97241379310344" y="336.84137931034485" type="curve"/>
      <point x="309.3241379310345" y="292.95862068965516"/>
      <point x="345.3793103448276" y="250.85172413793103"/>
      <point x="345.3793103448276" y="183.19655172413795" type="curve" smooth="yes"/>
      <point x="345.3793103448276" y="88.28620689655172"/>
      <point x="286.21034482758614" y="40.39655172413793"/>
    </contour>
    <contour>
      <point x="295.3379310344827" y="406.39655172413796" type="curve"/>
      <point x="242.21034482758623" y="442.78620689655173"/>
      <point x="216.39655172413796" y="483.23793103448276"/>
      <point x="216.39655172413796" y="537.4586206896552" type="curve" smooth="yes"/>
      <point x="216.39655172413796" y="619.7965517241379"/>
      <point x="261.04137931034484" y="672.6862068965518"/>
      <point x="326.3724137931035" y="672.6862068965518" type="curve" smooth="yes"/>
      <point x="378.92413793103447" y="672.6862068965518"/>
      <point x="403.99655172413793" y="631.6137931034483"/>
      <point x="403.99655172413793" y="576.0931034482759" type="curve" smooth="yes"/>
      <point x="403.99655172413793" y="506.1551724137931"/>
      <point x="377.16551724137935" y="450.8620689655172"/>
    </contour>
  </outline>
</glyph>
<glyph name="nine" format="2">
  <advance width="495.22758620689655"/>
  <unicode hex="0039"/>
  <outline>
    <contour>
      <point x="157.7448275862069" y="-10.0" type="curve" smooth="yes"/>
      <point x="391.7260689655173" y="-10.0"/>
      <point x="482.3310344827586" y="362.8586206896552"/>
      <point x="482.3310344827586" y="540.7344827586207" type="curve" smooth="yes"/>
      <point x="482.3310344827586" y="658.2137931034483"/>
      <point x="420.8379310344827" y="724.0"/>
      <point x="323.6241379310345" y="724.0" type="curve" smooth="yes"/>
      <point x="194.2394482758621" y="724.0"/>
      <point x="82.15172413793104" y="603.8"/>
      <point x="82.15172413793104" y="433.49310344827586" type="curve" smooth="yes"/>
      <point x="82.15172413793104" y="340.69310344827585"/>
      <point x="132.37586206896552" y="275.0"/>
      <point x="222.28620689655173" y="275.0" type="curve" smooth="yes"/>
      <point x="282.4034482758621" y="275.0"/>
      <point x="325.5275862068966" y="308.0"/>
      <point x="355.5206896551724" y="343.0" type="curve"/>
      <point x="307.3931034482759" y="158.7758620689655"/>
      <point x="254.14482758620687" y="41.58275862068965"/>
      <point x="168.2862068965517" y="41.58275862068965" type="curve" smooth="yes"/>
      <point x="116.22758620689656" y="41.58275862068965"/>
      <point x="97.6103448275862" y="97.67586206896551"/>
      <point x="98.51724137931035" y="146.5758620689655" type="curve"/>
      <point x="58.66551724137931" y="146.5758620689655"/>
      <point x="34.42068965517242" y="117.56896551724138"/>
      <point x="34.42068965517242" y="79.7" type="curve" smooth="yes"/>
      <point x="34.42068965517242" y="34.36896551724138"/>
      <point x="67.1344827586207" y="-10.0"/>
    </contour>
    <contour>
      <point x="254.89310344827584" y="332.20344827586206" type="curve" smooth="yes"/>
      <point x="212.13793103448276" y="332.20344827586206"/>
      <point x="184.65862068965518" y="366.78275862068966"/>
      <point x="184.65862068965518" y="432.12068965517244" type="curve" smooth="yes"/>
      <point x="184.65862068965518" y="542.9413793103448"/>
      <point x="238.9241379310345" y="668.6827586206897"/>
      <point x="316.8689655172414" y="668.6827586206897" type="curve" smooth="yes"/>
      <point x="357.91379310344826" y="668.6827586206897"/>
      <point x="387.39310344827584" y="632.6103448275862"/>
      <point x="387.39310344827584" y="544.9" type="curve" smooth="yes"/>
      <point x="387.39310344827584" y="509.76551724137937"/>
      <point x="379.8862068965517" y="453.13793103448273"/>
      <point x="370.2689655172414" y="416.6724137931035" type="curve"/>
      <point x="345.9310344827586" y="375.80000000000007"/>
      <point x="306.3862068965517" y="332.3965517241379"/>
    </contour>
  </outline>
</glyph>
<glyph name="colon" format="2">
  <advance width="274.4586206896552"/>
  <unicode hex="003A"/>
  <outline>
    <contour>
      <point x="180.05172413793105" y="399.25172413793103" type="curve" smooth="yes"/>
      <point x="213.41034482758621" y="399.25172413793103"/>
      <point x="248.36896551724138" y="421.6724137931035"/>
      <point x="248.36896551724138" y="481.9862068965518" type="curve" smooth="yes"/>
      <point x="248.36896551724138" y="521.0655172413794"/>
      <point x="224.42413793103447" y="540.7827586206896"/>
      <point x="190.7103448275862" y="540.7827586206896" type="curve" smooth="yes"/>
      <point x="152.0241379310345" y="540.7827586206896"/>
      <point x="122.58620689655172" y="508.69310344827596"/>
      <point x="122.58620689655172" y="458.36206896551727" type="curve" smooth="yes"/>
      <point x="122.58620689655172" y="420.151724137931"/>
      <point x="145.66551724137932" y="399.25172413793103"/>
    </contour>
    <contour>
      <point x="90.79655172413793" y="-8.0" type="curve" smooth="yes"/>
      <point x="124.1551724137931" y="-8.0"/>
      <point x="159.6206896551724" y="14.420689655172412"/>
      <point x="159.6206896551724" y="74.7344827586207" type="curve" smooth="yes"/>
      <point x="159.6206896551724" y="113.81379310344826"/>
      <point x="135.1689655172414" y="133.53103448275863"/>
      <point x="101.96206896551725" y="133.53103448275863" type="curve" smooth="yes"/>
      <point x="62.76896551724138" y="133.53103448275863"/>
      <point x="33.331034482758625" y="101.94827586206897"/>
      <point x="33.331034482758625" y="51.61724137931035" type="curve" smooth="yes"/>
      <point x="33.331034482758625" y="12.9"/>
      <point x="56.91724137931035" y="-8.0"/>
    </contour>
  </outline>
</glyph>
<glyph name="semicolon" format="2">
  <advance width="273.75862068965523"/>
  <unicode hex="003B"/>
  <outline>
    <contour>
      <point x="-12.13448275862069" y="-147.18620689655174" type="line"/>
      <point x="105.96206896551723" y="-121.35862068965517"/>
      <point x="164.0793103448276" y="-43.93448275862069"/>
      <point x="164.0793103448276" y="48.00000000000001" type="curve" smooth="yes"/>
      <point x="164.0793103448276" y="101.58275862068966"/>
      <point x="133.04482758620688" y="132.0241379310345"/>
      <point x="95.88275862068966" y="132.0241379310345" type="curve" smooth="yes"/>
      <point x="63.727586206896554" y="132.0241379310345"/>
      <point x="35.58275862068965" y="110.56206896551724"/>
      <point x="35.58275862068965" y="69.56551724137931" type="curve" smooth="yes"/>
      <point x="35.58275862068965" y="18.37241379310345"/>
      <point x="85.37931034482759" y="17.24827586206897"/>
      <point x="85.37931034482759" y="-17.920689655172414" type="curve" smooth="yes"/>
      <point x="85.37931034482759" y="-58.53793103448276"/>
      <point x="55.08620689655172" y="-87.26206896551724"/>
      <point x="-5.189655172413793" y="-103.23793103448276" type="curve"/>
    </contour>
    <contour>
      <point x="180.05172413793105" y="399.25172413793103" type="curve" smooth="yes"/>
      <point x="212.90344827586208" y="399.25172413793103"/>
      <point x="248.36896551724138" y="421.6724137931035"/>
      <point x="248.36896551724138" y="481.9862068965518" type="curve" smooth="yes"/>
      <point x="248.36896551724138" y="521.0655172413794"/>
      <point x="223.91724137931035" y="540.7827586206896"/>
      <point x="190.7103448275862" y="540.7827586206896" type="curve" smooth="yes"/>
      <point x="152.0241379310345" y="540.7827586206896"/>
      <point x="122.58620689655172" y="508.69310344827596"/>
      <point x="122.58620689655172" y="458.36206896551727" type="curve" smooth="yes"/>
      <point x="122.58620689655172" y="420.151724137931"/>
      <point x="145.66551724137932" y="399.25172413793103"/>
    </contour>
  </outline>
</glyph>
<glyph name="less" format="2">
  <advance width="465.2"/>
  <unicode hex="003C"/>
  <outline>
    <contour>
      <point x="429.3827586206897" y="109.23793103448276" type="line"/>
      <point x="429.3827586206897" y="178.46206896551726" type="line"/>
      <point x="146.02758620689656" y="357.0" type="line"/>
      <point x="429.3827586206897" y="538.0448275862069" type="line"/>
      <point x="429.3827586206897" y="606.7620689655172" type="line"/>
      <point x="61.45172413793104" y="375.6344827586207" type="line"/>
      <point x="61.45172413793104" y="339.3655172413793" type="line"/>
    </contour>
  </outline>
</glyph>
<glyph name="equal" format="2">
  <advance width="465.2"/>
  <unicode hex="003D"/>
  <outline>
    <contour>
      <point x="60.900000000000006" y="421.5827586206897" type="line"/>
      <point x="430.44137931034487" y="421.5827586206897" type="line"/>
      <point x="430.44137931034487" y="482.5310344827586" type="line"/>
      <point x="60.900000000000006" y="482.5310344827586" type="line"/>
    </contour>
    <contour>
      <point x="60.900000000000006" y="231.4689655172414" type="line"/>
      <point x="430.44137931034487" y="231.4689655172414" type="line"/>
      <point x="430.44137931034487" y="292.4172413793103" type="line"/>
      <point x="60.900000000000006" y="292.4172413793103" type="line"/>
    </contour>
  </outline>
</glyph>
<glyph name="greater" format="2">
  <advance width="465.2"/>
  <unicode hex="003E"/>
  <outline>
    <contour>
      <point x="61.45172413793104" y="109.23793103448276" type="line"/>
      <point x="429.3827586206897" y="339.3655172413793" type="line"/>
      <point x="429.3827586206897" y="375.6344827586207" type="line"/>
      <point x="61.45172413793104" y="606.7620689655172" type="line"/>
      <point x="61.45172413793104" y="538.0448275862069" type="line"/>
      <point x="344.8068965517241" y="357.0" type="line"/>
      <point x="61.45172413793104" y="178.46206896551726" type="line"/>
    </contour>
  </outline>
</glyph>
<glyph name="question" format="2">
  <advance width="442.7689655172414"/>
  <unicode hex="003F"/>
  <outline>
    <contour>
      <point x="173.14827586206897" y="210.2103448275862" type="line"/>
      <point x="224.68965517241378" y="210.2103448275862" type="line"/>
      <point x="254.65862068965518" y="317.0" type="line"/>
      <point x="379.3034482758621" y="371.1137931034483"/>
      <point x="474.8862068965518" y="446.5137931034483"/>
      <point x="474.8862068965518" y="571.348275862069" type="curve" smooth="yes"/>
      <point x="474.8862068965518" y="673.7"/>
      <point x="410.20496551724136" y="724.0"/>
      <point x="306.00344827586207" y="724.0" type="curve" smooth="yes"/>
      <point x="188.93793103448274" y="724.0"/>
      <point x="116.25517241379309" y="661.0034482758621"/>
      <point x="116.25517241379309" y="590.9586206896552" type="curve" smooth="yes"/>
      <point x="116.25517241379309" y="551.8586206896553"/>
      <point x="143.49655172413793" y="529.8413793103448"/>
      <point x="196.50689655172414" y="529.8413793103448" type="curve"/>
      <point x="208.3793103448276" y="605.8413793103448"/>
      <point x="232.6689655172414" y="672.051724137931"/>
      <point x="297.3344827586207" y="672.051724137931" type="curve" smooth="yes"/>
      <point x="338.2620689655172" y="672.051724137931"/>
      <point x="367.98275862068965" y="635.703448275862"/>
      <point x="367.98275862068965" y="571.9241379310345" type="curve" smooth="yes"/>
      <point x="367.98275862068965" y="461.2103448275862"/>
      <point x="296.1" y="395.48275862068965"/>
      <point x="187.10344827586206" y="349.6344827586207" type="curve"/>
    </contour>
    <contour>
      <point x="170.16551724137932" y="-8.0" type="curve" smooth="yes"/>
      <point x="204.03103448275863" y="-8.0"/>
      <point x="238.9896551724138" y="14.420689655172412"/>
      <point x="238.9896551724138" y="74.7344827586207" type="curve" smooth="yes"/>
      <point x="238.9896551724138" y="113.81379310344826"/>
      <point x="215.04482758620688" y="133.53103448275863"/>
      <point x="181.3310344827586" y="133.53103448275863" type="curve" smooth="yes"/>
      <point x="142.6448275862069" y="133.53103448275863"/>
      <point x="113.20689655172414" y="101.94827586206897"/>
      <point x="113.20689655172414" y="51.61724137931035" type="curve" smooth="yes"/>
      <point x="113.20689655172414" y="12.9"/>
      <point x="136.28620689655173" y="-8.0"/>
    </contour>
  </outline>
</glyph>
<glyph name="bracketleft" format="2">
  <advance width="330.45862068965516"/>
  <unicode hex="005B"/>
  <outline>
    <contour>
      <point x="6.54137931034483" y="-128.0" type="line"/>
      <point x="219.40689655172417" y="-128.0" type="line"/>
      <point x="228.95862068965522" y="-84.05172413793103" type="line"/>
      <point x="191.55862068965519" y="-84.05172413793103" type="line" smooth="yes"/>
      <point x="157.46896551724137" y="-84.05172413793103"/>
      <point x="132.60000000000002" y="-78.05172413793103"/>
      <point x="132.60000000000002" y="-44.606896551724134" type="curve" smooth="yes"/>
      <point x="132.60000000000002" y="-37.9448275862069"/>
      <point x="133.81724137931036" y="-24.199999999999996"/>
      <point x="135.81724137931036" y="-15.841379310344827" type="curve"/>
      <point x="275.3793103448276" y="644.051724137931" type="line"/>
      <point x="288.3793103448276" y="707.051724137931"/>
      <point x="322.8379310344828" y="716.051724137931"/>
      <point x="361.26206896551724" y="716.051724137931" type="curve" smooth="yes"/>
      <point x="398.15517241379314" y="716.051724137931" type="line"/>
      <point x="408.4068965517242" y="760.0" type="line"/>
      <point x="195.54137931034484" y="760.0" type="line"/>
    </contour>
  </outline>
</glyph>
<glyph name="bracketright" format="2">
  <advance width="330.45862068965516"/>
  <unicode hex="005D"/>
  <outline>
    <contour>
      <point x="-47.06206896551724" y="-128.0" type="line"/>
      <point x="165.3103448275862" y="-128.0" type="line"/>
      <point x="353.61034482758623" y="760.0" type="line"/>
      <point x="141.44482758620688" y="760.0" type="line"/>
      <point x="131.38620689655173" y="716.051724137931" type="line"/>
      <point x="168.78620689655173" y="716.051724137931" type="line" smooth="yes"/>
      <point x="202.36896551724135" y="716.051724137931"/>
      <point x="228.44482758620688" y="710.051724137931"/>
      <point x="228.44482758620688" y="676.606896551724" type="curve" smooth="yes"/>
      <point x="228.44482758620688" y="669.4379310344827"/>
      <point x="226.52758620689656" y="656.7068965517242"/>
      <point x="224.52758620689656" y="647.8413793103448" type="curve" smooth="yes"/>
      <point x="85.15862068965518" y="-12.051724137931034" type="line"/>
      <point x="72.15862068965518" y="-75.05172413793103"/>
      <point x="37.782758620689656" y="-84.05172413793103"/>
      <point x="0.0827586206896555" y="-84.05172413793103" type="curve" smooth="yes"/>
      <point x="-36.810344827586206" y="-84.05172413793103" type="line"/>
    </contour>
  </outline>
</glyph>
<glyph name="asciicircum" format="2">
  <advance width="465.2"/>
  <unicode hex="005E"/>
  <outline>
    <contour>
      <point x="47.66551724137931" y="265.78965517241375" type="line"/>
      <point x="108.91379310344827" y="265.78965517241375" type="line"/>
      <point x="244.4241379310345" y="619.2896551724137" type="line"/>
      <point x="381.4275862068966" y="265.78965517241375" type="line"/>
      <point x="442.67586206896544" y="265.78965517241375" type="line"/>
      <point x="261.4275862068966" y="714.0" type="line"/>
      <point x="228.1068965517241" y="714.0" type="line"/>
    </contour>
  </outline>
</glyph>
<glyph name="braceleft" format="2">
  <advance width="374.4620689655173"/>
  <unicode hex="007B"/>
  <outline>
    <contour>
      <point x="202.27586206896555" y="-127.36551724137931" type="curve" smooth="yes"/>
      <point x="266.59655172413795" y="-127.36551724137931" type="line"/>
      <point x="276.4241379310345" y="-82.5" type="line"/>
      <point x="247.32068965517243" y="-82.5" type="line" smooth="yes"/>
      <point x="211.43793103448277" y="-82.5"/>
      <point x="195.93103448275863" y="-62.53448275862069"/>
      <point x="195.93103448275863" y="-25.372413793103448" type="curve" smooth="yes"/>
      <point x="195.93103448275863" y="-12.010344827586206"/>
      <point x="197.84827586206896" y="3.4724137931034487"/>
      <point x="201.63103448275862" y="20.76206896551724" type="curve" smooth="yes"/>
      <point x="237.15862068965518" y="183.2896551724138" type="line" smooth="yes"/>
      <point x="240.05172413793102" y="196.69310344827585"/>
      <point x="243.24827586206894" y="212.3551724137931"/>
      <point x="243.24827586206894" y="227.3655172413793" type="curve" smooth="yes"/>
      <point x="243.24827586206894" y="272.548275862069"/>
      <point x="218.50689655172414" y="303.5137931034483"/>
      <point x="169.03103448275863" y="314.2758620689655" type="curve"/>
      <point x="169.3896551724138" y="318.2931034482759" type="line"/>
      <point x="239.14137931034483" y="331.7793103448276"/>
      <point x="276.43793103448274" y="374.5689655172414"/>
      <point x="290.35517241379307" y="440.0" type="curve" smooth="yes"/>
      <point x="325.5689655172414" y="604.6172413793104" type="line" smooth="yes"/>
      <point x="342.07931034482755" y="682.5827586206897"/>
      <point x="366.9310344827586" y="715.3275862068966"/>
      <point x="415.9655172413793" y="715.3275862068966" type="curve" smooth="yes"/>
      <point x="445.2620689655173" y="715.3275862068966" type="line"/>
      <point x="455.5137931034483" y="760.0" type="line"/>
      <point x="394.40344827586205" y="760.0" type="line" smooth="yes"/>
      <point x="288.53793103448277" y="760.0"/>
      <point x="244.1551724137931" y="712.1655172413792"/>
      <point x="222.69655172413792" y="615.6413793103449" type="curve" smooth="yes"/>
      <point x="184.7655172413793" y="442.7241379310345" type="line" smooth="yes"/>
      <point x="166.8103448275862" y="361.76206896551724"/>
      <point x="120.07586206896553" y="342.6724137931035"/>
      <point x="63.175862068965515" y="339.948275862069" type="curve"/>
      <point x="52.87931034482758" y="294.6862068965517" type="line"/>
      <point x="99.97241379310346" y="292.6862068965517"/>
      <point x="135.4655172413793" y="276.8724137931034"/>
      <point x="135.4655172413793" y="225.03103448275863" type="curve" smooth="yes"/>
      <point x="135.4655172413793" y="214.37586206896552"/>
      <point x="134.65862068965515" y="202.55172413793105"/>
      <point x="131.74137931034483" y="190.21034482758623" type="curve" smooth="yes"/>
      <point x="99.59310344827587" y="36.862068965517246" type="line" smooth="yes"/>
      <point x="93.9241379310345" y="9.999999999999998"/>
      <point x="90.8" y="-7.5"/>
      <point x="90.8" y="-26.83793103448276" type="curve" smooth="yes"/>
      <point x="90.8" y="-92.08620689655172"/>
      <point x="130.85862068965514" y="-127.36551724137931"/>
    </contour>
  </outline>
</glyph>
<glyph name="braceright" format="2">
  <advance width="373.95517241379315"/>
  <unicode hex="007D"/>
  <outline>
    <contour>
      <point x="-48.810344827586206" y="-127.7896551724138" type="line"/>
      <point x="12.10689655172414" y="-127.7896551724138" type="line" smooth="yes"/>
      <point x="122.29310344827587" y="-127.7896551724138"/>
      <point x="164.26206896551724" y="-79.06206896551724"/>
      <point x="184.51379310344825" y="16.76206896551724" type="curve" smooth="yes"/>
      <point x="221.23793103448276" y="190.21034482758623" type="line" smooth="yes"/>
      <point x="238.4689655172414" y="271.3655172413793"/>
      <point x="286.6275862068965" y="291.6862068965517"/>
      <point x="343.0206896551724" y="294.60344827586204" type="curve"/>
      <point x="353.8241379310345" y="339.6724137931035" type="line"/>
      <point x="306.7310344827586" y="341.6724137931035"/>
      <point x="270.53793103448277" y="356.06206896551726"/>
      <point x="270.53793103448277" y="408.6034482758621" type="curve" smooth="yes"/>
      <point x="270.53793103448277" y="420.6586206896552"/>
      <point x="272.2379310344828" y="430.7689655172414"/>
      <point x="274.9620689655173" y="442.9172413793103" type="curve" smooth="yes"/>
      <point x="310.4896551724138" y="613.6448275862069" type="line" smooth="yes"/>
      <point x="314.8793103448276" y="633.9172413793102"/>
      <point x="315.90344827586205" y="647.0241379310345"/>
      <point x="315.90344827586205" y="660.9551724137931" type="curve" smooth="yes"/>
      <point x="315.90344827586205" y="717.4413793103448"/>
      <point x="281.1793103448276" y="760.2758620689655"/>
      <point x="207.8551724137931" y="760.2758620689655" type="curve" smooth="yes"/>
      <point x="139.91379310344826" y="760.2758620689655" type="line"/>
      <point x="130.08620689655172" y="715.6034482758621" type="line"/>
      <point x="159.38275862068969" y="715.6034482758621" type="line" smooth="yes"/>
      <point x="195.2655172413793" y="715.6034482758621"/>
      <point x="210.5793103448276" y="696.8448275862069"/>
      <point x="210.5793103448276" y="662.6034482758621" type="curve" smooth="yes"/>
      <point x="210.5793103448276" y="643.2068965517241"/>
      <point x="208.66206896551722" y="628.9310344827586"/>
      <point x="204.8793103448276" y="611.6413793103449" type="curve" smooth="yes"/>
      <point x="169.35172413793106" y="447.6655172413793" type="line" smooth="yes"/>
      <point x="166.45862068965516" y="434.0689655172414"/>
      <point x="163.4551724137931" y="419.80689655172415"/>
      <point x="163.4551724137931" y="406.2689655172414" type="curve" smooth="yes"/>
      <point x="163.4551724137931" y="361.27931034482754"/>
      <point x="187.49655172413793" y="331.5448275862069"/>
      <point x="237.16551724137932" y="320.2758620689655" type="curve"/>
      <point x="236.61379310344827" y="315.3655172413793" type="line"/>
      <point x="167.36896551724135" y="301.6862068965517"/>
      <point x="129.37241379310345" y="258.3655172413793"/>
      <point x="115.64827586206896" y="193.6344827586207" type="curve" smooth="yes"/>
      <point x="78.64827586206897" y="20.76206896551724" type="line" smooth="yes"/>
      <point x="62.71724137931034" y="-51.89310344827586"/>
      <point x="40.97931034482759" y="-82.9241379310345"/>
      <point x="-9.26206896551724" y="-82.9241379310345" type="curve" smooth="yes"/>
      <point x="-39.065517241379304" y="-82.9241379310345" type="line"/>
    </contour>
  </outline>
</glyph>
<glyph name="asciitilde" format="2">
  <advance width="465.2"/>
  <unicode hex="007E"/>
  <outline>
    <contour>
      <point x="47.23103448275862" y="267.96206896551723" type="curve"/>
      <point x="105.82068965517243" y="267.96206896551723" type="line"/>
      <point x="111.04482758620689" y="348.6965517241379"/>
      <point x="125.87931034482757" y="385.8689655172414"/>
      <point x="159.67586206896553" y="385.8689655172414" type="curve" smooth="yes"/>
      <point x="182.57241379310344" y="385.8689655172414"/>
      <point x="198.02758620689656" y="367.6"/>
      <point x="229.64137931034486" y="332.5275862068966" type="curve" smooth="yes"/>
      <point x="275.0758620689655" y="281.02758620689656"/>
      <point x="302.5379310344827" y="267.96206896551723"/>
      <point x="337.30689655172415" y="267.96206896551723" type="curve" smooth="yes"/>
      <point x="417.33103448275864" y="267.96206896551723"/>
      <point x="439.71379310344827" y="361.67931034482757"/>
      <point x="445.2103448275862" y="445.5448275862069" type="curve"/>
      <point x="386.1275862068966" y="445.5448275862069" type="line"/>
      <point x="380.49655172413793" y="365.73448275862074"/>
      <point x="367.3862068965517" y="327.8310344827586"/>
      <point x="334.9448275862069" y="327.8310344827586" type="curve" smooth="yes"/>
      <point x="312.7" y="327.8310344827586"/>
      <point x="295.97241379310344" y="347.6241379310345"/>
      <point x="266.00344827586207" y="379.2689655172414" type="curve" smooth="yes"/>
      <point x="224.49655172413796" y="421.851724137931"/>
      <point x="197.78275862068963" y="445.5448275862069"/>
      <point x="156.90344827586208" y="445.5448275862069" type="curve" smooth="yes"/>
      <point x="74.47931034482758" y="445.5448275862069"/>
      <point x="52.179310344827584" y="354.0275862068966"/>
    </contour>
  </outline>
</glyph>
<glyph name="twosuperior" format="2">
  <advance width="344.5793103448276"/>
  <unicode hex="00B2"/>
  <outline>
    <contour>
      <point x="59.65172413793103" y="386.0" type="line"/>
      <point x="327.5241379310345" y="386.0" type="line"/>
      <point x="354.8241379310345" y="508.11379310344824" type="line"/>
      <point x="323.8379310344827" y="508.11379310344824" type="line"/>
      <point x="316.53793103448277" y="487.11379310344824" type="line" smooth="yes"/>
      <point x="309.23793103448276" y="465.11379310344824"/>
      <point x="296.63793103448273" y="446.11379310344824"/>
      <point x="269.8379310344827" y="446.11379310344824" type="curve" smooth="yes"/>
      <point x="145.84137931034485" y="446.11379310344824" type="line"/>
      <point x="251.31379310344826" y="538.5275862068966" type="line" smooth="yes"/>
      <point x="352.6068965517241" y="627.6620689655173"/>
      <point x="383.4068965517242" y="673.9206896551725"/>
      <point x="383.4068965517242" y="732.7931034482758" type="curve" smooth="yes"/>
      <point x="383.4068965517242" y="787.7586206896551"/>
      <point x="340.44827586206895" y="824.0"/>
      <point x="271.32758620689657" y="824.0" type="curve" smooth="yes"/>
      <point x="188.88275862068966" y="824.0"/>
      <point x="138.13793103448276" y="778.1931034482759"/>
      <point x="138.13793103448276" y="730.2034482758621" type="curve" smooth="yes"/>
      <point x="138.13793103448276" y="702.351724137931"/>
      <point x="159.31724137931033" y="683.4758620689655"/>
      <point x="194.24827586206897" y="683.4758620689655" type="curve"/>
      <point x="200.97241379310344" y="735.7413793103448"/>
      <point x="224.97241379310344" y="782.8137931034483"/>
      <point x="262.16551724137935" y="782.8137931034483" type="curve" smooth="yes"/>
      <point x="292.1034482758621" y="782.8137931034483"/>
      <point x="303.6586206896552" y="757.3310344827586"/>
      <point x="303.6586206896552" y="726.9379310344827" type="curve" smooth="yes"/>
      <point x="303.6586206896552" y="669.3689655172413"/>
      <point x="276.8241379310345" y="620.9448275862069"/>
      <point x="199.46896551724137" y="548.403448275862" type="curve" smooth="yes"/>
      <point x="69.74137931034484" y="428.57586206896553" type="line"/>
    </contour>
  </outline>
</glyph>
<glyph name="threesuperior" format="2">
  <advance width="344.5793103448276"/>
  <unicode hex="00B3"/>
  <outline>
    <contour>
      <point x="193.16896551724136" y="380.0" type="curve" smooth="yes"/>
      <point x="291.0310344827586" y="380.0"/>
      <point x="364.0084137931035" y="429.4"/>
      <point x="364.01034482758627" y="518.3862068965517" type="curve" smooth="yes"/>
      <point x="364.01034482758627" y="570.0793103448276"/>
      <point x="331.51724137931035" y="603.5068965517241"/>
      <point x="280.12413793103445" y="610.5068965517241" type="curve"/>
      <point x="280.6172413793103" y="614.3" type="line"/>
      <point x="345.9172413793103" y="630.7"/>
      <point x="394.2586206896552" y="664.4"/>
      <point x="394.2586206896552" y="735.8" type="curve" smooth="yes"/>
      <point x="394.2586206896552" y="784.4"/>
      <point x="357.98275862068965" y="824.0"/>
      <point x="278.45517241379315" y="824.0" type="curve" smooth="yes"/>
      <point x="193.80344827586208" y="824.0"/>
      <point x="142.55172413793102" y="784.5172413793105"/>
      <point x="142.55172413793102" y="737.3241379310346" type="curve" smooth="yes"/>
      <point x="142.55172413793102" y="706.2172413793104"/>
      <point x="165.8137931034483" y="695.8137931034483"/>
      <point x="201.99655172413793" y="695.8137931034483" type="curve"/>
      <point x="210.75862068965517" y="741.6206896551724"/>
      <point x="228.24827586206897" y="781.9206896551724"/>
      <point x="272.0206896551724" y="781.9206896551724" type="curve" smooth="yes"/>
      <point x="297.6586206896552" y="781.9206896551724"/>
      <point x="312.12068965517244" y="763.403448275862"/>
      <point x="312.12068965517244" y="733.6379310344828" type="curve" smooth="yes"/>
      <point x="312.12068965517244" y="669.6172413793105"/>
      <point x="263.7" y="630.0"/>
      <point x="212.5758620689655" y="630.0" type="curve" smooth="yes"/>
      <point x="183.69310344827585" y="630.0" type="line"/>
      <point x="175.49999999999997" y="588.2379310344828" type="line"/>
      <point x="203.79310344827587" y="588.2379310344828" type="line" smooth="yes"/>
      <point x="259.4068965517241" y="588.2379310344828"/>
      <point x="283.2068965517241" y="557.6862068965518"/>
      <point x="283.2068965517241" y="515.4" type="curve" smooth="yes"/>
      <point x="283.2068965517241" y="451.8862068965517"/>
      <point x="245.75172413793103" y="426.5448275862069"/>
      <point x="200.52758620689656" y="426.5448275862069" type="curve" smooth="yes"/>
      <point x="148.15517241379308" y="426.5448275862069"/>
      <point x="129.43793103448277" y="473.3137931034483"/>
      <point x="130.83793103448278" y="512.5448275862069" type="curve"/>
      <point x="99.07241379310344" y="512.5448275862069"/>
      <point x="73.92758620689655" y="492.7034482758621"/>
      <point x="73.92758620689655" y="457.0172413793104" type="curve" smooth="yes"/>
      <point x="73.92758620689655" y="411.2896551724138"/>
      <point x="114.7551724137931" y="380.0"/>
    </contour>
  </outline>
</glyph>
<glyph name="multiply" format="2">
  <advance width="465.2"/>
  <unicode hex="00D7"/>
  <outline>
    <contour>
      <point x="110.27586206896551" y="152.8793103448276" type="line"/>
      <point x="247.13793103448276" y="312.7793103448276" type="line"/>
      <point x="383.3827586206897" y="153.2655172413793" type="line"/>
      <point x="427.9034482758621" y="192.18620689655174" type="line"/>
      <point x="286.25172413793103" y="358.19310344827585" type="line"/>
      <point x="427.9034482758621" y="523.5" type="line"/>
      <point x="383.10689655172416" y="562.7206896551725" type="line"/>
      <point x="247.13793103448276" y="404.196551724138" type="line"/>
      <point x="110.27586206896551" y="563.3137931034482" type="line"/>
      <point x="65.47931034482758" y="524.393103448276" type="line"/>
      <point x="207.94137931034484" y="358.49310344827586" type="line"/>
      <point x="65.47931034482758" y="191.59310344827585" type="line"/>
    </contour>
  </outline>
</glyph>
<glyph name="divide" format="2">
  <advance width="465.2"/>
  <unicode hex="00F7"/>
  <outline>
    <contour>
      <point x="61.45172413793104" y="327.23793103448276" type="line"/>
      <point x="429.3827586206897" y="327.23793103448276" type="line"/>
      <point x="429.3827586206897" y="387.76206896551724" type="line"/>
      <point x="61.45172413793104" y="387.76206896551724" type="line"/>
    </contour>
    <contour>
      <point x="246.4241379310345" y="112.23793103448276" type="curve" smooth="yes"/>
      <point x="271.7517241379311" y="112.23793103448276"/>
      <point x="293.20344827586206" y="126.7896551724138"/>
      <point x="293.20344827586206" y="168.0" type="curve" smooth="yes"/>
      <point x="293.20344827586206" y="210.21034482758623"/>
      <point x="271.7517241379311" y="223.76206896551727"/>
      <point x="246.4241379310345" y="223.76206896551727" type="curve" smooth="yes"/>
      <point x="218.8896551724138" y="223.76206896551727"/>
      <point x="199.13793103448276" y="210.21034482758623"/>
      <point x="199.13793103448276" y="168.0" type="curve" smooth="yes"/>
      <point x="199.13793103448276" y="126.7896551724138"/>
      <point x="218.8896551724138" y="112.23793103448276"/>
    </contour>
    <contour>
      <point x="246.4241379310345" y="491.23793103448276" type="curve" smooth="yes"/>
      <point x="271.7517241379311" y="491.23793103448276"/>
      <point x="293.20344827586206" y="505.78965517241375"/>
      <point x="293.20344827586206" y="547.0" type="curve" smooth="yes"/>
      <point x="293.20344827586206" y="589.2103448275861"/>
      <point x="271.7517241379311" y="602.7620689655172"/>
      <point x="246.4241379310345" y="602.7620689655172" type="curve" smooth="yes"/>
      <point x="218.8896551724138" y="602.7620689655172"/>
      <point x="199.13793103448276" y="589.2103448275861"/>
      <point x="199.13793103448276" y="547.0" type="curve" smooth="yes"/>
      <point x="199.13793103448276" y="505.78965517241375"/>
      <point x="218.8896551724138" y="491.23793103448276"/>
    </contour>
  </outline>
</glyph>
<glyph name="udatta-deva" format="2">
  <unicode hex="0951"/>
  <anchor x="59.55172413793103" y="556.8689655172413" name="_vedic"/>
  <outline>
    <contour>
      <point x="110.16206896551724" y="920.851724137931" type="line"/>
      <point x="164.36206896551727" y="920.851724137931" type="line"/>
      <point x="205.80344827586208" y="1117.8379310344826" type="line"/>
      <point x="151.71379310344827" y="1117.8379310344826" type="line"/>
    </contour>
  </outline>
</glyph>
<glyph name="anudatta-deva" format="2">
  <unicode hex="0952"/>
  <anchor x="-59.0" y="0.0" name="_bottom"/>
  <outline>
    <contour>
      <point x="-371.9068965517241" y="-538.2" type="line"/>
      <point x="25.624137931034486" y="-538.2" type="line"/>
      <point x="40.61724137931034" y="-466.12413793103445" type="line"/>
      <point x="-356.9137931034483" y="-466.12413793103445" type="line"/>
    </contour>
  </outline>
</glyph>
<glyph name="danda-deva" format="2">
  <advance width="267.7241379310344"/>
  <unicode hex="0964"/>
  <outline>
    <contour>
      <point x="22.21379310344828" y="0.0" type="line"/>
      <point x="127.4655172413793" y="0.0" type="line"/>
      <point x="246.01724137931035" y="556.8689655172413" type="line"/>
      <point x="140.25862068965515" y="556.8689655172413" type="line"/>
    </contour>
  </outline>
</glyph>
<glyph name="dbldanda-deva" format="2">
  <advance width="484.8344827586207"/>
  <unicode hex="0965"/>
  <outline>
    <contour>
      <point x="239.40689655172415" y="0.0" type="line"/>
      <point x="344.57586206896553" y="0.0" type="line"/>
      <point x="463.12758620689647" y="556.8689655172413" type="line"/>
      <point x="357.36896551724135" y="556.8689655172413" type="line"/>
    </contour>
    <contour>
      <point x="22.21379310344828" y="0.0" type="line"/>
      <point x="127.4655172413793" y="0.0" type="line"/>
      <point x="246.01724137931035" y="556.8689655172413" type="line"/>
      <point x="140.25862068965515" y="556.8689655172413" type="line"/>
    </contour>
  </outline>
</glyph>
<glyph name="anusvara-tamil" format="2">
  <unicode hex="0B82"/>
  <note>
uni0B82
</note>
  <anchor x="59.55172413793103" y="556.8689655172413" name="_top"/>
  <outline>
    <contour>
      <point x="98.9448275862069" y="630.9586206896552" type="curve" smooth="yes"/>
      <point x="164.81379310344826" y="630.9586206896552"/>
      <point x="214.30689655172415" y="676.751724137931"/>
      <point x="214.30689655172415" y="743.3758620689655" type="curve" smooth="yes"/>
      <point x="214.30689655172415" y="809.7103448275861"/>
      <point x="164.81379310344826" y="855.8172413793103"/>
      <point x="98.9448275862069" y="855.8172413793103" type="curve" smooth="yes"/>
      <point x="33.07586206896552" y="855.8172413793103"/>
      <point x="-16.417241379310347" y="809.7103448275861"/>
      <point x="-16.417241379310347" y="743.3758620689655" type="curve" smooth="yes"/>
      <point x="-16.417241379310347" y="676.751724137931"/>
      <point x="33.07586206896552" y="630.9586206896552"/>
    </contour>
    <contour>
      <point x="98.9448275862069" y="689.951724137931" type="curve" smooth="yes"/>
      <point x="68.80689655172414" y="689.951724137931"/>
      <point x="46.99999999999999" y="712.0724137931035"/>
      <point x="46.99999999999999" y="743.3758620689655" type="curve" smooth="yes"/>
      <point x="46.99999999999999" y="774.8137931034482"/>
      <point x="68.80689655172414" y="796.9344827586207"/>
      <point x="98.9448275862069" y="796.9344827586207" type="curve" smooth="yes"/>
      <point x="129.08275862068965" y="796.9344827586207"/>
      <point x="150.8896551724138" y="774.8137931034482"/>
      <point x="150.8896551724138" y="743.3758620689655" type="curve" smooth="yes"/>
      <point x="150.8896551724138" y="712.0724137931035"/>
      <point x="129.08275862068965" y="689.951724137931"/>
    </contour>
  </outline>
</glyph>
<glyph name="visarga-tamil" format="2">
  <advance width="744.5379310344828"/>
  <unicode hex="0B83"/>
  <note>
uni0B83
</note>
  <outline>
    <contour>
      <point x="139.04827586206898" y="-1.3793103448275865" type="curve" smooth="yes"/>
      <point x="241.48965517241376" y="-1.3793103448275865"/>
      <point x="318.4689655172414" y="102.49310344827586"/>
      <point x="318.9758620689655" y="227.12413793103448" type="curve" smooth="yes"/>
      <point x="319.4827586206897" y="321.16551724137935"/>
      <point x="270.02758620689656" y="370.1034482758621"/>
      <point x="197.11724137931034" y="370.1034482758621" type="curve" smooth="yes"/>
      <point x="90.09655172413794" y="370.1034482758621"/>
      <point x="24.69655172413793" y="244.6206896551724"/>
      <point x="24.69655172413793" y="137.57241379310344" type="curve" smooth="yes"/>
      <point x="24.69655172413793" y="56.61724137931034"/>
      <point x="66.71034482758621" y="-1.3793103448275865"/>
    </contour>
    <contour>
      <point x="134.9931034482759" y="54.48620689655173" type="curve" smooth="yes"/>
      <point x="92.7344827586207" y="54.48620689655173"/>
      <point x="75.61034482758622" y="91.19310344827588"/>
      <point x="75.61034482758622" y="143.1448275862069" type="curve" smooth="yes"/>
      <point x="75.61034482758622" y="216.62758620689658"/>
      <point x="115.61034482758622" y="315.03448275862075"/>
      <point x="180.83448275862068" y="315.03448275862075" type="curve" smooth="yes"/>
      <point x="220.43103448275863" y="315.03448275862075"/>
      <point x="241.36206896551724" y="287.42413793103447"/>
      <point x="241.36206896551724" y="232.11724137931031" type="curve" smooth="yes"/>
      <point x="241.36206896551724" y="145.06551724137933"/>
      <point x="200.10000000000002" y="54.48620689655173"/>
    </contour>
    <contour>
      <point x="498.74827586206897" y="-1.3793103448275865" type="curve" smooth="yes"/>
      <point x="601.1896551724138" y="-1.3793103448275865"/>
      <point x="678.1689655172413" y="102.49310344827586"/>
      <point x="678.6758620689656" y="227.12413793103448" type="curve" smooth="yes"/>
      <point x="679.1827586206896" y="321.16551724137935"/>
      <point x="629.7275862068965" y="370.1034482758621"/>
      <point x="556.8172413793103" y="370.1034482758621" type="curve" smooth="yes"/>
      <point x="449.7965517241379" y="370.1034482758621"/>
      <point x="384.3965517241379" y="244.6206896551724"/>
      <point x="384.3965517241379" y="137.57241379310344" type="curve" smooth="yes"/>
      <point x="384.3965517241379" y="56.61724137931034"/>
      <point x="426.41034482758624" y="-1.3793103448275865"/>
    </contour>
    <contour>
      <point x="494.6931034482759" y="54.48620689655173" type="curve" smooth="yes"/>
      <point x="452.4344827586207" y="54.48620689655173"/>
      <point x="435.3103448275862" y="91.19310344827588"/>
      <point x="435.3103448275862" y="143.1448275862069" type="curve" smooth="yes"/>
      <point x="435.3103448275862" y="216.62758620689658"/>
      <point x="475.3103448275862" y="315.03448275862075"/>
      <point x="540.5344827586207" y="315.03448275862075" type="curve" smooth="yes"/>
      <point x="580.1310344827585" y="315.03448275862075"/>
      <point x="601.0620689655173" y="287.42413793103447"/>
      <point x="601.0620689655173" y="232.11724137931031" type="curve" smooth="yes"/>
      <point x="601.0620689655173" y="145.06551724137933"/>
      <point x="559.8" y="54.48620689655173"/>
    </contour>
    <contour>
      <point x="406.7344827586207" y="416.2758620689655" type="curve" smooth="yes"/>
      <point x="509.17586206896556" y="416.2758620689655"/>
      <point x="586.1551724137931" y="520.148275862069"/>
      <point x="586.6620689655173" y="644.7793103448276" type="curve" smooth="yes"/>
      <point x="587.1689655172414" y="738.8206896551725"/>
      <point x="537.7137931034482" y="787.7586206896552"/>
      <point x="464.803448275862" y="787.7586206896552" type="curve" smooth="yes"/>
      <point x="357.78275862068966" y="787.7586206896552"/>
      <point x="292.38275862068963" y="662.2758620689656"/>
      <point x="292.38275862068963" y="555.2275862068966" type="curve" smooth="yes"/>
      <point x="292.38275862068963" y="474.27241379310345"/>
      <point x="334.3965517241379" y="416.2758620689655"/>
    </contour>
    <contour>
      <point x="402.67931034482757" y="472.1413793103448" type="curve" smooth="yes"/>
      <point x="360.42068965517245" y="472.1413793103448"/>
      <point x="343.2965517241379" y="508.84827586206893"/>
      <point x="343.2965517241379" y="560.8000000000001" type="curve" smooth="yes"/>
      <point x="343.2965517241379" y="634.2827586206897"/>
      <point x="383.2965517241379" y="732.6896551724138"/>
      <point x="448.5206896551724" y="732.6896551724138" type="curve" smooth="yes"/>
      <point x="488.1172413793103" y="732.6896551724138"/>
      <point x="509.048275862069" y="705.0793103448275"/>
      <point x="509.048275862069" y="649.7724137931034" type="curve" smooth="yes"/>
      <point x="509.048275862069" y="562.7206896551724"/>
      <point x="467.7862068965517" y="472.1413793103448"/>
    </contour>
  </outline>
</glyph>
<glyph name="a-tamil" format="2">
  <advance width="1085.8379310344828"/>
  <unicode hex="0B85"/>
  <note>
uni0B85
</note>
  <anchor x="467.9551724137931" y="0.0" name="bottom"/>
  <anchor x="289.3689655172414" y="-127.87586206896552" name="nukta"/>
  <anchor x="579.7172413793103" y="556.8689655172413" name="top"/>
  <anchor x="581.1172413793104" y="556.8689655172413" name="vedic"/>
  <outline>
    <contour>
      <point x="802.3068965517241" y="-194.56896551724137" type="line"/>
      <point x="907.3379310344828" y="-194.56896551724137" type="line"/>
      <point x="1067.0586206896553" y="556.8689655172413" type="line"/>
      <point x="962.2206896551724" y="556.8689655172413" type="line"/>
      <point x="879.5" y="169.15172413793104" type="line"/>
      <point x="78.96206896551725" y="169.15172413793104" type="line" smooth="yes"/>
      <point x="21.603448275862068" y="169.15172413793104"/>
      <point x="-8.672413793103448" y="131.28620689655173"/>
      <point x="-8.672413793103448" y="77.38275862068964" type="curve" smooth="yes"/>
      <point x="-8.672413793103448" y="-16.941379310344832"/>
      <point x="106.07931034482758" y="-127.87586206896552"/>
      <point x="295.8758620689655" y="-127.87586206896552" type="curve" smooth="yes"/>
      <point x="573.596551724138" y="-127.87586206896552"/>
      <point x="787.2137931034483" y="38.99655172413793"/>
      <point x="787.2137931034483" y="308.1448275862069" type="curve" smooth="yes"/>
      <point x="787.2137931034483" y="475.1551724137931"/>
      <point x="678.3689655172415" y="561.8689655172413"/>
      <point x="541.1" y="561.8689655172413" type="curve" smooth="yes"/>
      <point x="416.70000000000005" y="561.8689655172413"/>
      <point x="314.68965517241384" y="480.96206896551723"/>
      <point x="314.68965517241384" y="362.65862068965515" type="curve" smooth="yes"/>
      <point x="314.68965517241384" y="298.6896551724138"/>
      <point x="355.2413793103448" y="241.20689655172416"/>
      <point x="431.8862068965517" y="241.20689655172416" type="curve" smooth="yes"/>
      <point x="520.1793103448276" y="241.20689655172416"/>
      <point x="579.9896551724138" y="299.23793103448276"/>
      <point x="579.9896551724138" y="387.09999999999997" type="curve" smooth="yes"/>
      <point x="579.9896551724138" y="448.8620689655172"/>
      <point x="543.1172413793103" y="505.8241379310345"/>
      <point x="493.75862068965523" y="519.5586206896552" type="curve"/>
      <point x="445.5620689655172" y="518.0344827586207" type="line"/>
      <point x="478.96206896551723" y="499.8172413793103"/>
      <point x="499.7655172413793" y="453.3896551724138"/>
      <point x="499.7655172413793" y="405.41379310344826" type="curve" smooth="yes"/>
      <point x="499.7655172413793" y="347.0827586206897"/>
      <point x="470.648275862069" y="300.75172413793103"/>
      <point x="420.7896551724138" y="300.75172413793103" type="curve" smooth="yes"/>
      <point x="388.7896551724138" y="300.75172413793103"/>
      <point x="368.76206896551724" y="329.7344827586207"/>
      <point x="368.76206896551724" y="366.7620689655172" type="curve" smooth="yes"/>
      <point x="368.76206896551724" y="446.55172413793105"/>
      <point x="437.32758620689657" y="505.6620689655172"/>
      <point x="525.751724137931" y="505.6620689655172" type="curve" smooth="yes"/>
      <point x="618.4931034482759" y="505.6620689655172"/>
      <point x="683.6689655172415" y="438.9206896551724"/>
      <point x="683.6689655172415" y="313.6413793103448" type="curve" smooth="yes"/>
      <point x="683.6689655172415" y="93.05862068965516"/>
      <point x="525.6586206896551" y="-71.66896551724138"/>
      <point x="297.62413793103445" y="-71.66896551724138" type="curve" smooth="yes"/>
      <point x="141.28275862068963" y="-71.66896551724138"/>
      <point x="49.35862068965517" y="15.482758620689653"/>
      <point x="49.35862068965517" y="78.86206896551724" type="curve" smooth="yes"/>
      <point x="49.35862068965517" y="101.77241379310345"/>
      <point x="59.54137931034483" y="113.22068965517241"/>
      <point x="82.77586206896551" y="113.22068965517241" type="curve" smooth="yes"/>
      <point x="867.9482758620691" y="113.22068965517241" type="line"/>
    </contour>
  </outline>
</glyph>
<glyph name="aa-tamil" format="2">
  <advance width="1240.396551724138"/>
  <unicode hex="0B86"/>
  <note>
uni0B86
</note>
  <anchor x="545.1551724137931" y="0.0" name="bottom"/>
  <anchor x="284.951724137931" y="-127.87586206896552" name="nukta"/>
  <anchor x="670.9068965517241" y="556.8689655172413" name="top"/>
  <anchor x="671.4724137931036" y="556.8689655172413" name="vedic"/>
  <outline>
    <contour>
      <point x="698.4137931034483" y="-420.41379310344826" type="curve" smooth="yes"/>
      <point x="916.4310344827586" y="-420.41379310344826"/>
      <point x="1147.0103448275863" y="-267.2103448275862"/>
      <point x="1147.0103448275863" y="-61.3103448275862" type="curve" smooth="yes"/>
      <point x="1147.0103448275863" y="16.83448275862069"/>
      <point x="1107.0620689655173" y="55.56551724137931"/>
      <point x="1048.4172413793106" y="55.56551724137931" type="curve" smooth="yes"/>
      <point x="985.8379310344828" y="55.56551724137931"/>
      <point x="931.1517241379311" y="-0.5517241379310323"/>
      <point x="904.8965517241379" y="-93.13103448275862" type="curve"/>
      <point x="924.3517241379311" y="-101.91724137931035" type="line"/>
      <point x="935.2275862068965" y="-51.97241379310345"/>
      <point x="963.1931034482759" y="-29.272413793103446"/>
      <point x="993.4068965517242" y="-29.272413793103446" type="curve" smooth="yes"/>
      <point x="1022.996551724138" y="-29.272413793103446"/>
      <point x="1041.3724137931033" y="-48.31379310344828"/>
      <point x="1041.3724137931033" y="-84.14137931034483" type="curve" smooth="yes"/>
      <point x="1041.3724137931033" y="-239.76896551724138"/>
      <point x="863.403448275862" y="-364.6758620689655"/>
      <point x="700.2000000000002" y="-364.6758620689655" type="curve" smooth="yes"/>
      <point x="616.4517241379311" y="-364.6758620689655"/>
      <point x="569.1206896551724" y="-335.23793103448276"/>
      <point x="569.1206896551724" y="-280.0620689655172" type="curve" smooth="yes"/>
      <point x="569.1206896551724" y="-230.87241379310345"/>
      <point x="613.5344827586207" y="-201.95172413793102"/>
      <point x="678.0344827586207" y="-186.56206896551723" type="curve"/>
      <point x="666.7758620689655" y="-133.80344827586205" type="line"/>
      <point x="576.1931034482759" y="-156.86896551724138"/>
      <point x="511.2137931034482" y="-203.1"/>
      <point x="511.2137931034482" y="-287.7103448275862" type="curve" smooth="yes"/>
      <point x="511.2137931034482" y="-368.17241379310343"/>
      <point x="583.8620689655171" y="-420.41379310344826"/>
    </contour>
    <component base="a-tamil"/>
  </outline>
</glyph>
<glyph name="i-tamil" format="2">
  <advance width="846.3896551724138"/>
  <unicode hex="0B87"/>
  <note>
uni0B87
</note>
  <anchor x="344.84137931034485" y="0.0" name="bottom"/>
  <anchor x="286.8724137931035" y="-270.58620689655174" name="nukta"/>
  <anchor x="497.36896551724135" y="825.1034482758621" name="top"/>
  <anchor x="446.35517241379307" y="556.8689655172413" name="vedic"/>
  <outline>
    <contour>
      <point x="95.05862068965516" y="-302.59999999999997" type="curve" smooth="yes"/>
      <point x="374.0896551724138" y="-302.59999999999997"/>
      <point x="652.1931034482758" y="35.096551724137925"/>
      <point x="652.1931034482758" y="333.3586206896552" type="curve" smooth="yes"/>
      <point x="652.1931034482758" y="485.1103448275862"/>
      <point x="566.0448275862069" y="561.8689655172413"/>
      <point x="442.3620689655172" y="561.8689655172413" type="curve" smooth="yes"/>
      <point x="325.38620689655176" y="561.8689655172413"/>
      <point x="229.63448275862066" y="469.73448275862074"/>
      <point x="229.63448275862066" y="356.83448275862065" type="curve" smooth="yes"/>
      <point x="229.63448275862066" y="291.6862068965517"/>
      <point x="273.2931034482759" y="242.75862068965517"/>
      <point x="342.6793103448276" y="242.75862068965517" type="curve" smooth="yes"/>
      <point x="422.9310344827586" y="242.75862068965517"/>
      <point x="485.1241379310345" y="300.2931034482759"/>
      <point x="485.1241379310345" y="386.6379310344828" type="curve" smooth="yes"/>
      <point x="485.1241379310345" y="449.203448275862"/>
      <point x="453.82413793103456" y="500.75172413793103"/>
      <point x="401.7034482758621" y="520.1448275862068" type="curve"/>
      <point x="354.2586206896552" y="514.7241379310345" type="line"/>
      <point x="386.048275862069" y="495.2758620689655"/>
      <point x="406.3620689655172" y="454.3586206896552"/>
      <point x="406.3620689655172" y="405.67931034482757" type="curve" smooth="yes"/>
      <point x="406.3620689655172" y="351.5551724137931"/>
      <point x="380.2448275862069" y="301.1241379310345"/>
      <point x="330.6137931034483" y="301.1241379310345" type="curve" smooth="yes"/>
      <point x="301.96551724137936" y="301.1241379310345"/>
      <point x="283.3724137931035" y="324.78620689655173"/>
      <point x="283.3724137931035" y="361.76206896551724" type="curve" smooth="yes"/>
      <point x="283.3724137931035" y="436.3655172413793"/>
      <point x="341.3689655172414" y="505.7448275862069"/>
      <point x="426.1241379310345" y="505.7448275862069" type="curve" smooth="yes"/>
      <point x="507.6551724137931" y="505.7448275862069"/>
      <point x="553.6068965517242" y="448.36551724137934"/>
      <point x="553.6068965517242" y="345.6448275862069" type="curve" smooth="yes"/>
      <point x="553.6068965517242" y="76.92758620689655"/>
      <point x="340.2551724137931" y="-246.20000000000002"/>
      <point x="103.88275862068967" y="-246.20000000000002" type="curve" smooth="yes"/>
      <point x="43.841379310344834" y="-246.20000000000002"/>
      <point x="10.086206896551722" y="-214.6758620689655"/>
      <point x="10.086206896551722" y="-160.28620689655173" type="curve" smooth="yes"/>
      <point x="10.086206896551722" y="-32.45172413793104"/>
      <point x="168.76206896551724" y="54.54482758620689"/>
      <point x="334.0103448275862" y="54.54482758620689" type="curve" smooth="yes"/>
      <point x="476.77586206896547" y="54.54482758620689"/>
      <point x="619.1551724137931" y="-18.110344827586207"/>
      <point x="619.1551724137931" y="-129.21379310344827" type="curve" smooth="yes"/>
      <point x="619.1551724137931" y="-209.40689655172415"/>
      <point x="568.4103448275862" y="-246.20000000000002"/>
      <point x="487.15862068965515" y="-246.20000000000002" type="curve" smooth="yes"/>
      <point x="300.0862068965517" y="-246.20000000000002"/>
      <point x="127.59655172413794" y="3.572413793103449"/>
      <point x="127.59655172413794" y="280.8413793103448" type="curve" smooth="yes"/>
      <point x="127.59655172413794" y="535.5862068965516"/>
      <point x="241.69655172413792" y="727.9413793103448"/>
      <point x="484.0586206896552" y="727.9413793103448" type="curve" smooth="yes"/>
      <point x="682.3379310344828" y="727.9413793103448"/>
      <point x="801.8413793103449" y="596.4655172413793"/>
      <point x="749.9931034482759" y="355.2586206896552" type="curve" smooth="yes"/>
      <point x="693.1793103448276" y="89.22758620689656" type="line"/>
      <point x="750.8103448275862" y="89.22758620689656" type="line"/>
      <point x="808.6827586206897" y="359.9" type="line" smooth="yes"/>
      <point x="870.8758620689655" y="649.5241379310345"/>
      <point x="742.5793103448276" y="825.1034482758621"/>
      <point x="497.36896551724135" y="825.1034482758621" type="curve" smooth="yes"/>
      <point x="218.13103448275862" y="825.1034482758621"/>
      <point x="67.62413793103448" y="588.8448275862069"/>
      <point x="67.62413793103448" y="286.34827586206893" type="curve" smooth="yes"/>
      <point x="67.62413793103448" y="-25.568965517241377"/>
      <point x="259.5862068965517" y="-302.51724137931035"/>
      <point x="498.4413793103448" y="-302.51724137931035" type="curve" smooth="yes"/>
      <point x="603.2931034482759" y="-302.51724137931035"/>
      <point x="682.4241379310345" y="-245.75862068965517"/>
      <point x="682.4241379310345" y="-131.10344827586206" type="curve" smooth="yes"/>
      <point x="682.4241379310345" y="20.13448275862069"/>
      <point x="518.2310344827586" y="109.17241379310344"/>
      <point x="337.4206896551724" y="109.17241379310344" type="curve" smooth="yes"/>
      <point x="132.5448275862069" y="109.17241379310344"/>
      <point x="-54.179310344827584" y="-4.172413793103447"/>
      <point x="-54.179310344827584" y="-169.08275862068965" type="curve" smooth="yes"/>
      <point x="-54.179310344827584" y="-249.33103448275864"/>
      <point x="2.517241379310345" y="-302.59999999999997"/>
    </contour>
  </outline>
</glyph>
<glyph name="ii-tamil" format="2">
  <advance width="666.6"/>
  <unicode hex="0B88"/>
  <note>
uni0B88
</note>
  <anchor x="287.2655172413793" y="0.0" name="bottom"/>
  <anchor x="287.77241379310345" y="0.0" name="nukta"/>
  <anchor x="407.42068965517245" y="556.8689655172413" name="top"/>
  <anchor x="408.01034482758627" y="556.8689655172413" name="vedic"/>
  <outline>
    <contour>
      <point x="19.368965517241378" y="0.0" type="line"/>
      <point x="77.84482758620689" y="0.0" type="line"/>
      <point x="184.1206896551724" y="501.13103448275865" type="line"/>
      <point x="400.7206896551724" y="501.13103448275865" type="line"/>
      <point x="294.22758620689655" y="0.0" type="line"/>
      <point x="399.5344827586207" y="0.0" type="line"/>
      <point x="505.8103448275863" y="501.13103448275865" type="line"/>
      <point x="670.1379310344827" y="501.13103448275865" type="line"/>
      <point x="682.3310344827586" y="556.8689655172413" type="line"/>
      <point x="137.41379310344828" y="556.8689655172413" type="line"/>
    </contour>
    <contour>
      <point x="240.94482758620686" y="209.98275862068965" type="curve" smooth="yes"/>
      <point x="272.5344827586207" y="209.98275862068965"/>
      <point x="298.0448275862069" y="235.5413793103448"/>
      <point x="298.0448275862069" y="265.3241379310345" type="curve" smooth="yes"/>
      <point x="298.0448275862069" y="294.83103448275864"/>
      <point x="272.5344827586207" y="320.4862068965517"/>
      <point x="240.94482758620686" y="320.4862068965517" type="curve" smooth="yes"/>
      <point x="209.3551724137931" y="320.4862068965517"/>
      <point x="184.03793103448277" y="294.83103448275864"/>
      <point x="184.03793103448277" y="265.3241379310345" type="curve" smooth="yes"/>
      <point x="184.03793103448277" y="235.5413793103448"/>
      <point x="209.3551724137931" y="209.98275862068965"/>
    </contour>
    <contour>
      <point x="562.8413793103449" y="209.98275862068965" type="curve" smooth="yes"/>
      <point x="594.4310344827586" y="209.98275862068965"/>
      <point x="619.9413793103447" y="235.5413793103448"/>
      <point x="619.9413793103447" y="265.3241379310345" type="curve" smooth="yes"/>
      <point x="619.9413793103447" y="294.83103448275864"/>
      <point x="594.4310344827586" y="320.4862068965517"/>
      <point x="562.8413793103449" y="320.4862068965517" type="curve" smooth="yes"/>
      <point x="531.2517241379311" y="320.4862068965517"/>
      <point x="505.9344827586207" y="294.83103448275864"/>
      <point x="505.9344827586207" y="265.3241379310345" type="curve" smooth="yes"/>
      <point x="505.9344827586207" y="235.5413793103448"/>
      <point x="531.2517241379311" y="209.98275862068965"/>
    </contour>
  </outline>
</glyph>
<glyph name="u-tamil" format="2">
  <advance width="816.1034482758621"/>
  <unicode hex="0B89"/>
  <note>
uni0B89
</note>
  <anchor x="370.7965517241379" y="0.0" name="bottom"/>
  <anchor x="371.3034482758621" y="0.0" name="nukta"/>
  <anchor x="492.8310344827586" y="556.8689655172413" name="top"/>
  <anchor x="492.26551724137926" y="556.8689655172413" name="vedic"/>
  <outline>
    <contour>
      <point x="81.92068965517241" y="0.0" type="curve" smooth="yes"/>
      <point x="734.9482758620691" y="0.0" type="line"/>
      <point x="746.7172413793104" y="55.93103448275862" type="line"/>
      <point x="88.38275862068966" y="55.93103448275862" type="line" smooth="yes"/>
      <point x="68.19655172413793" y="55.93103448275862"/>
      <point x="51.83793103448276" y="69.8896551724138"/>
      <point x="51.83793103448276" y="91.85517241379311" type="curve" smooth="yes"/>
      <point x="51.83793103448276" y="120.60344827586205"/>
      <point x="74.1" y="134.11724137931034"/>
      <point x="95.23793103448276" y="134.11724137931034" type="curve" smooth="yes"/>
      <point x="289.29655172413794" y="134.11724137931034" type="line" smooth="yes"/>
      <point x="445.59999999999997" y="134.11724137931034"/>
      <point x="568.4068965517242" y="216.3551724137931"/>
      <point x="568.4068965517242" y="369.35517241379307" type="curve" smooth="yes"/>
      <point x="568.4068965517242" y="498.8551724137931"/>
      <point x="468.75172413793103" y="561.8689655172413"/>
      <point x="352.351724137931" y="561.8689655172413" type="curve" smooth="yes"/>
      <point x="227.6551724137931" y="561.8689655172413"/>
      <point x="126.76206896551724" y="472.41034482758624"/>
      <point x="126.76206896551724" y="362.5103448275862" type="curve" smooth="yes"/>
      <point x="126.76206896551724" y="299.85862068965514"/>
      <point x="165.25862068965517" y="245.5103448275862"/>
      <point x="238.12413793103445" y="245.5103448275862" type="curve" smooth="yes"/>
      <point x="323.3758620689656" y="245.5103448275862"/>
      <point x="384.50344827586207" y="304.35862068965514"/>
      <point x="384.50344827586207" y="392.63448275862066" type="curve" smooth="yes"/>
      <point x="384.50344827586207" y="451.2310344827587"/>
      <point x="350.7931034482759" y="503.4206896551724"/>
      <point x="303.55172413793105" y="520.5724137931035" type="curve"/>
      <point x="255.64137931034483" y="517.2137931034482" type="line"/>
      <point x="287.6" y="493.3689655172414"/>
      <point x="305.17241379310343" y="448.16551724137935"/>
      <point x="305.17241379310343" y="404.5103448275862" type="curve" smooth="yes"/>
      <point x="305.17241379310343" y="348.751724137931"/>
      <point x="279.7931034482759" y="303.4551724137931"/>
      <point x="230.06551724137933" y="303.4551724137931" type="curve" smooth="yes"/>
      <point x="196.45862068965516" y="303.4551724137931"/>
      <point x="181.34137931034482" y="332.5448275862069"/>
      <point x="181.34137931034482" y="366.71034482758625" type="curve" smooth="yes"/>
      <point x="181.34137931034482" y="440.2310344827586"/>
      <point x="243.6655172413793" y="506.048275862069"/>
      <point x="336.1620689655173" y="506.048275862069" type="curve" smooth="yes"/>
      <point x="411.7172413793104" y="506.048275862069"/>
      <point x="466.28275862068966" y="464.5586206896552"/>
      <point x="466.28275862068966" y="372.8413793103448" type="curve" smooth="yes"/>
      <point x="466.28275862068966" y="261.43793103448274"/>
      <point x="393.9413793103448" y="188.57931034482758"/>
      <point x="285.76206896551724" y="188.57931034482758" type="curve" smooth="yes"/>
      <point x="102.21379310344828" y="188.57931034482758" type="line" smooth="yes"/>
      <point x="38.293103448275865" y="188.57931034482758"/>
      <point x="-4.593103448275861" y="146.28620689655173"/>
      <point x="-4.593103448275861" y="85.8896551724138" type="curve" smooth="yes"/>
      <point x="-4.593103448275861" y="39.23103448275862"/>
      <point x="27.10344827586207" y="0.0"/>
    </contour>
  </outline>
</glyph>
<glyph name="uu-tamil" format="2">
  <advance width="1419.2275862068966"/>
  <unicode hex="0B8A"/>
  <note>
uni0B8A
</note>
  <anchor x="671.4655172413793" y="0.0" name="bottom"/>
  <anchor x="671.6827586206897" y="0.0" name="nukta"/>
  <anchor x="792.5724137931035" y="556.8689655172413" name="top"/>
  <anchor x="792.9344827586207" y="556.8689655172413" name="vedic"/>
  <outline>
    <contour>
      <point x="81.92068965517241" y="0.0" type="curve" smooth="yes"/>
      <point x="1331.4586206896552" y="0.0" type="line"/>
      <point x="1343.2275862068964" y="55.93103448275862" type="line"/>
      <point x="88.38275862068966" y="55.93103448275862" type="line" smooth="yes"/>
      <point x="68.19655172413793" y="55.93103448275862"/>
      <point x="51.83793103448276" y="69.8896551724138"/>
      <point x="51.83793103448276" y="91.85517241379311" type="curve" smooth="yes"/>
      <point x="51.83793103448276" y="120.60344827586205"/>
      <point x="74.1" y="134.11724137931034"/>
      <point x="95.23793103448276" y="134.11724137931034" type="curve" smooth="yes"/>
      <point x="289.29655172413794" y="134.11724137931034" type="line" smooth="yes"/>
      <point x="445.59999999999997" y="134.11724137931034"/>
      <point x="568.4068965517242" y="216.3551724137931"/>
      <point x="568.4068965517242" y="369.35517241379307" type="curve" smooth="yes"/>
      <point x="568.4068965517242" y="498.8551724137931"/>
      <point x="468.75172413793103" y="561.8689655172413"/>
      <point x="352.351724137931" y="561.8689655172413" type="curve" smooth="yes"/>
      <point x="227.6551724137931" y="561.8689655172413"/>
      <point x="126.76206896551724" y="472.41034482758624"/>
      <point x="126.76206896551724" y="362.5103448275862" type="curve" smooth="yes"/>
      <point x="126.76206896551724" y="299.85862068965514"/>
      <point x="165.25862068965517" y="245.5103448275862"/>
      <point x="238.12413793103445" y="245.5103448275862" type="curve" smooth="yes"/>
      <point x="323.3758620689656" y="245.5103448275862"/>
      <point x="384.50344827586207" y="304.35862068965514"/>
      <point x="384.50344827586207" y="392.63448275862066" type="curve" smooth="yes"/>
      <point x="384.50344827586207" y="451.2310344827587"/>
      <point x="350.7931034482759" y="503.4206896551724"/>
      <point x="303.55172413793105" y="520.5724137931035" type="curve"/>
      <point x="255.64137931034483" y="517.2137931034482" type="line"/>
      <point x="287.6" y="493.3689655172414"/>
      <point x="305.17241379310343" y="448.16551724137935"/>
      <point x="305.17241379310343" y="404.5103448275862" type="curve" smooth="yes"/>
      <point x="305.17241379310343" y="348.751724137931"/>
      <point x="279.7931034482759" y="303.4551724137931"/>
      <point x="230.06551724137933" y="303.4551724137931" type="curve" smooth="yes"/>
      <point x="196.45862068965516" y="303.4551724137931"/>
      <point x="181.34137931034482" y="332.5448275862069"/>
      <point x="181.34137931034482" y="366.71034482758625" type="curve" smooth="yes"/>
      <point x="181.34137931034482" y="440.2310344827586"/>
      <point x="243.6655172413793" y="506.048275862069"/>
      <point x="336.1620689655173" y="506.048275862069" type="curve" smooth="yes"/>
      <point x="411.7172413793104" y="506.048275862069"/>
      <point x="466.28275862068966" y="464.5586206896552"/>
      <point x="466.28275862068966" y="372.8413793103448" type="curve" smooth="yes"/>
      <point x="466.28275862068966" y="261.43793103448274"/>
      <point x="393.9413793103448" y="188.57931034482758"/>
      <point x="285.76206896551724" y="188.57931034482758" type="curve" smooth="yes"/>
      <point x="102.21379310344828" y="188.57931034482758" type="line" smooth="yes"/>
      <point x="38.293103448275865" y="188.57931034482758"/>
      <point x="-4.593103448275861" y="146.28620689655173"/>
      <point x="-4.593103448275861" y="85.8896551724138" type="curve" smooth="yes"/>
      <point x="-4.593103448275861" y="39.23103448275862"/>
      <point x="27.10344827586207" y="0.0"/>
    </contour>
    <contour>
      <point x="751.3275862068965" y="106.66896551724138" type="curve" smooth="yes"/>
      <point x="841.8068965517241" y="106.66896551724138"/>
      <point x="911.0103448275862" y="176.68275862068967"/>
      <point x="911.0103448275862" y="275.851724137931" type="curve" smooth="yes"/>
      <point x="911.0103448275862" y="351.37931034482756"/>
      <point x="862.810344827586" y="391.6275862068966"/>
      <point x="802.2310344827586" y="391.6275862068966" type="curve" smooth="yes"/>
      <point x="732.9" y="391.6275862068966"/>
      <point x="676.1448275862069" y="329.6379310344828"/>
      <point x="651.2379310344829" y="247.22413793103448" type="curve"/>
      <point x="665.1448275862069" y="213.81034482758622" type="line"/>
      <point x="681.8551724137931" y="278.9551724137931"/>
      <point x="724.4413793103449" y="328.0206896551724"/>
      <point x="768.3758620689655" y="328.0206896551724" type="curve" smooth="yes"/>
      <point x="804.2896551724139" y="328.0206896551724"/>
      <point x="824.2551724137932" y="302.36551724137934"/>
      <point x="824.2551724137932" y="260.53448275862064" type="curve" smooth="yes"/>
      <point x="824.2551724137932" y="207.69655172413792"/>
      <point x="793.2275862068966" y="162.23448275862071"/>
      <point x="742.0379310344827" y="162.23448275862071" type="curve" smooth="yes"/>
      <point x="698.0137931034483" y="162.23448275862071"/>
      <point x="672.7827586206896" y="204.0103448275862"/>
      <point x="672.7827586206896" y="269.8551724137931" type="curve" smooth="yes"/>
      <point x="672.7827586206896" y="395.848275862069"/>
      <point x="745.9413793103448" y="506.13103448275865"/>
      <point x="864.0034482758622" y="506.13103448275865" type="curve" smooth="yes"/>
      <point x="964.4724137931036" y="506.13103448275865"/>
      <point x="1015.2999999999998" y="427.01034482758627"/>
      <point x="991.996551724138" y="311.04137931034484" type="curve"/>
      <point x="1039.8793103448277" y="311.04137931034484" type="line"/>
      <point x="1068.8137931034485" y="457.5793103448276"/>
      <point x="1001.3310344827586" y="561.8689655172413"/>
      <point x="867.4172413793102" y="561.8689655172413" type="curve" smooth="yes"/>
      <point x="722.103448275862" y="561.8689655172413"/>
      <point x="617.4172413793103" y="427.4931034482759"/>
      <point x="617.4172413793103" y="267.6448275862069" type="curve" smooth="yes"/>
      <point x="617.4172413793103" y="179.55172413793105"/>
      <point x="663.9172413793104" y="106.66896551724138"/>
    </contour>
    <contour>
      <point x="948.8620689655173" y="110.22758620689656" type="line"/>
      <point x="1046.8655172413794" y="110.22758620689656" type="line"/>
      <point x="1129.9172413793106" y="503.35172413793106" type="line"/>
      <point x="1258.5827586206897" y="503.35172413793106" type="line"/>
      <point x="1175.106896551724" y="110.22758620689656" type="line"/>
      <point x="1272.3" y="110.22758620689656" type="line"/>
      <point x="1355.9689655172415" y="503.35172413793106" type="line"/>
      <point x="1437.7586206896551" y="503.35172413793106" type="line"/>
      <point x="1449.1172413793104" y="556.8689655172413" type="line"/>
      <point x="1058.713793103448" y="556.8689655172413" type="line"/>
      <point x="1021.8793103448277" y="380.2413793103448" type="line"/>
      <point x="1005.5586206896551" y="376.7655172413793" type="line"/>
    </contour>
  </outline>
</glyph>
<glyph name="e-tamil" format="2">
  <advance width="772.8413793103449"/>
  <unicode hex="0B8E"/>
  <note>
uni0B8E
</note>
  <anchor x="345.9310344827586" y="0.0" name="bottom"/>
  <anchor x="346.73793103448276" y="0.0" name="nukta"/>
  <anchor x="466.8827586206897" y="556.8689655172413" name="top"/>
  <anchor x="467.40000000000003" y="556.8689655172413" name="vedic"/>
  <outline>
    <contour>
      <point x="195.39655172413794" y="-5.0" type="curve" smooth="yes"/>
      <point x="287.03793103448277" y="-5.0"/>
      <point x="368.0137931034483" y="64.46551724137932"/>
      <point x="368.0137931034483" y="175.4344827586207" type="curve" smooth="yes"/>
      <point x="368.0137931034483" y="256.7586206896552"/>
      <point x="316.07586206896553" y="308.51724137931035"/>
      <point x="243.8793103448276" y="308.51724137931035" type="curve" smooth="yes"/>
      <point x="159.62413793103448" y="308.51724137931035"/>
      <point x="97.79310344827587" y="238.51724137931035"/>
      <point x="66.78965517241379" y="137.25862068965517" type="curve"/>
      <point x="92.84137931034482" y="110.22068965517242" type="line"/>
      <point x="115.70344827586207" y="190.74137931034485"/>
      <point x="154.64137931034483" y="236.46896551724137"/>
      <point x="205.1310344827586" y="236.46896551724137" type="curve" smooth="yes"/>
      <point x="244.93793103448277" y="236.46896551724137"/>
      <point x="268.13793103448273" y="205.55862068965516"/>
      <point x="268.13793103448273" y="158.25172413793103" type="curve" smooth="yes"/>
      <point x="268.13793103448273" y="100.1448275862069"/>
      <point x="236.34827586206896" y="52.69655172413793"/>
      <point x="181.1034482758621" y="52.69655172413793" type="curve" smooth="yes"/>
      <point x="124.09310344827587" y="52.69655172413793"/>
      <point x="89.5551724137931" y="111.4655172413793"/>
      <point x="89.5551724137931" y="204.67241379310343" type="curve" smooth="yes"/>
      <point x="89.5551724137931" y="356.71724137931034"/>
      <point x="186.31034482758622" y="501.13103448275865"/>
      <point x="369.3793103448276" y="501.13103448275865" type="curve" smooth="yes"/>
      <point x="567.5275862068966" y="501.13103448275865" type="line"/>
      <point x="461.251724137931" y="0.0" type="line"/>
      <point x="566.3655172413794" y="0.0" type="line"/>
      <point x="672.5586206896552" y="501.13103448275865" type="line"/>
      <point x="800.1724137931034" y="501.13103448275865" type="line"/>
      <point x="811.7241379310344" y="556.8689655172413" type="line"/>
      <point x="372.70344827586206" y="556.8689655172413" type="line" smooth="yes"/>
      <point x="159.4379310344828" y="556.8689655172413"/>
      <point x="33.806896551724144" y="385.00344827586207"/>
      <point x="33.806896551724144" y="201.58965517241379" type="curve" smooth="yes"/>
      <point x="33.806896551724144" y="76.11034482758622"/>
      <point x="95.0206896551724" y="-5.0"/>
    </contour>
  </outline>
</glyph>
<glyph name="ee-tamil" format="2">
  <advance width="772.8172413793103"/>
  <unicode hex="0B8F"/>
  <note>
uni0B8F
</note>
  <anchor x="348.5137931034483" y="0.0" name="bottom"/>
  <anchor x="311.7103448275862" y="-178.33793103448278" name="nukta"/>
  <anchor x="470.4896551724138" y="556.8689655172413" name="top"/>
  <anchor x="469.98275862068965" y="556.8689655172413" name="vedic"/>
  <outline>
    <contour>
      <point x="305.6" y="-221.20000000000002" type="line"/>
      <point x="571.844827586207" y="26.389655172413793" type="line"/>
      <point x="672.8344827586207" y="501.13103448275865" type="line"/>
      <point x="800.148275862069" y="501.13103448275865" type="line"/>
      <point x="811.9172413793103" y="556.8689655172413" type="line"/>
      <point x="372.70344827586206" y="556.8689655172413" type="line" smooth="yes"/>
      <point x="159.4379310344828" y="556.8689655172413"/>
      <point x="33.806896551724144" y="385.00344827586207"/>
      <point x="33.806896551724144" y="201.58965517241379" type="curve" smooth="yes"/>
      <point x="33.806896551724144" y="76.11034482758622"/>
      <point x="95.0206896551724" y="-5.0"/>
      <point x="195.39655172413794" y="-5.0" type="curve" smooth="yes"/>
      <point x="287.03793103448277" y="-5.0"/>
      <point x="368.0137931034483" y="64.46551724137932"/>
      <point x="368.0137931034483" y="175.4344827586207" type="curve" smooth="yes"/>
      <point x="368.0137931034483" y="256.7586206896552"/>
      <point x="316.07586206896553" y="308.51724137931035"/>
      <point x="243.8793103448276" y="308.51724137931035" type="curve" smooth="yes"/>
      <point x="159.62413793103448" y="308.51724137931035"/>
      <point x="97.79310344827587" y="238.51724137931035"/>
      <point x="66.78965517241379" y="137.25862068965517" type="curve"/>
      <point x="92.84137931034482" y="110.22068965517242" type="line"/>
      <point x="115.70344827586207" y="190.74137931034485"/>
      <point x="154.64137931034483" y="236.46896551724137"/>
      <point x="205.1310344827586" y="236.46896551724137" type="curve" smooth="yes"/>
      <point x="244.93793103448277" y="236.46896551724137"/>
      <point x="268.13793103448273" y="205.55862068965516"/>
      <point x="268.13793103448273" y="158.25172413793103" type="curve" smooth="yes"/>
      <point x="268.13793103448273" y="100.1448275862069"/>
      <point x="236.34827586206896" y="52.69655172413793"/>
      <point x="181.1034482758621" y="52.69655172413793" type="curve" smooth="yes"/>
      <point x="124.09310344827587" y="52.69655172413793"/>
      <point x="89.5551724137931" y="111.4655172413793"/>
      <point x="89.5551724137931" y="204.67241379310343" type="curve" smooth="yes"/>
      <point x="89.5551724137931" y="356.71724137931034"/>
      <point x="186.31034482758622" y="501.13103448275865"/>
      <point x="369.3793103448276" y="501.13103448275865" type="curve" smooth="yes"/>
      <point x="567.7206896551725" y="501.13103448275865" type="line"/>
      <point x="461.7241379310345" y="-1.0551724137931033" type="line"/>
      <point x="268.96206896551723" y="-180.63103448275862" type="line"/>
    </contour>
  </outline>
</glyph>
<glyph name="ai-tamil" format="2">
  <advance width="827.1862068965518"/>
  <unicode hex="0B90"/>
  <note>
uni0B90
</note>
  <anchor x="352.5931034482759" y="0.0" name="bottom"/>
  <anchor x="283.9551724137931" y="-301.7931034482759" name="nukta"/>
  <anchor x="482.451724137931" y="556.8689655172413" name="top"/>
  <anchor x="478.88965517241377" y="556.8689655172413" name="vedic"/>
  <outline>
    <contour>
      <point x="133.02068965517242" y="-301.7931034482759" type="curve" smooth="yes"/>
      <point x="224.68275862068964" y="-301.7931034482759"/>
      <point x="295.848275862069" y="-255.3862068965517"/>
      <point x="331.57586206896553" y="-178.42068965517242" type="curve"/>
      <point x="336.5931034482759" y="-246.27586206896552"/>
      <point x="388.6655172413793" y="-301.7931034482759"/>
      <point x="484.7068965517242" y="-301.7931034482759" type="curve" smooth="yes"/>
      <point x="616.2724137931035" y="-301.7931034482759"/>
      <point x="704.5965517241381" y="-208.6"/>
      <point x="704.5965517241381" y="-66.97241379310346" type="curve" smooth="yes"/>
      <point x="704.5965517241381" y="-15.400000000000002"/>
      <point x="691.8827586206897" y="30.9"/>
      <point x="676.1206896551726" y="68.68965517241381" type="curve"/>
      <point x="623.0413793103448" y="45.57586206896552" type="line"/>
      <point x="637.1344827586207" y="11.765517241379309"/>
      <point x="647.7758620689655" y="-28.27241379310345"/>
      <point x="647.7758620689655" y="-64.67586206896551" type="curve" smooth="yes"/>
      <point x="647.7758620689655" y="-171.10344827586206"/>
      <point x="584.8931034482758" y="-239.6344827586207"/>
      <point x="488.7655172413793" y="-239.6344827586207" type="curve" smooth="yes"/>
      <point x="409.3551724137931" y="-239.6344827586207"/>
      <point x="383.44137931034487" y="-182.00344827586207"/>
      <point x="403.1137931034483" y="-86.62758620689655" type="curve" smooth="yes"/>
      <point x="413.1655172413794" y="-38.351724137931036" type="line"/>
      <point x="313.1137931034483" y="-38.351724137931036" type="line"/>
      <point x="303.2413793103449" y="-83.86896551724138" type="line" smooth="yes"/>
      <point x="281.27241379310345" y="-184.9241379310345"/>
      <point x="230.89310344827584" y="-244.36551724137934"/>
      <point x="153.80344827586208" y="-244.36551724137934" type="curve" smooth="yes"/>
      <point x="97.27931034482758" y="-244.36551724137934"/>
      <point x="64.5448275862069" y="-204.29655172413794"/>
      <point x="64.5448275862069" y="-138.67241379310346" type="curve" smooth="yes"/>
      <point x="64.5448275862069" y="34.54482758620689"/>
      <point x="200.05172413793105" y="59.755172413793105"/>
      <point x="397.3586206896552" y="82.52413793103449" type="curve" smooth="yes"/>
      <point x="625.4344827586207" y="109.49655172413793"/>
      <point x="794.244827586207" y="186.49310344827586"/>
      <point x="794.244827586207" y="393.17241379310343" type="curve" smooth="yes"/>
      <point x="794.244827586207" y="505.3551724137931"/>
      <point x="721.4413793103448" y="561.951724137931"/>
      <point x="631.9413793103448" y="561.951724137931" type="curve" smooth="yes"/>
      <point x="556.7655172413794" y="561.951724137931"/>
      <point x="498.00344827586207" y="523.4275862068966"/>
      <point x="458.3241379310345" y="443.85862068965514" type="curve"/>
      <point x="442.43448275862073" y="520.9655172413793"/>
      <point x="375.3379310344827" y="561.951724137931"/>
      <point x="292.7172413793104" y="561.951724137931" type="curve" smooth="yes"/>
      <point x="156.76896551724138" y="561.951724137931"/>
      <point x="55.14827586206897" y="451.81724137931036"/>
      <point x="55.14827586206897" y="306.9655172413793" type="curve" smooth="yes"/>
      <point x="55.14827586206897" y="227.3344827586207"/>
      <point x="92.70000000000002" y="155.86206896551724"/>
      <point x="173.07241379310346" y="155.86206896551724" type="curve" smooth="yes"/>
      <point x="250.87241379310342" y="155.86206896551724"/>
      <point x="318.2103448275862" y="214.99655172413793"/>
      <point x="318.2103448275862" y="306.0862068965517" type="curve" smooth="yes"/>
      <point x="318.2103448275862" y="374.3344827586207"/>
      <point x="278.3137931034483" y="411.6413793103448"/>
      <point x="222.58620689655172" y="411.6413793103448" type="curve" smooth="yes"/>
      <point x="167.2034482758621" y="411.6413793103448"/>
      <point x="115.8896551724138" y="369.58965517241376"/>
      <point x="84.81724137931035" y="275.0965517241379" type="curve"/>
      <point x="99.16551724137932" y="243.29999999999998" type="line"/>
      <point x="126.29310344827586" y="323.551724137931"/>
      <point x="156.89310344827584" y="347.95862068965516"/>
      <point x="188.8" y="347.95862068965516" type="curve" smooth="yes"/>
      <point x="215.16206896551722" y="347.95862068965516"/>
      <point x="234.14827586206894" y="330.2586206896552"/>
      <point x="234.14827586206894" y="294.03793103448277" type="curve" smooth="yes"/>
      <point x="234.14827586206894" y="249.36896551724138"/>
      <point x="208.08275862068965" y="212.45517241379312"/>
      <point x="168.0344827586207" y="212.45517241379312" type="curve" smooth="yes"/>
      <point x="129.67241379310346" y="212.45517241379312"/>
      <point x="110.15862068965518" y="250.30344827586205"/>
      <point x="110.15862068965518" y="304.0827586206896" type="curve" smooth="yes"/>
      <point x="110.15862068965518" y="410.1793103448276"/>
      <point x="174.0206896551724" y="505.55172413793105"/>
      <point x="280.9793103448276" y="505.55172413793105" type="curve" smooth="yes"/>
      <point x="375.17931034482757" y="505.55172413793105"/>
      <point x="411.8724137931034" y="446.3103448275862"/>
      <point x="391.01724137931035" y="350.52758620689656" type="curve" smooth="yes"/>
      <point x="361.5344827586207" y="214.39310344827587" type="line"/>
      <point x="461.58620689655174" y="214.39310344827587" type="line"/>
      <point x="493.82068965517243" y="370.1206896551724" type="line" smooth="yes"/>
      <point x="509.8896551724138" y="448.2793103448276"/>
      <point x="546.1517241379311" y="505.3586206896552"/>
      <point x="609.9000000000001" y="505.3586206896552" type="curve" smooth="yes"/>
      <point x="662.2862068965518" y="505.3586206896552"/>
      <point x="691.2689655172414" y="470.94827586206895"/>
      <point x="691.2689655172414" y="400.78965517241375" type="curve" smooth="yes"/>
      <point x="691.2689655172414" y="200.78275862068966"/>
      <point x="566.7586206896551" y="147.22413793103448"/>
      <point x="344.4655172413793" y="121.03103448275861" type="curve" smooth="yes"/>
      <point x="131.20344827586206" y="95.98620689655172"/>
      <point x="-38.21379310344828" y="53.16206896551725"/>
      <point x="-38.21379310344828" y="-134.06896551724137" type="curve" smooth="yes"/>
      <point x="-38.21379310344828" y="-236.67931034482757"/>
      <point x="32.424137931034494" y="-301.7931034482759"/>
    </contour>
  </outline>
</glyph>
<glyph name="o-tamil" format="2">
  <advance width="840.7758620689656"/>
  <unicode hex="0B92"/>
  <note>
uni0B92
</note>
  <anchor x="367.99310344827586" y="0.0" name="bottom"/>
  <anchor x="294.8" y="-335.0" name="nukta"/>
  <anchor x="472.71724137931034" y="556.8689655172413" name="top"/>
  <anchor x="474.02068965517236" y="556.8689655172413" name="vedic"/>
  <outline>
    <contour>
      <point x="198.51724137931035" y="-313.7655172413793" type="curve" smooth="yes"/>
      <point x="365.951724137931" y="-313.7655172413793"/>
      <point x="426.2551724137931" y="-139.0448275862069"/>
      <point x="565.048275862069" y="-139.0448275862069" type="curve" smooth="yes"/>
      <point x="600.3862068965517" y="-139.0448275862069" type="line"/>
      <point x="612.5275862068967" y="-83.11034482758622" type="line"/>
      <point x="565.8586206896553" y="-83.11034482758622" type="line" smooth="yes"/>
      <point x="413.33103448275864" y="-83.11034482758622"/>
      <point x="387.7931034482759" y="63.38965517241378"/>
      <point x="492.65862068965515" y="198.32068965517243" type="curve"/>
      <point x="497.6344827586206" y="195.1034482758621" type="line"/>
      <point x="446.1758620689655" y="86.42758620689655"/>
      <point x="469.87931034482756" y="-4.8068965517241375"/>
      <point x="576.2206896551725" y="-4.8068965517241375" type="curve" smooth="yes"/>
      <point x="696.296551724138" y="-4.8068965517241375"/>
      <point x="786.0034482758621" y="102.95517241379311"/>
      <point x="786.0034482758621" y="254.65517241379314" type="curve" smooth="yes"/>
      <point x="786.0034482758621" y="453.75172413793103"/>
      <point x="628.6068965517242" y="561.8689655172413"/>
      <point x="435.703448275862" y="561.8689655172413" type="curve" smooth="yes"/>
      <point x="218.18965517241378" y="561.8689655172413"/>
      <point x="32.37931034482759" y="404.36551724137934"/>
      <point x="32.37931034482759" y="203.29655172413794" type="curve" smooth="yes"/>
      <point x="32.37931034482759" y="77.81724137931035"/>
      <point x="92.37931034482759" y="-5.0"/>
      <point x="191.74137931034483" y="-5.0" type="curve" smooth="yes"/>
      <point x="283.8896551724138" y="-5.0"/>
      <point x="362.49655172413793" y="64.46551724137932"/>
      <point x="362.49655172413793" y="175.4344827586207" type="curve" smooth="yes"/>
      <point x="362.49655172413793" y="256.7586206896552"/>
      <point x="311.8586206896552" y="308.51724137931035"/>
      <point x="239.66206896551725" y="308.51724137931035" type="curve" smooth="yes"/>
      <point x="155.40689655172415" y="308.51724137931035"/>
      <point x="95.6206896551724" y="238.51724137931035"/>
      <point x="64.61724137931034" y="137.25862068965517" type="curve"/>
      <point x="90.66896551724138" y="110.22068965517242" type="line"/>
      <point x="113.53103448275861" y="190.74137931034485"/>
      <point x="150.8103448275862" y="236.46896551724137"/>
      <point x="201.29999999999998" y="236.46896551724137" type="curve" smooth="yes"/>
      <point x="241.10689655172413" y="236.46896551724137"/>
      <point x="262.6206896551724" y="205.55862068965516"/>
      <point x="262.6206896551724" y="158.25172413793103" type="curve" smooth="yes"/>
      <point x="262.6206896551724" y="100.1448275862069"/>
      <point x="232.1862068965517" y="52.69655172413793"/>
      <point x="177.44827586206895" y="52.69655172413793" type="curve" smooth="yes"/>
      <point x="121.45172413793102" y="52.69655172413793"/>
      <point x="88.12758620689657" y="113.17241379310344"/>
      <point x="88.12758620689657" y="206.37931034482756" type="curve" smooth="yes"/>
      <point x="88.12758620689657" y="373.70000000000005"/>
      <point x="246.0448275862069" y="505.7448275862069"/>
      <point x="423.21034482758614" y="505.7448275862069" type="curve" smooth="yes"/>
      <point x="572.944827586207" y="505.7448275862069"/>
      <point x="686.4310344827587" y="413.2413793103448"/>
      <point x="686.4310344827587" y="260.82068965517243" type="curve" smooth="yes"/>
      <point x="686.4310344827587" y="154.78275862068966"/>
      <point x="644.393103448276" y="53.66206896551724"/>
      <point x="566.1206896551726" y="53.66206896551724" type="curve" smooth="yes"/>
      <point x="491.5310344827586" y="53.66206896551724"/>
      <point x="515.544827586207" y="167.09310344827585"/>
      <point x="572.7724137931034" y="256.13448275862066" type="curve"/>
      <point x="517.2586206896551" y="290.3793103448276" type="line"/>
      <point x="379.24482758620695" y="153.93448275862067"/>
      <point x="319.5413793103448" y="-34.58620689655172"/>
      <point x="459.8172413793103" y="-104.81379310344828" type="curve"/>
      <point x="458.8172413793103" y="-109.81379310344828" type="line"/>
      <point x="340.77241379310345" y="-129.95172413793102"/>
      <point x="292.1275862068966" y="-247.14137931034483"/>
      <point x="187.4103448275862" y="-247.14137931034483" type="curve" smooth="yes"/>
      <point x="145.16206896551725" y="-247.14137931034483"/>
      <point x="120.16551724137932" y="-218.75862068965517"/>
      <point x="120.16551724137932" y="-183.57586206896553" type="curve" smooth="yes"/>
      <point x="120.16551724137932" y="-143.77241379310345"/>
      <point x="140.6103448275862" y="-121.47931034482758"/>
      <point x="180.16206896551725" y="-90.14482758620689" type="curve"/>
      <point x="149.8896551724138" y="-51.744827586206895" type="line"/>
      <point x="98.46206896551723" y="-92.39310344827587"/>
      <point x="63.644827586206894" y="-129.53793103448277"/>
      <point x="63.644827586206894" y="-192.49655172413793" type="curve" smooth="yes"/>
      <point x="63.644827586206894" y="-259.5586206896552"/>
      <point x="116.07586206896553" y="-313.7655172413793"/>
    </contour>
  </outline>
</glyph>
<glyph name="oo-tamil" format="2">
  <advance width="840.7758620689656"/>
  <unicode hex="0B93"/>
  <note>
uni0B93
</note>
  <anchor x="359.7344827586207" y="0.0" name="bottom"/>
  <anchor x="295.51724137931035" y="-291.5103448275862" name="nukta"/>
  <anchor x="470.3034482758621" y="556.8689655172413" name="top"/>
  <anchor x="471.6068965517241" y="556.8689655172413" name="vedic"/>
  <outline>
    <contour>
      <point x="177.45172413793105" y="-326.94137931034487" type="curve" smooth="yes"/>
      <point x="348.46896551724143" y="-326.94137931034487"/>
      <point x="426.0379310344827" y="-139.0448275862069"/>
      <point x="564.8310344827587" y="-139.0448275862069" type="curve" smooth="yes"/>
      <point x="595.5344827586207" y="-139.0448275862069" type="line"/>
      <point x="607.6758620689656" y="-83.11034482758622" type="line"/>
      <point x="565.6413793103447" y="-83.11034482758622" type="line" smooth="yes"/>
      <point x="413.11379310344824" y="-83.11034482758622"/>
      <point x="387.35862068965514" y="63.38965517241378"/>
      <point x="492.44137931034476" y="198.1034482758621" type="curve"/>
      <point x="497.6344827586206" y="195.1034482758621" type="line"/>
      <point x="446.1758620689655" y="86.42758620689655"/>
      <point x="469.87931034482756" y="-4.8068965517241375"/>
      <point x="576.2206896551725" y="-4.8068965517241375" type="curve" smooth="yes"/>
      <point x="696.296551724138" y="-4.8068965517241375"/>
      <point x="786.0034482758621" y="102.95517241379311"/>
      <point x="786.0034482758621" y="254.65517241379314" type="curve" smooth="yes"/>
      <point x="786.0034482758621" y="453.75172413793103"/>
      <point x="628.6068965517242" y="561.8689655172413"/>
      <point x="435.703448275862" y="561.8689655172413" type="curve" smooth="yes"/>
      <point x="218.18965517241378" y="561.8689655172413"/>
      <point x="32.37931034482759" y="404.36551724137934"/>
      <point x="32.37931034482759" y="203.29655172413794" type="curve" smooth="yes"/>
      <point x="32.37931034482759" y="77.81724137931035"/>
      <point x="92.37931034482759" y="-5.0"/>
      <point x="191.74137931034483" y="-5.0" type="curve" smooth="yes"/>
      <point x="283.8896551724138" y="-5.0"/>
      <point x="362.49655172413793" y="64.46551724137932"/>
      <point x="362.49655172413793" y="175.4344827586207" type="curve" smooth="yes"/>
      <point x="362.49655172413793" y="256.7586206896552"/>
      <point x="311.8586206896552" y="308.51724137931035"/>
      <point x="239.66206896551725" y="308.51724137931035" type="curve" smooth="yes"/>
      <point x="155.40689655172415" y="308.51724137931035"/>
      <point x="95.6206896551724" y="238.51724137931035"/>
      <point x="64.61724137931034" y="137.25862068965517" type="curve"/>
      <point x="90.66896551724138" y="110.22068965517242" type="line"/>
      <point x="113.53103448275861" y="190.74137931034485"/>
      <point x="150.8103448275862" y="236.46896551724137"/>
      <point x="201.29999999999998" y="236.46896551724137" type="curve" smooth="yes"/>
      <point x="241.10689655172413" y="236.46896551724137"/>
      <point x="262.6206896551724" y="205.55862068965516"/>
      <point x="262.6206896551724" y="158.25172413793103" type="curve" smooth="yes"/>
      <point x="262.6206896551724" y="100.1448275862069"/>
      <point x="232.1862068965517" y="52.69655172413793"/>
      <point x="177.44827586206895" y="52.69655172413793" type="curve" smooth="yes"/>
      <point x="121.45172413793102" y="52.69655172413793"/>
      <point x="88.12758620689657" y="113.17241379310344"/>
      <point x="88.12758620689657" y="206.37931034482756" type="curve" smooth="yes"/>
      <point x="88.12758620689657" y="373.70000000000005"/>
      <point x="246.0448275862069" y="505.7448275862069"/>
      <point x="423.21034482758614" y="505.7448275862069" type="curve" smooth="yes"/>
      <point x="572.944827586207" y="505.7448275862069"/>
      <point x="686.4310344827587" y="413.2413793103448"/>
      <point x="686.4310344827587" y="260.82068965517243" type="curve" smooth="yes"/>
      <point x="686.4310344827587" y="154.78275862068966"/>
      <point x="644.393103448276" y="53.66206896551724"/>
      <point x="566.1206896551726" y="53.66206896551724" type="curve" smooth="yes"/>
      <point x="491.5310344827586" y="53.66206896551724"/>
      <point x="515.544827586207" y="167.09310344827585"/>
      <point x="572.7724137931034" y="256.13448275862066" type="curve"/>
      <point x="517.2586206896551" y="290.3793103448276" type="line"/>
      <point x="378.5931034482758" y="153.93448275862067"/>
      <point x="319.32413793103444" y="-34.58620689655172"/>
      <point x="459.6" y="-104.81379310344828" type="curve"/>
      <point x="458.6" y="-109.81379310344828" type="line"/>
      <point x="340.5551724137931" y="-129.95172413793102"/>
      <point x="270.7103448275862" y="-262.5931034482759"/>
      <point x="165.99310344827586" y="-262.5931034482759" type="curve" smooth="yes"/>
      <point x="117.99999999999999" y="-262.5931034482759"/>
      <point x="97.43448275862069" y="-233.01379310344828"/>
      <point x="97.43448275862069" y="-196.53103448275863" type="curve" smooth="yes"/>
      <point x="97.43448275862069" y="-158.59310344827585"/>
      <point x="123.85172413793103" y="-130.77241379310342"/>
      <point x="157.54827586206898" y="-130.77241379310342" type="curve" smooth="yes"/>
      <point x="188.83448275862068" y="-130.77241379310342"/>
      <point x="210.7896551724138" y="-148.42068965517242"/>
      <point x="216.24137931034485" y="-185.67931034482757" type="curve"/>
      <point x="254.2896551724138" y="-173.8793103448276"/>
      <point x="279.1655172413793" y="-147.59310344827585"/>
      <point x="279.1655172413793" y="-115.05517241379312" type="curve" smooth="yes"/>
      <point x="279.1655172413793" y="-75.49655172413794"/>
      <point x="242.4310344827586" y="-53.41724137931035"/>
      <point x="196.06551724137933" y="-53.41724137931035" type="curve" smooth="yes"/>
      <point x="113.8" y="-53.41724137931035"/>
      <point x="45.686206896551724" y="-116.65862068965518"/>
      <point x="45.686206896551724" y="-203.4241379310345" type="curve" smooth="yes"/>
      <point x="45.686206896551724" y="-273.35517241379307"/>
      <point x="97.59655172413794" y="-326.94137931034487"/>
    </contour>
  </outline>
</glyph>
<glyph name="ka-tamil" format="2">
  <advance width="704.2275862068966"/>
  <unicode hex="0B95"/>
  <note>
uni0B95
</note>
  <anchor x="290.3413793103449" y="0.0" name="bottom"/>
  <anchor x="521.5103448275862" y="556.8689655172413" name="imatra"/>
  <anchor x="290.3413793103449" y="0.0" name="nukta"/>
  <anchor x="419.8379310344828" y="556.8689655172413" name="top"/>
  <anchor x="428.7241379310345" y="556.8689655172413" name="vedic"/>
  <outline>
    <contour>
      <point x="188.6448275862069" y="-4.0" type="curve" smooth="yes"/>
      <point x="309.3241379310345" y="-4.0"/>
      <point x="374.1965517241379" y="60.82758620689655"/>
      <point x="401.0724137931034" y="188.22758620689655" type="curve" smooth="yes"/>
      <point x="417.0448275862069" y="264.5448275862069" type="line"/>
      <point x="462.948275862069" y="264.5448275862069" type="line" smooth="yes"/>
      <point x="511.92068965517245" y="264.5448275862069"/>
      <point x="538.9655172413793" y="232.84137931034482"/>
      <point x="538.9655172413793" y="178.67931034482757" type="curve" smooth="yes"/>
      <point x="538.9655172413793" y="111.9103448275862"/>
      <point x="502.91034482758624" y="52.6551724137931"/>
      <point x="439.15172413793107" y="52.6551724137931" type="curve" smooth="yes"/>
      <point x="414.7137931034483" y="52.6551724137931" type="line"/>
      <point x="403.35517241379307" y="-2.3586206896551727" type="line"/>
      <point x="448.98965517241385" y="-2.3586206896551727" type="line" smooth="yes"/>
      <point x="560.1103448275863" y="-2.3586206896551727"/>
      <point x="644.3310344827587" y="67.12758620689655"/>
      <point x="644.3310344827587" y="179.37586206896552" type="curve" smooth="yes"/>
      <point x="644.3310344827587" y="271.2103448275862"/>
      <point x="582.7965517241379" y="320.47586206896557"/>
      <point x="476.6103448275862" y="320.47586206896557" type="curve" smooth="yes"/>
      <point x="429.1034482758621" y="320.47586206896557" type="line"/>
      <point x="467.4689655172414" y="500.93793103448274" type="line"/>
      <point x="597.2586206896552" y="500.93793103448274" type="line"/>
      <point x="609.3172413793103" y="556.8689655172413" type="line"/>
      <point x="199.30344827586205" y="556.8689655172413" type="line"/>
      <point x="142.19310344827585" y="288.62068965517244" type="line"/>
      <point x="200.4206896551724" y="288.62068965517244" type="line"/>
      <point x="245.06206896551723" y="500.93793103448274" type="line"/>
      <point x="361.3793103448276" y="500.93793103448274" type="line"/>
      <point x="323.4379310344828" y="320.47586206896557" type="line"/>
      <point x="200.98275862068965" y="320.47586206896557" type="line" smooth="yes"/>
      <point x="96.4" y="320.47586206896557"/>
      <point x="21.013793103448275" y="244.59310344827583"/>
      <point x="21.013793103448275" y="144.39310344827587" type="curve" smooth="yes"/>
      <point x="21.013793103448275" y="60.46551724137931"/>
      <point x="85.05862068965517" y="-4.0"/>
    </contour>
    <contour>
      <point x="177.14827586206897" y="52.88965517241379" type="curve" smooth="yes"/>
      <point x="120.56551724137933" y="52.88965517241379"/>
      <point x="82.73103448275862" y="91.29655172413793"/>
      <point x="82.73103448275862" y="149.9655172413793" type="curve" smooth="yes"/>
      <point x="82.73103448275862" y="217.04827586206898"/>
      <point x="122.80689655172417" y="264.5448275862069"/>
      <point x="195.25172413793106" y="264.5448275862069" type="curve" smooth="yes"/>
      <point x="311.3793103448276" y="264.5448275862069" type="line"/>
      <point x="293.28275862068966" y="178.8137931034483" type="line" smooth="yes"/>
      <point x="273.97241379310344" y="87.34482758620689"/>
      <point x="238.55862068965516" y="52.88965517241379"/>
    </contour>
  </outline>
</glyph>
<glyph name="ca-tamil" format="2">
  <advance width="595.5862068965517"/>
  <unicode hex="0B9A"/>
  <note>
uni0B9A
</note>
  <anchor x="249.2" y="0.0" name="bottom"/>
  <anchor x="536.1379310344828" y="556.8689655172413" name="imatra"/>
  <anchor x="245.2655172413793" y="0.0" name="nukta"/>
  <anchor x="419.39310344827584" y="556.8689655172413" name="top"/>
  <anchor x="389.41379310344826" y="556.8689655172413" name="vedic"/>
  <outline>
    <contour>
      <point x="188.6448275862069" y="-4.0" type="curve" smooth="yes"/>
      <point x="309.3241379310345" y="-4.0"/>
      <point x="374.1965517241379" y="60.82758620689655"/>
      <point x="401.0724137931034" y="188.22758620689655" type="curve" smooth="yes"/>
      <point x="417.0448275862069" y="264.5448275862069" type="line"/>
      <point x="547.3413793103449" y="264.5448275862069" type="line"/>
      <point x="558.7586206896551" y="320.47586206896557" type="line"/>
      <point x="429.1034482758621" y="320.47586206896557" type="line"/>
      <point x="467.4689655172414" y="500.93793103448274" type="line"/>
      <point x="597.2586206896552" y="500.93793103448274" type="line"/>
      <point x="609.3172413793103" y="556.8689655172413" type="line"/>
      <point x="199.30344827586205" y="556.8689655172413" type="line"/>
      <point x="142.19310344827585" y="288.62068965517244" type="line"/>
      <point x="200.4206896551724" y="288.62068965517244" type="line"/>
      <point x="245.06206896551723" y="500.93793103448274" type="line"/>
      <point x="361.3793103448276" y="500.93793103448274" type="line"/>
      <point x="323.4379310344828" y="320.47586206896557" type="line"/>
      <point x="200.98275862068965" y="320.47586206896557" type="line" smooth="yes"/>
      <point x="96.4" y="320.47586206896557"/>
      <point x="21.013793103448275" y="244.59310344827583"/>
      <point x="21.013793103448275" y="144.39310344827587" type="curve" smooth="yes"/>
      <point x="21.013793103448275" y="60.46551724137931"/>
      <point x="85.05862068965517" y="-4.0"/>
    </contour>
    <contour>
      <point x="177.14827586206897" y="52.88965517241379" type="curve" smooth="yes"/>
      <point x="120.56551724137933" y="52.88965517241379"/>
      <point x="82.73103448275862" y="91.29655172413793"/>
      <point x="82.73103448275862" y="149.9655172413793" type="curve" smooth="yes"/>
      <point x="82.73103448275862" y="217.04827586206898"/>
      <point x="122.80689655172417" y="264.5448275862069"/>
      <point x="195.25172413793106" y="264.5448275862069" type="curve" smooth="yes"/>
      <point x="311.3793103448276" y="264.5448275862069" type="line"/>
      <point x="293.28275862068966" y="178.8137931034483" type="line" smooth="yes"/>
      <point x="273.97241379310344" y="87.34482758620689"/>
      <point x="238.55862068965516" y="52.88965517241379"/>
    </contour>
  </outline>
</glyph>
<glyph name="ja-tamil" format="2">
  <advance width="824.4206896551724"/>
  <unicode hex="0B9C"/>
  <note>
uni0B9C
</note>
  <anchor x="354.12413793103445" y="0.0" name="bottom"/>
  <anchor x="285.4862068965517" y="-301.7931034482759" name="nukta"/>
  <anchor x="478.0793103448276" y="556.8689655172413" name="top"/>
  <anchor x="474.26206896551724" y="556.8689655172413" name="vedic"/>
  <outline>
    <contour>
      <point x="112.3" y="-301.7931034482759" type="curve" smooth="yes"/>
      <point x="300.0206896551724" y="-301.7931034482759"/>
      <point x="378.19310344827585" y="-20.90344827586207"/>
      <point x="514.051724137931" y="-20.90344827586207" type="curve" smooth="yes"/>
      <point x="565.5931034482759" y="-20.90344827586207"/>
      <point x="592.1310344827587" y="-57.389655172413796"/>
      <point x="592.1310344827587" y="-111.12413793103448" type="curve" smooth="yes"/>
      <point x="592.1310344827587" y="-185.11724137931037"/>
      <point x="552.0206896551724" y="-245.37586206896552"/>
      <point x="478.36206896551727" y="-245.37586206896552" type="curve" smooth="yes"/>
      <point x="450.2241379310345" y="-245.37586206896552"/>
      <point x="424.9310344827586" y="-236.82413793103447"/>
      <point x="398.2034482758621" y="-219.7448275862069" type="curve"/>
      <point x="370.32758620689657" y="-263.4862068965517" type="line"/>
      <point x="405.26206896551724" y="-288.2655172413793"/>
      <point x="443.76206896551724" y="-301.7931034482759"/>
      <point x="495.7793103448276" y="-301.7931034482759" type="curve" smooth="yes"/>
      <point x="601.0275862068967" y="-301.7931034482759"/>
      <point x="695.2413793103448" y="-230.9241379310345"/>
      <point x="695.2413793103448" y="-110.61724137931036" type="curve" smooth="yes"/>
      <point x="695.2413793103448" y="-12.913793103448276"/>
      <point x="635.0931034482759" y="38.84827586206897"/>
      <point x="541.8379310344827" y="38.84827586206897" type="curve" smooth="yes"/>
      <point x="352.451724137931" y="38.84827586206897"/>
      <point x="273.1620689655172" y="-242.1206896551724"/>
      <point x="138.1896551724138" y="-242.1206896551724" type="curve" smooth="yes"/>
      <point x="84.09310344827587" y="-242.1206896551724"/>
      <point x="64.76551724137931" y="-201.65517241379308"/>
      <point x="64.76551724137931" y="-139.88965517241377" type="curve" smooth="yes"/>
      <point x="64.76551724137931" y="15.17586206896552"/>
      <point x="172.96551724137933" y="54.94827586206897"/>
      <point x="391.0965517241379" y="81.81379310344828" type="curve" smooth="yes"/>
      <point x="632.6413793103449" y="111.92068965517241"/>
      <point x="794.7896551724137" y="186.92758620689656"/>
      <point x="794.7896551724137" y="393.17241379310343" type="curve" smooth="yes"/>
      <point x="794.7896551724137" y="505.3551724137931"/>
      <point x="721.9862068965517" y="561.951724137931"/>
      <point x="632.4862068965517" y="561.951724137931" type="curve" smooth="yes"/>
      <point x="557.3103448275862" y="561.951724137931"/>
      <point x="498.54827586206903" y="523.4275862068966"/>
      <point x="458.8689655172414" y="443.85862068965514" type="curve"/>
      <point x="442.9793103448275" y="520.9655172413793"/>
      <point x="375.88275862068963" y="561.951724137931"/>
      <point x="293.26206896551724" y="561.951724137931" type="curve" smooth="yes"/>
      <point x="157.3137931034483" y="561.951724137931"/>
      <point x="55.69310344827587" y="451.81724137931036"/>
      <point x="55.69310344827587" y="306.9655172413793" type="curve" smooth="yes"/>
      <point x="55.69310344827587" y="227.3344827586207"/>
      <point x="93.24482758620688" y="155.86206896551724"/>
      <point x="173.61724137931031" y="155.86206896551724" type="curve" smooth="yes"/>
      <point x="251.41724137931035" y="155.86206896551724"/>
      <point x="318.7551724137931" y="214.99655172413793"/>
      <point x="318.7551724137931" y="306.0862068965517" type="curve" smooth="yes"/>
      <point x="318.7551724137931" y="374.3344827586207"/>
      <point x="278.8586206896552" y="411.6413793103448"/>
      <point x="223.1310344827586" y="411.6413793103448" type="curve" smooth="yes"/>
      <point x="167.74827586206897" y="411.6413793103448"/>
      <point x="116.4344827586207" y="369.58965517241376"/>
      <point x="85.36206896551724" y="275.0965517241379" type="curve"/>
      <point x="99.71034482758621" y="243.29999999999998" type="line"/>
      <point x="126.83793103448276" y="323.551724137931"/>
      <point x="157.43793103448277" y="347.95862068965516"/>
      <point x="189.3448275862069" y="347.95862068965516" type="curve" smooth="yes"/>
      <point x="215.70689655172413" y="347.95862068965516"/>
      <point x="234.69310344827588" y="330.2586206896552"/>
      <point x="234.69310344827588" y="294.03793103448277" type="curve" smooth="yes"/>
      <point x="234.69310344827588" y="249.36896551724138"/>
      <point x="208.62758620689658" y="212.45517241379312"/>
      <point x="168.5793103448276" y="212.45517241379312" type="curve" smooth="yes"/>
      <point x="130.21724137931034" y="212.45517241379312"/>
      <point x="110.70344827586207" y="250.30344827586205"/>
      <point x="110.70344827586207" y="304.0827586206896" type="curve" smooth="yes"/>
      <point x="110.70344827586207" y="410.1793103448276"/>
      <point x="174.56551724137933" y="505.55172413793105"/>
      <point x="281.5241379310345" y="505.55172413793105" type="curve" smooth="yes"/>
      <point x="375.7241379310345" y="505.55172413793105"/>
      <point x="412.4172413793104" y="446.3103448275862"/>
      <point x="391.5620689655172" y="350.52758620689656" type="curve" smooth="yes"/>
      <point x="362.0793103448276" y="214.39310344827587" type="line"/>
      <point x="462.1310344827587" y="214.39310344827587" type="line"/>
      <point x="494.3655172413793" y="370.1206896551724" type="line" smooth="yes"/>
      <point x="510.4344827586208" y="448.2793103448276"/>
      <point x="546.7793103448275" y="505.3586206896552"/>
      <point x="610.5275862068966" y="505.3586206896552" type="curve" smooth="yes"/>
      <point x="662.9137931034483" y="505.3586206896552"/>
      <point x="691.8137931034482" y="470.94827586206895"/>
      <point x="691.8137931034482" y="400.78965517241375" type="curve" smooth="yes"/>
      <point x="691.8137931034482" y="201.21724137931037"/>
      <point x="570.9241379310346" y="146.62758620689655"/>
      <point x="343.27241379310345" y="119.49310344827586" type="curve" smooth="yes"/>
      <point x="106.18620689655172" y="90.68275862068967"/>
      <point x="-37.48620689655172" y="30.10000000000001"/>
      <point x="-37.48620689655172" y="-137.04827586206898" type="curve" smooth="yes"/>
      <point x="-37.48620689655172" y="-236.06551724137933"/>
      <point x="11.782758620689656" y="-301.7931034482759"/>
    </contour>
  </outline>
</glyph>
<glyph name="nya-tamil" format="2">
  <advance width="1108.8034482758621"/>
  <unicode hex="0B9E"/>
  <note>
uni0B9E
</note>
  <anchor x="524.944827586207" y="0.0" name="bottom"/>
  <anchor x="928.5999999999999" y="556.8689655172413" name="imatra"/>
  <anchor x="465.948275862069" y="-323.21379310344827" name="nukta"/>
  <anchor x="655.5" y="556.8689655172413" name="top"/>
  <anchor x="631.6862068965517" y="556.8689655172413" name="vedic"/>
  <outline>
    <contour>
      <point x="463.4137931034483" y="-323.21379310344827" type="curve" smooth="yes"/>
      <point x="789.4000000000001" y="-323.21379310344827"/>
      <point x="1036.496551724138" y="-97.96206896551723"/>
      <point x="1036.496551724138" y="190.39310344827587" type="curve" smooth="yes"/>
      <point x="1036.496551724138" y="285.6551724137931"/>
      <point x="991.5034482758621" y="344.8620689655172"/>
      <point x="913.158620689655" y="344.8620689655172" type="curve" smooth="yes"/>
      <point x="835.9103448275863" y="344.8620689655172"/>
      <point x="782.4655172413794" y="279.4206896551724"/>
      <point x="764.4655172413793" y="195.81034482758622" type="curve" smooth="yes"/>
      <point x="755.0172413793103" y="151.5413793103448" type="line"/>
      <point x="778.1758620689656" y="151.5413793103448" type="line"/>
      <point x="787.3482758620689" y="195.14482758620687" type="line" smooth="yes"/>
      <point x="797.3172413793104" y="241.87241379310345"/>
      <point x="824.3137931034482" y="275.94482758620694"/>
      <point x="866.8758620689655" y="275.94482758620694" type="curve" smooth="yes"/>
      <point x="909.6689655172414" y="275.94482758620694"/>
      <point x="930.3689655172413" y="241.17241379310343"/>
      <point x="930.3689655172413" y="183.25517241379308" type="curve" smooth="yes"/>
      <point x="930.3689655172413" y="-60.41379310344828"/>
      <point x="745.0413793103448" y="-266.70344827586206"/>
      <point x="466.51034482758615" y="-266.70344827586206" type="curve" smooth="yes"/>
      <point x="250.72068965517244" y="-266.70344827586206"/>
      <point x="83.09655172413792" y="-113.98275862068965"/>
      <point x="83.09655172413792" y="123.81379310344828" type="curve" smooth="yes"/>
      <point x="83.09655172413792" y="325.02758620689656"/>
      <point x="169.5793103448276" y="475.7793103448276"/>
      <point x="321.2344827586207" y="621.5689655172413" type="curve"/>
      <point x="286.1724137931035" y="658.0" type="line"/>
      <point x="126.8" y="506.9724137931035"/>
      <point x="26.34137931034483" y="332.77241379310345"/>
      <point x="26.34137931034483" y="117.15172413793103" type="curve" smooth="yes"/>
      <point x="26.34137931034483" y="-136.89310344827587"/>
      <point x="209.07241379310346" y="-323.21379310344827"/>
    </contour>
    <component base="e-tamil" xOffset="181.45172413793102"/>
  </outline>
</glyph>
<glyph name="tta-tamil" format="2">
  <advance width="748.2413793103449"/>
  <unicode hex="0B9F"/>
  <note>
uni0B9F
</note>
  <anchor x="334.1344827586207" y="0.0" name="bottom"/>
  <anchor x="334.1344827586207" y="0.0" name="nukta"/>
  <anchor x="460.3344827586207" y="556.8689655172413" name="top"/>
  <anchor x="465.2068965517241" y="556.8689655172413" name="vedic"/>
  <outline>
    <contour>
      <point x="19.368965517241378" y="0.0" type="line"/>
      <point x="674.4379310344827" y="0.0" type="line"/>
      <point x="686.2068965517241" y="55.93103448275862" type="line"/>
      <point x="136.36551724137934" y="55.93103448275862" type="line"/>
      <point x="243.14827586206897" y="556.8689655172413" type="line"/>
      <point x="137.41379310344828" y="556.8689655172413" type="line"/>
    </contour>
  </outline>
</glyph>
<glyph name="nna-tamil" format="2">
  <advance width="1460.693103448276"/>
  <unicode hex="0BA3"/>
  <note>
uni0BA3
</note>
  <anchor x="721.9068965517241" y="0.0" name="bottom"/>
  <anchor x="1390.4103448275862" y="556.8689655172413" name="imatra"/>
  <anchor x="720.6999999999999" y="0.0" name="nukta"/>
  <anchor x="831.0999999999999" y="556.8689655172413" name="top"/>
  <anchor x="814.3068965517241" y="556.8689655172413" name="vedic"/>
  <outline>
    <contour>
      <point x="544.7758620689655" y="-4.8068965517241375" type="curve" smooth="yes"/>
      <point x="655.803448275862" y="-4.8068965517241375"/>
      <point x="734.4000000000001" y="90.1448275862069"/>
      <point x="734.4000000000001" y="230.29310344827587" type="curve" smooth="yes"/>
      <point x="734.4000000000001" y="423.52758620689656"/>
      <point x="608.4965517241379" y="561.8689655172413"/>
      <point x="397.1241379310345" y="561.8689655172413" type="curve" smooth="yes"/>
      <point x="199.5896551724138" y="561.8689655172413"/>
      <point x="31.724137931034488" y="389.91034482758624"/>
      <point x="31.724137931034488" y="201.58965517241379" type="curve" smooth="yes"/>
      <point x="31.724137931034488" y="76.11034482758622"/>
      <point x="92.93793103448274" y="-5.0"/>
      <point x="193.3137931034483" y="-5.0" type="curve" smooth="yes"/>
      <point x="284.9551724137931" y="-5.0"/>
      <point x="365.93103448275866" y="64.46551724137932"/>
      <point x="365.93103448275866" y="175.4344827586207" type="curve" smooth="yes"/>
      <point x="365.93103448275866" y="256.7586206896552"/>
      <point x="313.9931034482759" y="308.51724137931035"/>
      <point x="241.7965517241379" y="308.51724137931035" type="curve" smooth="yes"/>
      <point x="157.5413793103448" y="308.51724137931035"/>
      <point x="95.71034482758621" y="238.51724137931035"/>
      <point x="64.70689655172414" y="137.25862068965517" type="curve"/>
      <point x="90.75862068965519" y="110.22068965517242" type="line"/>
      <point x="113.62068965517241" y="190.74137931034485"/>
      <point x="152.55862068965519" y="236.46896551724137"/>
      <point x="203.04827586206895" y="236.46896551724137" type="curve" smooth="yes"/>
      <point x="242.8551724137931" y="236.46896551724137"/>
      <point x="266.05517241379306" y="205.55862068965516"/>
      <point x="266.05517241379306" y="158.25172413793103" type="curve" smooth="yes"/>
      <point x="266.05517241379306" y="100.1448275862069"/>
      <point x="234.26551724137929" y="52.69655172413793"/>
      <point x="179.02068965517242" y="52.69655172413793" type="curve" smooth="yes"/>
      <point x="122.01034482758621" y="52.69655172413793"/>
      <point x="87.47241379310346" y="111.4655172413793"/>
      <point x="87.47241379310346" y="204.67241379310343" type="curve" smooth="yes"/>
      <point x="87.47241379310346" y="358.5"/>
      <point x="222.61379310344827" y="505.55172413793105"/>
      <point x="389.651724137931" y="505.55172413793105" type="curve" smooth="yes"/>
      <point x="556.2344827586207" y="505.55172413793105"/>
      <point x="633.2344827586206" y="375.2"/>
      <point x="632.8482758620689" y="229.2793103448276" type="curve" smooth="yes"/>
      <point x="632.655172413793" y="129.24137931034483"/>
      <point x="594.7793103448276" y="53.87241379310345"/>
      <point x="529.9206896551725" y="53.87241379310345" type="curve" smooth="yes"/>
      <point x="492.67931034482757" y="53.87241379310345"/>
      <point x="473.1482758620689" y="93.37586206896552"/>
      <point x="473.1482758620689" y="159.04137931034484" type="curve" smooth="yes"/>
      <point x="473.1482758620689" y="307.98275862068965"/>
      <point x="609.0344827586207" y="505.55172413793105"/>
      <point x="796.1413793103449" y="505.55172413793105" type="curve" smooth="yes"/>
      <point x="955.106896551724" y="505.55172413793105"/>
      <point x="1003.8551724137932" y="383.8931034482759"/>
      <point x="1003.4689655172415" y="239.39310344827587" type="curve" smooth="yes"/>
      <point x="1003.2758620689656" y="138.70344827586206"/>
      <point x="963.5655172413793" y="53.87241379310345"/>
      <point x="899.8896551724139" y="53.87241379310345" type="curve" smooth="yes"/>
      <point x="862.4310344827587" y="53.87241379310345"/>
      <point x="843.7689655172413" y="88.72413793103449"/>
      <point x="843.7689655172413" y="154.8241379310345" type="curve" smooth="yes"/>
      <point x="843.7689655172413" y="320.56206896551726"/>
      <point x="999.551724137931" y="501.13103448275865"/>
      <point x="1192.8413793103448" y="501.13103448275865" type="curve" smooth="yes"/>
      <point x="1488.0241379310346" y="501.13103448275865" type="line"/>
      <point x="1499.6" y="556.8689655172413" type="line"/>
      <point x="1201.0" y="556.8689655172413" type="line" smooth="yes"/>
      <point x="970.4068965517242" y="556.8689655172413"/>
      <point x="787.3586206896553" y="351.42068965517245"/>
      <point x="787.3586206896553" y="149.9896551724138" type="curve" smooth="yes"/>
      <point x="787.3586206896553" y="57.555172413793095"/>
      <point x="826.8448275862069" y="-4.8068965517241375"/>
      <point x="914.7448275862068" y="-4.8068965517241375" type="curve" smooth="yes"/>
      <point x="1026.8827586206896" y="-4.8068965517241375"/>
      <point x="1105.0206896551724" y="99.67931034482758"/>
      <point x="1105.0206896551724" y="240.98620689655172" type="curve" smooth="yes"/>
      <point x="1105.0206896551724" y="420.92413793103447"/>
      <point x="1009.903448275862" y="561.8689655172413"/>
      <point x="804.6275862068966" y="561.8689655172413" type="curve" smooth="yes"/>
      <point x="584.4862068965517" y="561.8689655172413"/>
      <point x="416.7379310344827" y="338.84137931034485"/>
      <point x="416.7379310344827" y="154.20689655172413" type="curve" smooth="yes"/>
      <point x="416.7379310344827" y="61.77241379310345"/>
      <point x="456.8758620689655" y="-4.8068965517241375"/>
    </contour>
    <contour>
      <point x="1149.103448275862" y="0.0" type="line"/>
      <point x="1253.5172413793105" y="0.0" type="line"/>
      <point x="1366.1206896551726" y="530.4344827586207" type="line"/>
      <point x="1261.7896551724139" y="530.4344827586207" type="line"/>
    </contour>
  </outline>
</glyph>
<glyph name="na-tamil" format="2">
  <advance width="669.4379310344827"/>
  <unicode hex="0BA8"/>
  <note>
uni0BA8
</note>
  <anchor x="263.1827586206897" y="0.0" name="bottom"/>
  <anchor x="502.61034482758623" y="556.8689655172413" name="imatra"/>
  <anchor x="248.85172413793103" y="-188.75172413793103" name="nukta"/>
  <anchor x="385.0" y="556.8689655172413" name="top"/>
  <anchor x="398.5310344827586" y="556.8689655172413" name="vedic"/>
  <outline>
    <contour>
      <point x="47.73103448275862" y="-254.92068965517242" type="curve"/>
      <point x="61.893103448275866" y="-181.73793103448278"/>
      <point x="91.32758620689654" y="-137.67241379310346"/>
      <point x="175.4344827586207" y="-137.67241379310346" type="curve" smooth="yes"/>
      <point x="259.8965517241379" y="-137.67241379310346" type="line" smooth="yes"/>
      <point x="448.9965517241379" y="-137.67241379310346"/>
      <point x="600.6931034482758" y="-7.472413793103449"/>
      <point x="600.6931034482758" y="197.54827586206895" type="curve" smooth="yes"/>
      <point x="600.6931034482758" y="294.3965517241379"/>
      <point x="556.4482758620691" y="345.63448275862066"/>
      <point x="483.40344827586205" y="345.63448275862066" type="curve" smooth="yes"/>
      <point x="432.948275862069" y="345.63448275862066"/>
      <point x="401.07931034482755" y="317.048275862069"/>
      <point x="380.39310344827584" y="289.2344827586207" type="curve"/>
      <point x="425.67931034482757" y="501.13103448275865" type="line"/>
      <point x="544.7827586206896" y="501.13103448275865" type="line"/>
      <point x="557.0586206896552" y="556.8689655172413" type="line"/>
      <point x="137.07586206896553" y="556.8689655172413" type="line"/>
      <point x="19.248275862068965" y="0.0" type="line"/>
      <point x="77.72413793103448" y="0.0" type="line"/>
      <point x="183.91724137931033" y="501.13103448275865" type="line"/>
      <point x="320.5344827586207" y="501.13103448275865" type="line"/>
      <point x="213.83448275862068" y="0.0" type="line"/>
      <point x="318.8965517241379" y="0.0" type="line"/>
      <point x="360.92413793103447" y="198.5241379310345" type="line" smooth="yes"/>
      <point x="370.4689655172414" y="242.76551724137929"/>
      <point x="398.84827586206893" y="274.3034482758621"/>
      <point x="433.8551724137932" y="274.3034482758621" type="curve" smooth="yes"/>
      <point x="472.3275862068965" y="274.3034482758621"/>
      <point x="493.4793103448276" y="248.11724137931034"/>
      <point x="493.4793103448276" y="190.36206896551724" type="curve" smooth="yes"/>
      <point x="493.4793103448276" y="34.751724137931035"/>
      <point x="409.50689655172414" y="-88.77586206896552"/>
      <point x="249.57931034482755" y="-88.77586206896552" type="curve" smooth="yes"/>
      <point x="145.78620689655173" y="-88.77586206896552" type="line" smooth="yes"/>
      <point x="48.55517241379311" y="-88.77586206896552"/>
      <point x="-28.09655172413793" y="-114.27586206896551"/>
      <point x="-28.09655172413793" y="-190.49310344827583" type="curve" smooth="yes"/>
      <point x="-28.09655172413793" y="-231.98620689655172"/>
      <point x="-0.30689655172413755" y="-254.92068965517242"/>
    </contour>
  </outline>
</glyph>
<glyph name="nnna-tamil" format="2">
  <advance width="1108.2103448275864"/>
  <unicode hex="0BA9"/>
  <note>
uni0BA9
</note>
  <anchor x="486.0931034482758" y="0.0" name="bottom"/>
  <anchor x="1030.8068965517243" y="556.8689655172413" name="imatra"/>
  <anchor x="486.4793103448276" y="0.0" name="nukta"/>
  <anchor x="632.4689655172415" y="556.8689655172413" name="top"/>
  <anchor x="628.7413793103448" y="556.8689655172413" name="vedic"/>
  <outline>
    <contour>
      <point x="193.3137931034483" y="-5.0" type="curve" smooth="yes"/>
      <point x="284.9551724137931" y="-5.0"/>
      <point x="365.93103448275866" y="64.46551724137932"/>
      <point x="365.93103448275866" y="175.4344827586207" type="curve" smooth="yes"/>
      <point x="365.93103448275866" y="256.7586206896552"/>
      <point x="313.9931034482759" y="308.51724137931035"/>
      <point x="241.7965517241379" y="308.51724137931035" type="curve" smooth="yes"/>
      <point x="157.5413793103448" y="308.51724137931035"/>
      <point x="95.71034482758621" y="238.51724137931035"/>
      <point x="64.70689655172414" y="137.25862068965517" type="curve"/>
      <point x="90.75862068965519" y="110.22068965517242" type="line"/>
      <point x="113.62068965517241" y="190.74137931034485"/>
      <point x="152.55862068965519" y="236.46896551724137"/>
      <point x="203.04827586206895" y="236.46896551724137" type="curve" smooth="yes"/>
      <point x="242.8551724137931" y="236.46896551724137"/>
      <point x="266.05517241379306" y="205.55862068965516"/>
      <point x="266.05517241379306" y="158.25172413793103" type="curve" smooth="yes"/>
      <point x="266.05517241379306" y="100.1448275862069"/>
      <point x="234.26551724137929" y="52.69655172413793"/>
      <point x="179.02068965517242" y="52.69655172413793" type="curve" smooth="yes"/>
      <point x="122.01034482758621" y="52.69655172413793"/>
      <point x="87.47241379310346" y="111.4655172413793"/>
      <point x="87.47241379310346" y="204.67241379310343" type="curve" smooth="yes"/>
      <point x="87.47241379310346" y="358.5"/>
      <point x="220.16206896551725" y="505.55172413793105"/>
      <point x="387.5310344827586" y="505.55172413793105" type="curve" smooth="yes"/>
      <point x="554.3310344827587" y="505.55172413793105"/>
      <point x="634.5379310344828" y="375.2"/>
      <point x="634.1517241379311" y="229.2793103448276" type="curve" smooth="yes"/>
      <point x="633.9586206896552" y="129.24137931034483"/>
      <point x="595.6482758620689" y="53.87241379310345"/>
      <point x="530.5724137931035" y="53.87241379310345" type="curve" smooth="yes"/>
      <point x="493.1137931034483" y="53.87241379310345"/>
      <point x="474.451724137931" y="88.72413793103449"/>
      <point x="474.451724137931" y="154.8241379310345" type="curve" smooth="yes"/>
      <point x="474.451724137931" y="320.56206896551726"/>
      <point x="631.9103448275863" y="501.13103448275865"/>
      <point x="827.6827586206897" y="501.13103448275865" type="curve" smooth="yes"/>
      <point x="1135.5413793103448" y="501.13103448275865" type="line"/>
      <point x="1147.1172413793104" y="556.8689655172413" type="line"/>
      <point x="835.8413793103449" y="556.8689655172413" type="line" smooth="yes"/>
      <point x="602.7655172413793" y="556.8689655172413"/>
      <point x="418.0413793103449" y="351.42068965517245"/>
      <point x="418.0413793103449" y="149.9896551724138" type="curve" smooth="yes"/>
      <point x="418.0413793103449" y="57.555172413793095"/>
      <point x="457.5275862068966" y="-4.8068965517241375"/>
      <point x="545.4275862068965" y="-4.8068965517241375" type="curve" smooth="yes"/>
      <point x="656.6724137931035" y="-4.8068965517241375"/>
      <point x="735.703448275862" y="93.35172413793103"/>
      <point x="735.703448275862" y="230.4586206896552" type="curve" smooth="yes"/>
      <point x="735.703448275862" y="423.6931034482759"/>
      <point x="606.5931034482759" y="561.8689655172413"/>
      <point x="395.00344827586207" y="561.8689655172413" type="curve" smooth="yes"/>
      <point x="197.13793103448276" y="561.8689655172413"/>
      <point x="31.724137931034488" y="389.91034482758624"/>
      <point x="31.724137931034488" y="201.58965517241379" type="curve" smooth="yes"/>
      <point x="31.724137931034488" y="76.11034482758622"/>
      <point x="92.93793103448274" y="-5.0"/>
    </contour>
    <contour>
      <point x="796.6206896551724" y="0.0" type="line"/>
      <point x="901.0344827586206" y="0.0" type="line"/>
      <point x="1013.6379310344827" y="530.4344827586207" type="line"/>
      <point x="909.3068965517241" y="530.4344827586207" type="line"/>
    </contour>
  </outline>
</glyph>
<glyph name="pa-tamil" format="2">
  <advance width="748.5379310344828"/>
  <unicode hex="0BAA"/>
  <note>
uni0BAA
</note>
  <anchor x="317.5551724137931" y="0.0" name="bottom"/>
  <anchor x="722.7620689655173" y="556.8689655172413" name="imatra"/>
  <anchor x="317.5551724137931" y="0.0" name="nukta"/>
  <anchor x="434.8724137931035" y="556.8689655172413" name="top"/>
  <anchor x="435.25172413793103" y="556.8689655172413" name="vedic"/>
  <outline>
    <contour>
      <point x="19.368965517241378" y="0.0" type="line"/>
      <point x="611.2068965517242" y="0.0" type="line"/>
      <point x="729.6758620689656" y="556.8689655172413" type="line"/>
      <point x="625.0137931034483" y="556.8689655172413" type="line"/>
      <point x="518.2310344827587" y="55.93103448275862" type="line"/>
      <point x="136.0344827586207" y="55.93103448275862" type="line"/>
      <point x="242.81724137931033" y="556.8689655172413" type="line"/>
      <point x="137.41379310344828" y="556.8689655172413" type="line"/>
    </contour>
  </outline>
</glyph>
<glyph name="ma-tamil" format="2">
  <advance width="756.1137931034483"/>
  <unicode hex="0BAE"/>
  <note>
uni0BAE
</note>
  <anchor x="320.07241379310346" y="0.0" name="bottom"/>
  <anchor x="734.0758620689655" y="556.8689655172413" name="imatra"/>
  <anchor x="320.9896551724138" y="0.0" name="nukta"/>
  <anchor x="464.4482758620689" y="556.8689655172413" name="top"/>
  <anchor x="453.20000000000005" y="556.8689655172413" name="vedic"/>
  <outline>
    <contour>
      <point x="19.368965517241378" y="0.0" type="line"/>
      <point x="506.42068965517245" y="0.0" type="line" smooth="yes"/>
      <point x="650.5586206896552" y="0.0"/>
      <point x="709.6379310344828" y="160.30689655172412"/>
      <point x="709.6379310344828" y="334.52758620689656" type="curve" smooth="yes"/>
      <point x="709.6379310344828" y="476.2068965517241"/>
      <point x="651.5206896551724" y="561.951724137931"/>
      <point x="550.1000000000001" y="561.951724137931" type="curve" smooth="yes"/>
      <point x="461.79655172413794" y="561.951724137931"/>
      <point x="408.0965517241379" y="503.8551724137931"/>
      <point x="388.5137931034482" y="409.74827586206897" type="curve" smooth="yes"/>
      <point x="314.17931034482757" y="55.93103448275862" type="line"/>
      <point x="136.36551724137934" y="55.93103448275862" type="line"/>
      <point x="243.14827586206897" y="556.8689655172413" type="line"/>
      <point x="137.41379310344828" y="556.8689655172413" type="line"/>
    </contour>
    <contour>
      <point x="419.45862068965516" y="55.93103448275862" type="line"/>
      <point x="494.6586206896552" y="412.1551724137931" type="line" smooth="yes"/>
      <point x="507.8965517241379" y="473.33103448275864"/>
      <point x="528.6172413793104" y="498.3724137931034"/>
      <point x="568.8206896551724" y="498.3724137931034" type="curve" smooth="yes"/>
      <point x="614.5586206896553" y="498.3724137931034"/>
      <point x="649.6275862068966" y="449.6896551724138"/>
      <point x="649.6275862068966" y="326.6862068965517" type="curve" smooth="yes"/>
      <point x="649.6275862068966" y="199.39655172413794"/>
      <point x="610.6655172413793" y="55.93103448275862"/>
      <point x="511.8137931034483" y="55.93103448275862" type="curve" smooth="yes"/>
    </contour>
  </outline>
</glyph>
<glyph name="ya-tamil" format="2">
  <advance width="818.755172413793"/>
  <unicode hex="0BAF"/>
  <note>
uni0BAF
</note>
  <anchor x="359.92413793103447" y="0.0" name="bottom"/>
  <anchor x="795.2620689655173" y="556.8689655172413" name="imatra"/>
  <anchor x="361.2517241379311" y="0.0" name="nukta"/>
  <anchor x="479.7689655172413" y="556.8689655172413" name="top"/>
  <anchor x="471.89655172413785" y="556.8689655172413" name="vedic"/>
  <outline>
    <contour>
      <point x="151.13793103448276" y="-5.993103448275862" type="curve" smooth="yes"/>
      <point x="213.4103448275862" y="-5.993103448275862"/>
      <point x="250.30689655172412" y="30.072413793103447"/>
      <point x="268.40000000000003" y="55.217241379310344" type="curve"/>
      <point x="256.5827586206897" y="0.0" type="line"/>
      <point x="681.4241379310345" y="0.0" type="line"/>
      <point x="799.6758620689656" y="556.8689655172413" type="line"/>
      <point x="693.8896551724138" y="556.8689655172413" type="line"/>
      <point x="587.6137931034484" y="55.93103448275862" type="line"/>
      <point x="364.6137931034483" y="55.93103448275862" type="line"/>
      <point x="471.0" y="556.8689655172413" type="line"/>
      <point x="367.0931034482758" y="556.8689655172413" type="line"/>
      <point x="280.00000000000006" y="145.57931034482758" type="line" smooth="yes"/>
      <point x="268.14137931034486" y="89.51724137931033"/>
      <point x="238.42758620689656" y="58.62068965517241"/>
      <point x="198.2586206896552" y="58.62068965517241" type="curve" smooth="yes"/>
      <point x="159.8103448275862" y="58.62068965517241"/>
      <point x="139.79655172413794" y="92.78275862068965"/>
      <point x="152.6862068965517" y="153.37931034482762" type="curve" smooth="yes"/>
      <point x="239.06206896551723" y="556.8689655172413" type="line"/>
      <point x="133.82068965517243" y="556.8689655172413" type="line"/>
      <point x="50.61034482758622" y="165.63448275862066" type="line" smooth="yes"/>
      <point x="28.393103448275866" y="61.0344827586207"/>
      <point x="72.95862068965516" y="-5.993103448275862"/>
    </contour>
  </outline>
</glyph>
<glyph name="ra-tamil" format="2">
  <advance width="545.0241379310345"/>
  <unicode hex="0BB0"/>
  <note>
uni0BB0
</note>
  <anchor x="211.53448275862073" y="0.0" name="bottom"/>
  <anchor x="519.8137931034483" y="556.8689655172413" name="imatra"/>
  <anchor x="167.66206896551722" y="-206.61379310344827" name="nukta"/>
  <anchor x="349.1241379310345" y="556.8689655172413" name="top"/>
  <anchor x="359.9068965517241" y="556.8689655172413" name="vedic"/>
  <outline>
    <contour>
      <point x="78.32413793103447" y="-220.98275862068968" type="line"/>
      <point x="344.5689655172414" y="26.60689655172414" type="line"/>
      <point x="444.9068965517241" y="501.13103448275865" type="line"/>
      <point x="572.3551724137931" y="501.13103448275865" type="line"/>
      <point x="583.9068965517242" y="556.8689655172413" type="line"/>
      <point x="137.41379310344828" y="556.8689655172413" type="line"/>
      <point x="19.368965517241378" y="0.0" type="line"/>
      <point x="79.05172413793102" y="0.0" type="line"/>
      <point x="185.32758620689654" y="501.13103448275865" type="line"/>
      <point x="339.5137931034483" y="501.13103448275865" type="line"/>
      <point x="233.05172413793107" y="-1.33448275862069" type="line"/>
      <point x="41.686206896551724" y="-180.41379310344828" type="line"/>
    </contour>
  </outline>
</glyph>
<glyph name="rra-tamil" format="2">
  <advance width="719.6413793103449"/>
  <unicode hex="0BB1"/>
  <note>
uni0BB1
</note>
  <anchor x="298.1862068965517" y="0.0" name="bottom"/>
  <anchor x="262.7517241379311" y="-190.58620689655172" name="nukta"/>
  <anchor x="401.5931034482758" y="556.8689655172413" name="top"/>
  <anchor x="425.8689655172414" y="556.8689655172413" name="vedic"/>
  <outline>
    <contour>
      <point x="47.04137931034482" y="-246.13103448275862" type="curve"/>
      <point x="61.203448275862065" y="-172.94827586206898"/>
      <point x="90.63793103448278" y="-129.31724137931036"/>
      <point x="174.7448275862069" y="-129.31724137931036" type="curve" smooth="yes"/>
      <point x="263.76206896551724" y="-129.31724137931036" type="line" smooth="yes"/>
      <point x="535.6551724137931" y="-129.31724137931036"/>
      <point x="677.0241379310345" y="79.17586206896551"/>
      <point x="677.0241379310345" y="344.88620689655176" type="curve" smooth="yes"/>
      <point x="677.0241379310345" y="480.4310344827586"/>
      <point x="609.8724137931034" y="561.8689655172413"/>
      <point x="506.0793103448276" y="561.8689655172413" type="curve" smooth="yes"/>
      <point x="429.0827586206897" y="561.8689655172413"/>
      <point x="382.74827586206897" y="515.7206896551725"/>
      <point x="356.2241379310345" y="474.85517241379307" type="curve"/>
      <point x="345.451724137931" y="516.1172413793104"/>
      <point x="312.2275862068966" y="561.0620689655173"/>
      <point x="243.75862068965515" y="561.0620689655173" type="curve" smooth="yes"/>
      <point x="172.8448275862069" y="561.0620689655173"/>
      <point x="117.92068965517241" y="511.21034482758625"/>
      <point x="99.39999999999999" y="422.71379310344827" type="curve" smooth="yes"/>
      <point x="9.627586206896549" y="0.0" type="line"/>
      <point x="67.9103448275862" y="0.0" type="line"/>
      <point x="156.6" y="417.96206896551723" type="line" smooth="yes"/>
      <point x="168.33793103448278" y="473.74137931034477"/>
      <point x="193.93103448275863" y="503.9448275862069"/>
      <point x="236.5344827586207" y="503.9448275862069" type="curve" smooth="yes"/>
      <point x="286.0206896551724" y="503.9448275862069"/>
      <point x="300.4896551724138" y="459.3379310344828"/>
      <point x="288.1344827586207" y="401.24827586206897" type="curve" smooth="yes"/>
      <point x="202.8" y="0.0" type="line"/>
      <point x="308.85172413793106" y="0.0" type="line"/>
      <point x="395.9275862068966" y="408.6310344827586" type="line" smooth="yes"/>
      <point x="409.3758620689655" y="470.60344827586204"/>
      <point x="446.19310344827585" y="504.75172413793103"/>
      <point x="492.9689655172414" y="504.75172413793103" type="curve" smooth="yes"/>
      <point x="547.7103448275863" y="504.75172413793103"/>
      <point x="574.396551724138" y="456.4310344827586"/>
      <point x="574.396551724138" y="368.51724137931035" type="curve" smooth="yes"/>
      <point x="574.396551724138" y="127.47931034482757"/>
      <point x="477.99999999999994" y="-78.7551724137931"/>
      <point x="264.24827586206897" y="-78.7551724137931" type="curve" smooth="yes"/>
      <point x="145.1793103448276" y="-78.7551724137931" type="line" smooth="yes"/>
      <point x="47.86551724137931" y="-78.7551724137931"/>
      <point x="-28.786206896551725" y="-105.29310344827586"/>
      <point x="-28.786206896551725" y="-181.51034482758618" type="curve" smooth="yes"/>
      <point x="-28.786206896551725" y="-223.00344827586204"/>
      <point x="-0.9965517241379305" y="-246.13103448275862"/>
    </contour>
  </outline>
</glyph>
<glyph name="la-tamil" format="2">
  <advance width="880.6379310344828"/>
  <unicode hex="0BB2"/>
  <note>
uni0BB2
</note>
  <anchor x="380.35517241379307" y="0.0" name="bottom"/>
  <anchor x="380.35517241379307" y="0.0" name="nukta"/>
  <anchor x="518.6931034482759" y="556.8689655172413" name="top"/>
  <anchor x="497.7793103448276" y="556.8689655172413" name="vedic"/>
  <outline>
    <contour>
      <point x="194.42068965517242" y="-5.0" type="curve" smooth="yes"/>
      <point x="286.06206896551726" y="-5.0"/>
      <point x="367.03793103448277" y="64.46551724137932"/>
      <point x="367.03793103448277" y="175.4344827586207" type="curve" smooth="yes"/>
      <point x="367.03793103448277" y="256.7586206896552"/>
      <point x="314.71379310344827" y="308.51724137931035"/>
      <point x="242.51724137931035" y="308.51724137931035" type="curve" smooth="yes"/>
      <point x="158.26206896551724" y="308.51724137931035"/>
      <point x="96.81724137931035" y="238.51724137931035"/>
      <point x="65.81379310344828" y="137.25862068965517" type="curve"/>
      <point x="91.86551724137931" y="110.22068965517242" type="line"/>
      <point x="114.72758620689656" y="190.74137931034485"/>
      <point x="153.66551724137932" y="236.46896551724137"/>
      <point x="204.15517241379308" y="236.46896551724137" type="curve" smooth="yes"/>
      <point x="243.96206896551723" y="236.46896551724137"/>
      <point x="267.1620689655172" y="205.55862068965516"/>
      <point x="267.1620689655172" y="158.25172413793103" type="curve" smooth="yes"/>
      <point x="267.1620689655172" y="100.1448275862069"/>
      <point x="235.37241379310345" y="52.69655172413793"/>
      <point x="180.12758620689658" y="52.69655172413793" type="curve" smooth="yes"/>
      <point x="123.11724137931036" y="52.69655172413793"/>
      <point x="88.5793103448276" y="111.4655172413793"/>
      <point x="88.5793103448276" y="204.67241379310343" type="curve" smooth="yes"/>
      <point x="88.5793103448276" y="353.84482758620686"/>
      <point x="192.69655172413795" y="504.97241379310344"/>
      <point x="349.5724137931034" y="504.97241379310344" type="curve" smooth="yes"/>
      <point x="464.6793103448276" y="504.97241379310344"/>
      <point x="509.2379310344828" y="424.6310344827586"/>
      <point x="481.7137931034483" y="303.0103448275862" type="curve" smooth="yes"/>
      <point x="453.0862068965517" y="177.79310344827584" type="line" smooth="yes"/>
      <point x="430.8379310344827" y="79.5344827586207"/>
      <point x="466.90000000000003" y="-0.8000000000000003"/>
      <point x="573.9103448275862" y="-0.8000000000000003" type="curve" smooth="yes"/>
      <point x="725.451724137931" y="-0.8000000000000003"/>
      <point x="844.6034482758621" y="151.84827586206896"/>
      <point x="844.6034482758621" y="364.09655172413795" type="curve" smooth="yes"/>
      <point x="844.6034482758621" y="439.29655172413794"/>
      <point x="825.8068965517242" y="503.3931034482759"/>
      <point x="796.5068965517241" y="562.0862068965517" type="curve"/>
      <point x="743.4862068965517" y="536.1689655172413" type="line"/>
      <point x="767.7724137931035" y="484.65172413793107"/>
      <point x="787.893103448276" y="425.6206896551724"/>
      <point x="787.893103448276" y="356.86206896551727" type="curve" smooth="yes"/>
      <point x="787.893103448276" y="187.74827586206897"/>
      <point x="693.9758620689655" y="61.068965517241374"/>
      <point x="602.9758620689656" y="61.068965517241374" type="curve" smooth="yes"/>
      <point x="549.6206896551724" y="61.068965517241374"/>
      <point x="543.0758620689655" y="110.19655172413793"/>
      <point x="557.6758620689656" y="174.6689655172414" type="curve" smooth="yes"/>
      <point x="587.2448275862068" y="305.26206896551724" type="line" smooth="yes"/>
      <point x="623.0896551724138" y="464.5827586206896"/>
      <point x="532.4724137931034" y="561.8689655172413"/>
      <point x="367.70344827586206" y="561.8689655172413" type="curve" smooth="yes"/>
      <point x="171.46551724137933" y="561.8689655172413"/>
      <point x="32.831034482758625" y="384.6758620689655"/>
      <point x="32.831034482758625" y="201.58965517241379" type="curve" smooth="yes"/>
      <point x="32.831034482758625" y="76.11034482758622"/>
      <point x="94.04482758620688" y="-5.0"/>
    </contour>
  </outline>
</glyph>
<glyph name="lla-tamil" format="2">
  <advance width="1039.5827586206897"/>
  <unicode hex="0BB3"/>
  <note>
uni0BB3
</note>
  <anchor x="479.7" y="0.0" name="bottom"/>
  <anchor x="996.1137931034483" y="556.8689655172413" name="imatra"/>
  <anchor x="482.81379310344823" y="0.0" name="nukta"/>
  <anchor x="627.7137931034483" y="556.8689655172413" name="top"/>
  <anchor x="594.4965517241379" y="556.8689655172413" name="vedic"/>
  <outline>
    <contour>
      <point x="195.82068965517243" y="-5.0" type="curve" smooth="yes"/>
      <point x="287.46206896551723" y="-5.0"/>
      <point x="368.4379310344828" y="64.46551724137932"/>
      <point x="368.4379310344828" y="175.4344827586207" type="curve" smooth="yes"/>
      <point x="368.4379310344828" y="256.7586206896552"/>
      <point x="316.50000000000006" y="308.51724137931035"/>
      <point x="244.30344827586208" y="308.51724137931035" type="curve" smooth="yes"/>
      <point x="160.04827586206898" y="308.51724137931035"/>
      <point x="98.21724137931035" y="238.51724137931035"/>
      <point x="67.21379310344828" y="137.25862068965517" type="curve"/>
      <point x="93.26551724137931" y="110.22068965517242" type="line"/>
      <point x="116.12758620689655" y="190.74137931034485"/>
      <point x="155.0655172413793" y="236.46896551724137"/>
      <point x="205.5551724137931" y="236.46896551724137" type="curve" smooth="yes"/>
      <point x="245.36206896551724" y="236.46896551724137"/>
      <point x="268.56206896551726" y="205.55862068965516"/>
      <point x="268.56206896551726" y="158.25172413793103" type="curve" smooth="yes"/>
      <point x="268.56206896551726" y="100.1448275862069"/>
      <point x="236.77241379310345" y="52.69655172413793"/>
      <point x="181.52758620689656" y="52.69655172413793" type="curve" smooth="yes"/>
      <point x="124.51724137931035" y="52.69655172413793"/>
      <point x="89.9793103448276" y="111.4655172413793"/>
      <point x="89.9793103448276" y="204.67241379310343" type="curve" smooth="yes"/>
      <point x="89.9793103448276" y="356.3793103448276"/>
      <point x="186.22758620689655" y="504.7793103448276"/>
      <point x="347.3103448275862" y="504.7793103448276" type="curve" smooth="yes"/>
      <point x="476.1206896551724" y="504.7793103448276"/>
      <point x="547.9" y="421.00344827586207"/>
      <point x="519.8965517241379" y="283.85517241379307" type="curve"/>
      <point x="576.3068965517241" y="290.2655172413793" type="line"/>
      <point x="603.6413793103449" y="454.47241379310344"/>
      <point x="508.7862068965517" y="561.8689655172413"/>
      <point x="351.0551724137931" y="561.8689655172413" type="curve" smooth="yes"/>
      <point x="158.7103448275862" y="561.8689655172413"/>
      <point x="34.23103448275862" y="387.7896551724138"/>
      <point x="34.23103448275862" y="201.58965517241379" type="curve" smooth="yes"/>
      <point x="34.23103448275862" y="76.11034482758622"/>
      <point x="95.44482758620688" y="-5.0"/>
    </contour>
    <contour>
      <point x="459.2241379310345" y="0.0" type="line"/>
      <point x="563.6379310344827" y="0.0" type="line"/>
      <point x="670.3241379310344" y="501.13103448275865" type="line"/>
      <point x="835.1862068965518" y="501.13103448275865" type="line"/>
      <point x="728.7172413793103" y="0.0" type="line"/>
      <point x="832.9137931034483" y="0.0" type="line"/>
      <point x="939.8896551724138" y="501.13103448275865" type="line"/>
      <point x="1066.9137931034484" y="501.13103448275865" type="line"/>
      <point x="1078.7793103448275" y="556.8689655172413" type="line"/>
      <point x="596.6655172413792" y="556.8689655172413" type="line"/>
      <point x="558.393103448276" y="374.3" type="line"/>
      <point x="538.7137931034482" y="373.4655172413793" type="line"/>
    </contour>
  </outline>
</glyph>
<glyph name="llla-tamil" format="2">
  <advance width="756.1137931034483"/>
  <unicode hex="0BB4"/>
  <note>
uni0BB4
</note>
  <anchor x="316.8379310344828" y="0.0" name="bottom"/>
  <anchor x="251.89999999999998" y="-308.8655172413793" name="nukta"/>
  <anchor x="472.003448275862" y="556.8689655172413" name="top"/>
  <anchor x="452.1620689655173" y="556.8689655172413" name="vedic"/>
  <anchor x="734.0758620689655" y="556.8689655172413" name="imatra"/>
  <outline>
    <contour>
      <point x="161.0655172413793" y="-333.51379310344834" type="curve" smooth="yes"/>
      <point x="333.86206896551727" y="-333.51379310344834"/>
      <point x="387.26896551724144" y="-160.76206896551724"/>
      <point x="522.7862068965517" y="-160.76206896551724" type="curve" smooth="yes"/>
      <point x="562.1241379310346" y="-160.76206896551724" type="line"/>
      <point x="574.3724137931035" y="-105.11724137931036" type="line"/>
      <point x="523.9551724137931" y="-105.11724137931036" type="line" smooth="yes"/>
      <point x="447.61724137931037" y="-105.11724137931036"/>
      <point x="395.16896551724136" y="-59.78620689655173"/>
      <point x="410.16551724137935" y="12.306896551724137" type="curve" smooth="yes"/>
      <point x="428.9827586206896" y="100.66206896551724" type="line"/>
      <point x="324.7172413793104" y="100.66206896551724" type="line"/>
      <point x="306.451724137931" y="13.3" type="line" smooth="yes"/>
      <point x="292.35862068965514" y="-54.05862068965517"/>
      <point x="349.93793103448274" y="-118.40689655172415"/>
      <point x="419.50344827586207" y="-127.42068965517241" type="curve"/>
      <point x="418.50344827586207" y="-132.1068965517241" type="line"/>
      <point x="295.3241379310345" y="-145.15862068965515"/>
      <point x="248.8379310344828" y="-272.66896551724136"/>
      <point x="144.1793103448276" y="-272.66896551724136" type="curve" smooth="yes"/>
      <point x="99.1448275862069" y="-272.66896551724136"/>
      <point x="70.54482758620689" y="-240.7448275862069"/>
      <point x="70.54482758620689" y="-198.7" type="curve" smooth="yes"/>
      <point x="70.54482758620689" y="-152.99310344827586"/>
      <point x="100.24482758620688" y="-117.87241379310345"/>
      <point x="148.58275862068965" y="-117.87241379310345" type="curve" smooth="yes"/>
      <point x="178.81034482758622" y="-117.87241379310345"/>
      <point x="204.5068965517241" y="-132.4896551724138"/>
      <point x="224.91034482758624" y="-153.38275862068966" type="curve"/>
      <point x="263.36896551724135" y="-110.98620689655172" type="line"/>
      <point x="233.87241379310345" y="-81.37586206896553"/>
      <point x="193.8551724137931" y="-64.23448275862069"/>
      <point x="150.13793103448276" y="-64.23448275862069" type="curve" smooth="yes"/>
      <point x="72.02413793103449" y="-64.23448275862069"/>
      <point x="13.386206896551725" y="-125.55862068965517"/>
      <point x="13.386206896551725" y="-205.11724137931034" type="curve" smooth="yes"/>
      <point x="13.386206896551725" y="-277.57586206896553"/>
      <point x="72.08620689655172" y="-333.51379310344834"/>
    </contour>
    <component base="ma-tamil"/>
  </outline>
</glyph>
<glyph name="va-tamil" format="2">
  <advance width="948.251724137931"/>
  <unicode hex="0BB5"/>
  <note>
uni0BB5
</note>
  <anchor x="447.97241379310344" y="0.0" name="bottom"/>
  <anchor x="839.8724137931034" y="556.8689655172413" name="imatra"/>
  <anchor x="446.8137931034483" y="0.0" name="nukta"/>
  <anchor x="536.7379310344828" y="556.8689655172413" name="top"/>
  <anchor x="522.5" y="556.8689655172413" name="vedic"/>
  <outline>
    <contour>
      <point x="193.39655172413794" y="-5.0" type="curve" smooth="yes"/>
      <point x="285.03793103448277" y="-5.0"/>
      <point x="366.0137931034483" y="64.46551724137932"/>
      <point x="366.0137931034483" y="175.4344827586207" type="curve" smooth="yes"/>
      <point x="366.0137931034483" y="256.7586206896552"/>
      <point x="313.6896551724138" y="308.51724137931035"/>
      <point x="241.49310344827586" y="308.51724137931035" type="curve" smooth="yes"/>
      <point x="157.23793103448276" y="308.51724137931035"/>
      <point x="95.79310344827586" y="238.51724137931035"/>
      <point x="64.78965517241379" y="137.25862068965517" type="curve"/>
      <point x="90.84137931034482" y="110.22068965517242" type="line"/>
      <point x="113.70344827586207" y="190.74137931034485"/>
      <point x="152.64137931034483" y="236.46896551724137"/>
      <point x="203.1310344827586" y="236.46896551724137" type="curve" smooth="yes"/>
      <point x="242.93793103448277" y="236.46896551724137"/>
      <point x="266.13793103448273" y="205.55862068965516"/>
      <point x="266.13793103448273" y="158.25172413793103" type="curve" smooth="yes"/>
      <point x="266.13793103448273" y="100.1448275862069"/>
      <point x="234.34827586206896" y="52.69655172413793"/>
      <point x="179.1034482758621" y="52.69655172413793" type="curve" smooth="yes"/>
      <point x="122.09310344827587" y="52.69655172413793"/>
      <point x="87.5551724137931" y="111.4655172413793"/>
      <point x="87.5551724137931" y="204.67241379310343" type="curve" smooth="yes"/>
      <point x="87.5551724137931" y="351.1758620689655"/>
      <point x="207.2965517241379" y="504.97241379310344"/>
      <point x="359.21034482758625" y="504.97241379310344" type="curve" smooth="yes"/>
      <point x="477.04137931034484" y="504.97241379310344"/>
      <point x="530.0137931034483" y="424.99655172413793"/>
      <point x="529.6275862068966" y="317.3172413793104" type="curve" smooth="yes"/>
      <point x="529.2413793103449" y="211.70344827586206"/>
      <point x="484.3206896551724" y="125.03103448275861"/>
      <point x="416.83103448275864" y="41.7551724137931" type="curve"/>
      <point x="426.23793103448276" y="0.0" type="line"/>
      <point x="810.9206896551724" y="0.0" type="line"/>
      <point x="929.3896551724139" y="556.8689655172413" type="line"/>
      <point x="824.1103448275862" y="556.8689655172413" type="line"/>
      <point x="717.6172413793104" y="55.93103448275862" type="line"/>
      <point x="502.6068965517241" y="55.93103448275862" type="line"/>
      <point x="580.0103448275863" y="131.4586206896552"/>
      <point x="634.1137931034483" y="218.5655172413793"/>
      <point x="634.1137931034483" y="332.2689655172414" type="curve" smooth="yes"/>
      <point x="634.1137931034483" y="476.70344827586206"/>
      <point x="530.5931034482758" y="561.8689655172413"/>
      <point x="374.93448275862073" y="561.8689655172413" type="curve" smooth="yes"/>
      <point x="182.00344827586207" y="561.8689655172413"/>
      <point x="31.80689655172414" y="380.9206896551724"/>
      <point x="31.80689655172414" y="201.58965517241379" type="curve" smooth="yes"/>
      <point x="31.80689655172414" y="76.11034482758622"/>
      <point x="93.0206896551724" y="-5.0"/>
    </contour>
  </outline>
</glyph>
<glyph name="ssa-tamil" format="2">
  <advance width="1212.996551724138"/>
  <unicode hex="0BB7"/>
  <note>
uni0BB7
</note>
  <anchor x="562.106896551724" y="0.0" name="bottom"/>
  <anchor x="479.6206896551724" y="0.0" name="nukta"/>
  <anchor x="693.851724137931" y="556.8689655172413" name="top"/>
  <anchor x="681.9793103448276" y="556.8689655172413" name="vedic"/>
  <outline>
    <contour>
      <point x="193.39655172413794" y="-5.0" type="curve" smooth="yes"/>
      <point x="285.03793103448277" y="-5.0"/>
      <point x="366.0137931034483" y="64.46551724137932"/>
      <point x="366.0137931034483" y="175.4344827586207" type="curve" smooth="yes"/>
      <point x="366.0137931034483" y="256.7586206896552"/>
      <point x="313.6896551724138" y="308.51724137931035"/>
      <point x="241.49310344827586" y="308.51724137931035" type="curve" smooth="yes"/>
      <point x="157.23793103448276" y="308.51724137931035"/>
      <point x="95.79310344827586" y="238.51724137931035"/>
      <point x="64.78965517241379" y="137.25862068965517" type="curve"/>
      <point x="90.84137931034482" y="110.22068965517242" type="line"/>
      <point x="113.70344827586207" y="190.74137931034485"/>
      <point x="152.64137931034483" y="236.46896551724137"/>
      <point x="203.1310344827586" y="236.46896551724137" type="curve" smooth="yes"/>
      <point x="242.93793103448277" y="236.46896551724137"/>
      <point x="266.13793103448273" y="205.55862068965516"/>
      <point x="266.13793103448273" y="158.25172413793103" type="curve" smooth="yes"/>
      <point x="266.13793103448273" y="100.1448275862069"/>
      <point x="234.34827586206896" y="52.69655172413793"/>
      <point x="179.1034482758621" y="52.69655172413793" type="curve" smooth="yes"/>
      <point x="122.09310344827587" y="52.69655172413793"/>
      <point x="87.5551724137931" y="111.4655172413793"/>
      <point x="87.5551724137931" y="204.67241379310343" type="curve" smooth="yes"/>
      <point x="87.5551724137931" y="351.1758620689655"/>
      <point x="207.2965517241379" y="504.97241379310344"/>
      <point x="359.21034482758625" y="504.97241379310344" type="curve" smooth="yes"/>
      <point x="474.86896551724135" y="504.97241379310344"/>
      <point x="530.0137931034483" y="424.1275862068965"/>
      <point x="529.6275862068966" y="316.44827586206895" type="curve" smooth="yes"/>
      <point x="529.2413793103449" y="210.83448275862068"/>
      <point x="484.3206896551724" y="125.03103448275861"/>
      <point x="416.83103448275864" y="41.7551724137931" type="curve"/>
      <point x="426.23793103448276" y="0.0" type="line"/>
      <point x="1102.4275862068966" y="0.0" type="line"/>
      <point x="1170.3620689655172" y="319.4068965517241" type="line"/>
      <point x="1056.6413793103447" y="267.6896551724138" type="line"/>
      <point x="1011.7379310344828" y="55.93103448275862" type="line"/>
      <point x="502.6068965517241" y="55.93103448275862" type="line"/>
      <point x="580.0103448275863" y="131.4586206896552"/>
      <point x="634.1137931034483" y="217.69655172413792"/>
      <point x="634.1137931034483" y="331.40000000000003" type="curve" smooth="yes"/>
      <point x="634.1137931034483" y="475.83448275862065"/>
      <point x="532.1137931034482" y="561.8689655172413"/>
      <point x="374.0655172413793" y="561.8689655172413" type="curve" smooth="yes"/>
      <point x="181.13448275862072" y="561.8689655172413"/>
      <point x="31.80689655172414" y="381.5724137931035"/>
      <point x="31.80689655172414" y="201.58965517241379" type="curve" smooth="yes"/>
      <point x="31.80689655172414" y="76.11034482758622"/>
      <point x="93.0206896551724" y="-5.0"/>
    </contour>
    <contour>
      <point x="734.4827586206897" y="-271.04137931034484" type="line"/>
      <point x="836.3862068965517" y="-271.04137931034484" type="line"/>
      <point x="983.6758620689654" y="420.36206896551727" type="line" smooth="yes"/>
      <point x="1002.0275862068964" y="506.6206896551724"/>
      <point x="967.7896551724139" y="561.951724137931"/>
      <point x="884.5896551724137" y="561.951724137931" type="curve" smooth="yes"/>
      <point x="787.603448275862" y="561.951724137931"/>
      <point x="718.7137931034483" y="476.2172413793104"/>
      <point x="718.7137931034483" y="373.7655172413793" type="curve" smooth="yes"/>
      <point x="718.7137931034483" y="276.18275862068964"/>
      <point x="787.5344827586206" y="212.64137931034483"/>
      <point x="891.1448275862069" y="212.64137931034483" type="curve" smooth="yes"/>
      <point x="983.2896551724139" y="212.64137931034483"/>
      <point x="1062.2896551724139" y="240.71724137931034"/>
      <point x="1169.2793103448275" y="313.2931034482759" type="curve"/>
      <point x="1171.1689655172413" y="324.54137931034484" type="line"/>
      <point x="1147.2241379310344" y="355.84482758620686" type="line"/>
      <point x="1058.548275862069" y="295.9068965517242"/>
      <point x="982.1620689655174" y="266.2103448275862"/>
      <point x="899.3344827586207" y="266.2103448275862" type="curve" smooth="yes"/>
      <point x="813.9655172413793" y="266.2103448275862"/>
      <point x="772.3413793103448" y="303.7586206896552"/>
      <point x="772.3413793103448" y="380.21379310344827" type="curve" smooth="yes"/>
      <point x="772.3413793103448" y="440.0206896551724"/>
      <point x="803.2068965517241" y="496.24827586206897"/>
      <point x="849.2896551724137" y="496.24827586206897" type="curve" smooth="yes"/>
      <point x="880.9241379310345" y="496.24827586206897"/>
      <point x="891.5068965517241" y="470.22758620689655"/>
      <point x="883.4827586206897" y="431.6379310344828" type="curve" smooth="yes"/>
    </contour>
  </outline>
</glyph>
